<ttFont>
<head>
    <!-- Most of this table will be recalculated by the compiler -->
    <tableVersion value="1.0"/>
    <fontRevision value="1.0"/>
    <checkSumAdjustment value="0x5dda6678"/>
    <magicNumber value="0x5f0f3cf5"/>
    <flags value="00000000 00011010"/>
    <unitsPerEm value="2048"/>
    <created value="Thu Dec 11 10:48:23 1997"/>
    <modified value="Tue Nov 19 07:39:45 2002"/>
    <xMin value="-326"/>
    <yMin value="-410"/>
    <xMax value="1889"/>
    <yMax value="2015"/>
    <macStyle value="00000000 00000000"/>
    <lowestRecPPEM value="9"/>
    <fontDirectionHint value="2"/>
    <indexToLocFormat value="0"/>
    <glyphDataFormat value="0"/>
  </head>
    <TTGlyph name=".notdef" xMin="128" yMin="0" xMax="896" yMax="1633">
      <contour>
        <pt x="128" y="0" on="1"/>
        <pt x="128" y="1633" on="1"/>
        <pt x="896" y="1633" on="1"/>
        <pt x="896" y="0" on="1"/>
      </contour>
      <contour>
        <pt x="256" y="128" on="1"/>
        <pt x="768" y="128" on="1"/>
        <pt x="768" y="1505" on="1"/>
        <pt x="256" y="1505" on="1"/>
      </contour>
    </TTGlyph>
    <TTGlyph name=".notdef#10" xMin="45" yMin="0" xMax="1223" yMax="1565">
      <contour>
        <pt x="1223" y="0" on="1"/>
        <pt x="1092" y="0" on="1"/>
        <pt x="1092" y="856" on="1"/>
        <pt x="756" y="856" on="1"/>
        <pt x="756" y="0" on="1"/>
        <pt x="625" y="0" on="1"/>
        <pt x="625" y="856" on="1"/>
        <pt x="289" y="856" on="1"/>
        <pt x="289" y="0" on="1"/>
        <pt x="158" y="0" on="1"/>
        <pt x="158" y="856" on="1"/>
        <pt x="45" y="856" on="1"/>
        <pt x="45" y="973" on="1"/>
        <pt x="158" y="973" on="1"/>
        <pt x="158" y="1452" on="1"/>
        <pt x="158" y="1565" on="0"/>
        <pt x="270" y="1565" on="1"/>
        <pt x="477" y="1565" on="1"/>
        <pt x="477" y="1448" on="1"/>
        <pt x="289" y="1448" on="1"/>
        <pt x="289" y="973" on="1"/>
        <pt x="625" y="973" on="1"/>
        <pt x="625" y="1452" on="1"/>
        <pt x="625" y="1565" on="0"/>
        <pt x="737" y="1565" on="1"/>
        <pt x="1110" y="1565" on="1"/>
        <pt x="1223" y="1565" on="0"/>
        <pt x="1223" y="1452" on="1"/>
        <pt x="1223" y="1186" on="1"/>
        <pt x="1092" y="1186" on="1"/>
        <pt x="1092" y="1448" on="1"/>
        <pt x="756" y="1448" on="1"/>
        <pt x="756" y="973" on="1"/>
        <pt x="1223" y="973" on="1"/>
      </contour>
    </TTGlyph>
    <TTGlyph name=".notdef#11" xMin="45" yMin="0" xMax="1223" yMax="1565">
      <contour>
        <pt x="1223" y="0" on="1"/>
        <pt x="1092" y="0" on="1"/>
        <pt x="1092" y="1448" on="1"/>
        <pt x="756" y="1448" on="1"/>
        <pt x="756" y="973" on="1"/>
        <pt x="922" y="973" on="1"/>
        <pt x="922" y="856" on="1"/>
        <pt x="756" y="856" on="1"/>
        <pt x="756" y="0" on="1"/>
        <pt x="625" y="0" on="1"/>
        <pt x="625" y="856" on="1"/>
        <pt x="289" y="856" on="1"/>
        <pt x="289" y="0" on="1"/>
        <pt x="158" y="0" on="1"/>
        <pt x="158" y="856" on="1"/>
        <pt x="45" y="856" on="1"/>
        <pt x="45" y="973" on="1"/>
        <pt x="158" y="973" on="1"/>
        <pt x="158" y="1452" on="1"/>
        <pt x="158" y="1565" on="0"/>
        <pt x="270" y="1565" on="1"/>
        <pt x="477" y="1565" on="1"/>
        <pt x="477" y="1448" on="1"/>
        <pt x="289" y="1448" on="1"/>
        <pt x="289" y="973" on="1"/>
        <pt x="625" y="973" on="1"/>
        <pt x="625" y="1452" on="1"/>
        <pt x="625" y="1565" on="0"/>
        <pt x="737" y="1565" on="1"/>
        <pt x="1223" y="1565" on="1"/>
      </contour>
    </TTGlyph>
    <TTGlyph name=".notdef#12" xMin="125" yMin="0" xMax="1030" yMax="1565">
      <contour>
        <pt x="1030" y="66" on="1"/>
        <pt x="1030" y="0" on="0"/>
        <pt x="965" y="0" on="1"/>
        <pt x="190" y="0" on="1"/>
        <pt x="125" y="0" on="0"/>
        <pt x="125" y="66" on="1"/>
        <pt x="125" y="1499" on="1"/>
        <pt x="125" y="1565" on="0"/>
        <pt x="190" y="1565" on="1"/>
        <pt x="965" y="1565" on="1"/>
        <pt x="1030" y="1565" on="0"/>
        <pt x="1030" y="1499" on="1"/>
      </contour>
      <contour>
        <pt x="954" y="70" on="1"/>
        <pt x="954" y="1495" on="1"/>
        <pt x="201" y="1495" on="1"/>
        <pt x="201" y="70" on="1"/>
      </contour>
      <contour>
        <pt x="768" y="758" on="1"/>
        <pt x="768" y="686" on="0"/>
        <pt x="696" y="686" on="1"/>
        <pt x="494" y="686" on="1"/>
        <pt x="494" y="346" on="1"/>
        <pt x="391" y="346" on="1"/>
        <pt x="391" y="1227" on="1"/>
        <pt x="696" y="1227" on="1"/>
        <pt x="768" y="1227" on="0"/>
        <pt x="768" y="1157" on="1"/>
      </contour>
      <contour>
        <pt x="666" y="778" on="1"/>
        <pt x="666" y="1135" on="1"/>
        <pt x="494" y="1135" on="1"/>
        <pt x="494" y="778" on="1"/>
      </contour>
    </TTGlyph>
    <TTGlyph name=".notdef#13" xMin="119" yMin="0" xMax="928" yMax="1565">
      <contour>
        <pt x="928" y="760" on="1"/>
        <pt x="733" y="373" on="1"/>
        <pt x="913" y="0" on="1"/>
        <pt x="772" y="0" on="1"/>
        <pt x="666" y="231" on="1"/>
        <pt x="596" y="86" on="1"/>
        <pt x="555" y="0" on="0"/>
        <pt x="475" y="0" on="1"/>
        <pt x="233" y="0" on="1"/>
        <pt x="184" y="0" on="0"/>
        <pt x="119" y="63" on="0"/>
        <pt x="119" y="113" on="1"/>
        <pt x="119" y="532" on="1"/>
        <pt x="119" y="587" on="0"/>
        <pt x="154" y="635" on="1"/>
        <pt x="344" y="899" on="1"/>
        <pt x="304" y="984" on="0"/>
        <pt x="263" y="1068" on="1"/>
        <pt x="201" y="1206" on="0"/>
        <pt x="201" y="1257" on="1"/>
        <pt x="201" y="1450" on="1"/>
        <pt x="201" y="1500" on="0"/>
        <pt x="264" y="1565" on="0"/>
        <pt x="313" y="1565" on="1"/>
        <pt x="662" y="1565" on="1"/>
        <pt x="712" y="1565" on="0"/>
        <pt x="774" y="1501" on="0"/>
        <pt x="774" y="1450" on="1"/>
        <pt x="774" y="1241" on="1"/>
        <pt x="635" y="1241" on="1"/>
        <pt x="635" y="1442" on="1"/>
        <pt x="338" y="1442" on="1"/>
        <pt x="338" y="1212" on="1"/>
        <pt x="668" y="514" on="1"/>
        <pt x="784" y="760" on="1"/>
      </contour>
      <contour>
        <pt x="602" y="373" on="1"/>
        <pt x="410" y="774" on="1"/>
        <pt x="256" y="555" on="1"/>
        <pt x="256" y="123" on="1"/>
        <pt x="479" y="123" on="1"/>
      </contour>
    </TTGlyph>
    <TTGlyph name=".notdef#14" xMin="125" yMin="0" xMax="754" yMax="1565">
      <contour>
        <pt x="754" y="0" on="1"/>
        <pt x="614" y="0" on="1"/>
        <pt x="614" y="702" on="1"/>
        <pt x="264" y="702" on="1"/>
        <pt x="264" y="0" on="1"/>
        <pt x="125" y="0" on="1"/>
        <pt x="125" y="1454" on="1"/>
        <pt x="125" y="1503" on="0"/>
        <pt x="187" y="1565" on="0"/>
        <pt x="236" y="1565" on="1"/>
        <pt x="641" y="1565" on="1"/>
        <pt x="690" y="1565" on="0"/>
        <pt x="754" y="1503" on="0"/>
        <pt x="754" y="1454" on="1"/>
      </contour>
      <contour>
        <pt x="614" y="825" on="1"/>
        <pt x="614" y="1442" on="1"/>
        <pt x="264" y="1442" on="1"/>
        <pt x="264" y="825" on="1"/>
      </contour>
    </TTGlyph>
    <TTGlyph name=".notdef#15" xMin="125" yMin="0" xMax="729" yMax="1565">
      <contour>
        <pt x="729" y="1556" on="1"/>
        <pt x="468" y="865" on="1"/>
        <pt x="590" y="865" on="1"/>
        <pt x="694" y="865" on="0"/>
        <pt x="694" y="752" on="1"/>
        <pt x="694" y="0" on="1"/>
        <pt x="555" y="0" on="1"/>
        <pt x="555" y="749" on="1"/>
        <pt x="338" y="749" on="1"/>
        <pt x="313" y="796" on="1"/>
        <pt x="598" y="1565" on="1"/>
        <pt x="729" y="1565" on="1"/>
      </contour>
      <contour>
        <pt x="264" y="0" on="1"/>
        <pt x="125" y="0" on="1"/>
        <pt x="125" y="1565" on="1"/>
        <pt x="264" y="1565" on="1"/>
      </contour>
    </TTGlyph>
    <TTGlyph name=".notdef#16" xMin="125" yMin="0" xMax="1104" yMax="1565">
      <contour>
        <pt x="1104" y="0" on="1"/>
        <pt x="969" y="0" on="1"/>
        <pt x="969" y="1384" on="1"/>
        <pt x="682" y="1096" on="1"/>
        <pt x="682" y="0" on="1"/>
        <pt x="547" y="0" on="1"/>
        <pt x="547" y="1096" on="1"/>
        <pt x="260" y="1384" on="1"/>
        <pt x="260" y="0" on="1"/>
        <pt x="125" y="0" on="1"/>
        <pt x="125" y="1565" on="1"/>
        <pt x="258" y="1565" on="1"/>
        <pt x="616" y="1210" on="1"/>
        <pt x="971" y="1565" on="1"/>
        <pt x="1104" y="1565" on="1"/>
      </contour>
    </TTGlyph>
    <TTGlyph name=".notdef#17" xMin="125" yMin="0" xMax="752" yMax="1565">
      <contour>
        <pt x="752" y="0" on="1"/>
        <pt x="612" y="0" on="1"/>
        <pt x="612" y="664" on="1"/>
        <pt x="471" y="756" on="1"/>
        <pt x="264" y="756" on="1"/>
        <pt x="264" y="0" on="1"/>
        <pt x="125" y="0" on="1"/>
        <pt x="125" y="1565" on="1"/>
        <pt x="637" y="1565" on="1"/>
        <pt x="686" y="1565" on="0"/>
        <pt x="748" y="1503" on="0"/>
        <pt x="748" y="1454" on="1"/>
        <pt x="748" y="989" on="1"/>
        <pt x="748" y="927" on="0"/>
        <pt x="692" y="885" on="1"/>
        <pt x="637" y="852" on="0"/>
        <pt x="582" y="819" on="1"/>
        <pt x="700" y="743" on="1"/>
        <pt x="752" y="711" on="0"/>
        <pt x="752" y="643" on="1"/>
      </contour>
      <contour>
        <pt x="608" y="971" on="1"/>
        <pt x="608" y="1442" on="1"/>
        <pt x="264" y="1442" on="1"/>
        <pt x="264" y="877" on="1"/>
        <pt x="469" y="877" on="1"/>
      </contour>
    </TTGlyph>
    <TTGlyph name=".notdef#18" xMin="125" yMin="-8" xMax="774" yMax="1565">
      <contour>
        <pt x="774" y="0" on="1"/>
        <pt x="635" y="0" on="1"/>
        <pt x="635" y="49" on="1"/>
        <pt x="292" y="0" on="1"/>
        <pt x="233" y="-8" on="0"/>
        <pt x="209" y="-8" on="1"/>
        <pt x="176" y="-8" on="0"/>
        <pt x="125" y="40" on="0"/>
        <pt x="125" y="72" on="1"/>
        <pt x="125" y="1565" on="1"/>
        <pt x="264" y="1565" on="1"/>
        <pt x="264" y="139" on="1"/>
        <pt x="635" y="176" on="1"/>
        <pt x="635" y="1565" on="1"/>
        <pt x="774" y="1565" on="1"/>
      </contour>
    </TTGlyph>
    <TTGlyph name=".notdef#19" xMin="126" yMin="0" xMax="754" yMax="1564">
      <contour>
        <pt x="754" y="615" on="1"/>
        <pt x="754" y="508" on="0"/>
        <pt x="676" y="430" on="1"/>
        <pt x="246" y="0" on="1"/>
        <pt x="126" y="0" on="1"/>
        <pt x="126" y="1564" on="1"/>
        <pt x="266" y="1564" on="1"/>
        <pt x="266" y="203" on="1"/>
        <pt x="616" y="553" on="1"/>
        <pt x="616" y="1564" on="1"/>
        <pt x="754" y="1564" on="1"/>
      </contour>
    </TTGlyph>
    <TTGlyph name=".notdef#20" xMin="125" yMin="0" xMax="1104" yMax="1565">
      <contour>
        <pt x="1104" y="0" on="1"/>
        <pt x="971" y="0" on="1"/>
        <pt x="613" y="354" on="1"/>
        <pt x="258" y="0" on="1"/>
        <pt x="125" y="0" on="1"/>
        <pt x="125" y="1565" on="1"/>
        <pt x="260" y="1565" on="1"/>
        <pt x="260" y="180" on="1"/>
        <pt x="547" y="469" on="1"/>
        <pt x="547" y="1565" on="1"/>
        <pt x="682" y="1565" on="1"/>
        <pt x="682" y="469" on="1"/>
        <pt x="969" y="180" on="1"/>
        <pt x="969" y="1565" on="1"/>
        <pt x="1104" y="1565" on="1"/>
      </contour>
    </TTGlyph>
    <TTGlyph name=".notdef#21" xMin="127" yMin="0" xMax="752" yMax="1564">
      <contour>
        <pt x="752" y="0" on="1"/>
        <pt x="613" y="0" on="1"/>
        <pt x="612" y="582" on="1"/>
        <pt x="442" y="700" on="1"/>
        <pt x="266" y="578" on="1"/>
        <pt x="266" y="0" on="1"/>
        <pt x="127" y="0" on="1"/>
        <pt x="127" y="562" on="1"/>
        <pt x="127" y="626" on="0"/>
        <pt x="178" y="662" on="1"/>
        <pt x="327" y="768" on="1"/>
        <pt x="187" y="868" on="1"/>
        <pt x="136" y="904" on="0"/>
        <pt x="136" y="966" on="1"/>
        <pt x="136" y="1564" on="1"/>
        <pt x="275" y="1564" on="1"/>
        <pt x="275" y="948" on="1"/>
        <pt x="436" y="834" on="1"/>
        <pt x="603" y="954" on="1"/>
        <pt x="603" y="1564" on="1"/>
        <pt x="743" y="1564" on="1"/>
        <pt x="743" y="966" on="1"/>
        <pt x="743" y="904" on="0"/>
        <pt x="691" y="868" on="1"/>
        <pt x="552" y="768" on="1"/>
        <pt x="700" y="662" on="1"/>
        <pt x="752" y="626" on="0"/>
        <pt x="752" y="562" on="1"/>
      </contour>
    </TTGlyph>
    <TTGlyph name=".notdef#22" xMin="125" yMin="0" xMax="774" yMax="1565">
      <contour>
        <pt x="774" y="752" on="1"/>
        <pt x="774" y="638" on="0"/>
        <pt x="614" y="638" on="1"/>
        <pt x="596" y="638" on="0"/>
        <pt x="531" y="641" on="0"/>
        <pt x="521" y="641" on="1"/>
        <pt x="521" y="0" on="1"/>
        <pt x="378" y="0" on="1"/>
        <pt x="378" y="640" on="1"/>
        <pt x="366" y="641" on="0"/>
        <pt x="300" y="638" on="0"/>
        <pt x="282" y="638" on="1"/>
        <pt x="125" y="638" on="0"/>
        <pt x="125" y="752" on="1"/>
        <pt x="125" y="1565" on="1"/>
        <pt x="264" y="1565" on="1"/>
        <pt x="264" y="764" on="1"/>
        <pt x="635" y="764" on="1"/>
        <pt x="635" y="1565" on="1"/>
        <pt x="774" y="1565" on="1"/>
      </contour>
    </TTGlyph>
    <TTGlyph name=".notdef#23" xMin="125" yMin="0" xMax="754" yMax="1881">
      <component glyphName=".notdef#14" x="0" y="0" flags="0x214"/>
      <component glyphName="acute" x="129" y="587" flags="0x14"/>
    </TTGlyph>
    <TTGlyph name=".notdef#24" xMin="125" yMin="0" xMax="754" yMax="1882">
      <component glyphName=".notdef#14" x="0" y="0" flags="0x214"/>
      <component glyphName="grave" x="-74" y="588" flags="0x14"/>
    </TTGlyph>
    <TTGlyph name=".notdef#25" xMin="125" yMin="0" xMax="754" yMax="1882">
      <component glyphName=".notdef#14" x="0" y="0" flags="0x214"/>
      <component glyphName="circumflex" x="24" y="588" flags="0x14"/>
    </TTGlyph>
    <TTGlyph name=".notdef#26" xMin="125" yMin="0" xMax="754" yMax="1841">
      <component glyphName=".notdef#14" x="0" y="0" flags="0x214"/>
      <component glyphName="tilde" x="15" y="586" flags="0x14"/>
    </TTGlyph>
    <TTGlyph name=".notdef#27" xMin="125" yMin="0" xMax="754" yMax="1796">
      <component glyphName=".notdef#14" x="0" y="0" flags="0x214"/>
      <component glyphName="dieresis" x="18" y="586" flags="0x14"/>
    </TTGlyph>
    <TTGlyph name=".notdef#28" xMin="125" yMin="0" xMax="754" yMax="2015">
      <component glyphName=".notdef#14" x="0" y="0" flags="0x214"/>
      <component glyphName="ring" x="24" y="583" flags="0x14"/>
    </TTGlyph>
    <TTGlyph name=".notdef#29" xMin="125" yMin="-8" xMax="774" yMax="1882">
      <component glyphName=".notdef#18" x="0" y="0" flags="0x214"/>
      <component glyphName="acute" x="147" y="588" flags="0x14"/>
    </TTGlyph>
    <TTGlyph name=".notdef#3" xMin="53" yMin="758" xMax="504" yMax="901">
      <contour>
        <pt x="504" y="758" on="1"/>
        <pt x="53" y="758" on="1"/>
        <pt x="53" y="901" on="1"/>
        <pt x="504" y="901" on="1"/>
      </contour>
    </TTGlyph>
    <TTGlyph name=".notdef#30" xMin="125" yMin="-8" xMax="774" yMax="1882">
      <component glyphName=".notdef#18" x="0" y="0" flags="0x214"/>
      <component glyphName="grave" x="-50" y="588" flags="0x14"/>
    </TTGlyph>
    <TTGlyph name=".notdef#31" xMin="125" yMin="-8" xMax="774" yMax="1880">
      <component glyphName=".notdef#18" x="0" y="0" flags="0x214"/>
      <component glyphName="circumflex" x="32" y="586" flags="0x14"/>
    </TTGlyph>
    <TTGlyph name=".notdef#32" xMin="125" yMin="-8" xMax="774" yMax="1801">
      <component glyphName=".notdef#18" x="0" y="0" flags="0x214"/>
      <component glyphName="dieresis" x="44" y="591" flags="0x14"/>
    </TTGlyph>
    <TTGlyph name=".notdef#33" xMin="125" yMin="0" xMax="774" yMax="1871">
      <component glyphName=".notdef#22" x="0" y="0" flags="0x214"/>
      <component glyphName="acute" x="135" y="577" flags="0x14"/>
    </TTGlyph>
    <TTGlyph name=".notdef#34" xMin="125" yMin="0" xMax="774" yMax="1798">
      <component glyphName=".notdef#22" x="0" y="0" flags="0x214"/>
      <component glyphName="dieresis" x="37" y="588" flags="0x14"/>
    </TTGlyph>
    <TTGlyph name=".notdef#35" xMin="125" yMin="0" xMax="774" yMax="1572">
      <contour>
        <pt x="125" y="1565" on="1"/>
        <pt x="264" y="1565" on="1"/>
        <pt x="264" y="1516" on="1"/>
        <pt x="607" y="1564" on="1"/>
        <pt x="666" y="1572" on="0"/>
        <pt x="690" y="1572" on="1"/>
        <pt x="723" y="1572" on="0"/>
        <pt x="774" y="1525" on="0"/>
        <pt x="774" y="1493" on="1"/>
        <pt x="774" y="0" on="1"/>
        <pt x="635" y="0" on="1"/>
        <pt x="635" y="1426" on="1"/>
        <pt x="264" y="1389" on="1"/>
        <pt x="264" y="0" on="1"/>
        <pt x="125" y="0" on="1"/>
      </contour>
    </TTGlyph>
    <TTGlyph name=".notdef#36" xMin="125" yMin="0" xMax="774" yMax="1840">
      <component glyphName=".notdef#35" x="0" y="0" flags="0x214"/>
      <component glyphName="tilde" x="48" y="585" flags="0x14"/>
    </TTGlyph>
    <TTGlyph name=".notdef#37" xMin="92" yMin="769" xMax="577" yMax="1565">
      <contour>
        <pt x="577" y="871" on="1"/>
        <pt x="577" y="829" on="0"/>
        <pt x="520" y="769" on="0"/>
        <pt x="479" y="769" on="1"/>
        <pt x="188" y="769" on="1"/>
        <pt x="151" y="769" on="0"/>
        <pt x="92" y="834" on="0"/>
        <pt x="92" y="871" on="1"/>
        <pt x="92" y="1462" on="1"/>
        <pt x="92" y="1498" on="0"/>
        <pt x="152" y="1565" on="0"/>
        <pt x="188" y="1565" on="1"/>
        <pt x="479" y="1565" on="1"/>
        <pt x="518" y="1565" on="0"/>
        <pt x="577" y="1501" on="0"/>
        <pt x="577" y="1462" on="1"/>
      </contour>
      <contour>
        <pt x="456" y="881" on="1"/>
        <pt x="456" y="1448" on="1"/>
        <pt x="213" y="1448" on="1"/>
        <pt x="213" y="881" on="1"/>
      </contour>
    </TTGlyph>
    <TTGlyph name=".notdef#38" xMin="82" yMin="769" xMax="556" yMax="1565">
      <contour>
        <pt x="556" y="882" on="1"/>
        <pt x="556" y="839" on="0"/>
        <pt x="534" y="806" on="1"/>
        <pt x="508" y="769" on="0"/>
        <pt x="467" y="769" on="1"/>
        <pt x="171" y="769" on="1"/>
        <pt x="138" y="769" on="0"/>
        <pt x="82" y="835" on="0"/>
        <pt x="82" y="868" on="1"/>
        <pt x="82" y="1027" on="1"/>
        <pt x="201" y="1027" on="1"/>
        <pt x="201" y="881" on="1"/>
        <pt x="436" y="881" on="1"/>
        <pt x="436" y="1159" on="1"/>
        <pt x="86" y="1159" on="1"/>
        <pt x="91" y="1565" on="1"/>
        <pt x="536" y="1565" on="1"/>
        <pt x="536" y="1449" on="1"/>
        <pt x="193" y="1449" on="1"/>
        <pt x="190" y="1279" on="1"/>
        <pt x="467" y="1279" on="1"/>
        <pt x="502" y="1279" on="0"/>
        <pt x="556" y="1227" on="0"/>
        <pt x="556" y="1193" on="1"/>
      </contour>
    </TTGlyph>
    <TTGlyph name=".notdef#39" xMin="92" yMin="769" xMax="571" yMax="1565">
      <contour>
        <pt x="571" y="880" on="1"/>
        <pt x="571" y="831" on="0"/>
        <pt x="509" y="769" on="0"/>
        <pt x="460" y="769" on="1"/>
        <pt x="203" y="769" on="1"/>
        <pt x="154" y="769" on="0"/>
        <pt x="92" y="831" on="0"/>
        <pt x="92" y="880" on="1"/>
        <pt x="92" y="1454" on="1"/>
        <pt x="92" y="1503" on="0"/>
        <pt x="154" y="1565" on="0"/>
        <pt x="203" y="1565" on="1"/>
        <pt x="456" y="1565" on="1"/>
        <pt x="505" y="1565" on="0"/>
        <pt x="566" y="1503" on="0"/>
        <pt x="566" y="1454" on="1"/>
        <pt x="566" y="1326" on="1"/>
        <pt x="450" y="1326" on="1"/>
        <pt x="450" y="1451" on="1"/>
        <pt x="210" y="1451" on="1"/>
        <pt x="210" y="1243" on="1"/>
        <pt x="460" y="1243" on="1"/>
        <pt x="509" y="1243" on="0"/>
        <pt x="571" y="1182" on="0"/>
        <pt x="571" y="1133" on="1"/>
      </contour>
      <contour>
        <pt x="451" y="879" on="1"/>
        <pt x="451" y="1124" on="1"/>
        <pt x="210" y="1124" on="1"/>
        <pt x="210" y="879" on="1"/>
      </contour>
    </TTGlyph>
    <TTGlyph name=".notdef#4" xMin="37" yMin="401" xMax="492" yMax="878">
      <contour>
        <pt x="492" y="737" on="1"/>
        <pt x="37" y="401" on="1"/>
        <pt x="37" y="543" on="1"/>
        <pt x="492" y="878" on="1"/>
      </contour>
    </TTGlyph>
    <TTGlyph name=".notdef#40" xMin="30" yMin="754" xMax="544" yMax="1565">
      <contour>
        <pt x="544" y="1493" on="1"/>
        <pt x="292" y="754" on="1"/>
        <pt x="160" y="754" on="1"/>
        <pt x="409" y="1450" on="1"/>
        <pt x="149" y="1450" on="1"/>
        <pt x="149" y="1323" on="1"/>
        <pt x="30" y="1323" on="1"/>
        <pt x="30" y="1565" on="1"/>
        <pt x="544" y="1565" on="1"/>
      </contour>
    </TTGlyph>
    <TTGlyph name=".notdef#41" xMin="90" yMin="769" xMax="578" yMax="1566">
      <contour>
        <pt x="578" y="865" on="1"/>
        <pt x="578" y="831" on="0"/>
        <pt x="515" y="769" on="0"/>
        <pt x="482" y="769" on="1"/>
        <pt x="184" y="769" on="1"/>
        <pt x="150" y="769" on="0"/>
        <pt x="90" y="831" on="0"/>
        <pt x="90" y="865" on="1"/>
        <pt x="90" y="1045" on="1"/>
        <pt x="90" y="1102" on="0"/>
        <pt x="132" y="1134" on="1"/>
        <pt x="139" y="1140" on="0"/>
        <pt x="226" y="1184" on="1"/>
        <pt x="137" y="1231" on="0"/>
        <pt x="137" y="1232" on="1"/>
        <pt x="94" y="1263" on="0"/>
        <pt x="94" y="1315" on="1"/>
        <pt x="94" y="1470" on="1"/>
        <pt x="94" y="1508" on="0"/>
        <pt x="149" y="1566" on="0"/>
        <pt x="188" y="1566" on="1"/>
        <pt x="479" y="1566" on="1"/>
        <pt x="513" y="1566" on="0"/>
        <pt x="573" y="1504" on="0"/>
        <pt x="573" y="1470" on="1"/>
        <pt x="573" y="1315" on="1"/>
        <pt x="573" y="1265" on="0"/>
        <pt x="528" y="1232" on="1"/>
        <pt x="484" y="1208" on="0"/>
        <pt x="440" y="1184" on="1"/>
        <pt x="532" y="1136" on="0"/>
        <pt x="535" y="1134" on="1"/>
        <pt x="578" y="1103" on="0"/>
        <pt x="578" y="1045" on="1"/>
      </contour>
      <contour>
        <pt x="462" y="1306" on="1"/>
        <pt x="461" y="1453" on="1"/>
        <pt x="208" y="1453" on="1"/>
        <pt x="208" y="1305" on="1"/>
        <pt x="334" y="1238" on="1"/>
      </contour>
      <contour>
        <pt x="461" y="876" on="1"/>
        <pt x="461" y="1055" on="1"/>
        <pt x="333" y="1126" on="1"/>
        <pt x="208" y="1060" on="1"/>
        <pt x="209" y="876" on="1"/>
      </contour>
    </TTGlyph>
    <TTGlyph name=".notdef#42" xMin="85" yMin="770" xMax="564" yMax="1566">
      <contour>
        <pt x="564" y="881" on="1"/>
        <pt x="564" y="832" on="0"/>
        <pt x="502" y="770" on="0"/>
        <pt x="453" y="770" on="1"/>
        <pt x="200" y="770" on="1"/>
        <pt x="151" y="770" on="0"/>
        <pt x="89" y="832" on="0"/>
        <pt x="89" y="881" on="1"/>
        <pt x="89" y="1009" on="1"/>
        <pt x="205" y="1009" on="1"/>
        <pt x="205" y="884" on="1"/>
        <pt x="446" y="884" on="1"/>
        <pt x="446" y="1092" on="1"/>
        <pt x="196" y="1092" on="1"/>
        <pt x="147" y="1092" on="0"/>
        <pt x="85" y="1153" on="0"/>
        <pt x="85" y="1202" on="1"/>
        <pt x="85" y="1455" on="1"/>
        <pt x="85" y="1504" on="0"/>
        <pt x="147" y="1566" on="0"/>
        <pt x="196" y="1566" on="1"/>
        <pt x="453" y="1566" on="1"/>
        <pt x="502" y="1566" on="0"/>
        <pt x="564" y="1504" on="0"/>
        <pt x="564" y="1455" on="1"/>
      </contour>
      <contour>
        <pt x="446" y="1210" on="1"/>
        <pt x="446" y="1456" on="1"/>
        <pt x="205" y="1456" on="1"/>
        <pt x="205" y="1210" on="1"/>
      </contour>
    </TTGlyph>
    <TTGlyph name=".notdef#43" xMin="92" yMin="0" xMax="577" yMax="796">
      <component glyphName=".notdef#37" x="0" y="-769" flags="0x214"/>
    </TTGlyph>
    <TTGlyph name=".notdef#44" xMin="84" yMin="0" xMax="268" yMax="796">
      <component glyphName="onesuperior" x="0" y="-769" flags="0x214"/>
    </TTGlyph>
    <TTGlyph name=".notdef#45" xMin="63" yMin="0" xMax="571" yMax="796">
      <component glyphName="twosuperior" x="0" y="-769" flags="0x214"/>
    </TTGlyph>
    <TTGlyph name=".notdef#46" xMin="71" yMin="0" xMax="563" yMax="796">
      <component glyphName="threesuperior" x="0" y="-769" flags="0x214"/>
    </TTGlyph>
    <TTGlyph name=".notdef#47" xMin="41" yMin="0" xMax="563" yMax="796">
      <component glyphName=".notdef#8" x="0" y="-769" flags="0x214"/>
    </TTGlyph>
    <TTGlyph name=".notdef#48" xMin="82" yMin="0" xMax="556" yMax="796">
      <component glyphName=".notdef#38" x="0" y="-769" flags="0x214"/>
    </TTGlyph>
    <TTGlyph name=".notdef#49" xMin="92" yMin="0" xMax="571" yMax="796">
      <component glyphName=".notdef#39" x="0" y="-769" flags="0x214"/>
    </TTGlyph>
    <TTGlyph name=".notdef#5" xMin="37" yMin="401" xMax="348" yMax="776">
      <contour>
        <pt x="348" y="635" on="1"/>
        <pt x="37" y="401" on="1"/>
        <pt x="37" y="543" on="1"/>
        <pt x="348" y="776" on="1"/>
      </contour>
    </TTGlyph>
    <TTGlyph name=".notdef#50" xMin="30" yMin="-15" xMax="544" yMax="796">
      <component glyphName=".notdef#40" x="0" y="-769" flags="0x214"/>
    </TTGlyph>
    <TTGlyph name=".notdef#51" xMin="90" yMin="0" xMax="578" yMax="797">
      <component glyphName=".notdef#41" x="0" y="-769" flags="0x214"/>
    </TTGlyph>
    <TTGlyph name=".notdef#52" xMin="85" yMin="1" xMax="564" yMax="797">
      <component glyphName=".notdef#42" x="0" y="-769" flags="0x214"/>
    </TTGlyph>
    <TTGlyph name=".notdef#6" xMin="18" yMin="0" xMax="893" yMax="1565">
      <contour>
        <pt x="893" y="1432" on="1"/>
        <pt x="18" y="0" on="1"/>
        <pt x="18" y="133" on="1"/>
        <pt x="893" y="1565" on="1"/>
      </contour>
    </TTGlyph>
    <TTGlyph name=".notdef#7" xMin="18" yMin="0" xMax="764" yMax="975">
      <contour>
        <pt x="764" y="877" on="1"/>
        <pt x="18" y="0" on="1"/>
        <pt x="18" y="102" on="1"/>
        <pt x="764" y="975" on="1"/>
      </contour>
    </TTGlyph>
    <TTGlyph name=".notdef#8" xMin="41" yMin="769" xMax="563" yMax="1565">
      <contour>
        <pt x="563" y="962" on="1"/>
        <pt x="482" y="962" on="1"/>
        <pt x="482" y="769" on="1"/>
        <pt x="364" y="769" on="1"/>
        <pt x="364" y="962" on="1"/>
        <pt x="41" y="962" on="1"/>
        <pt x="41" y="1047" on="1"/>
        <pt x="233" y="1565" on="1"/>
        <pt x="354" y="1565" on="1"/>
        <pt x="164" y="1066" on="1"/>
        <pt x="364" y="1066" on="1"/>
        <pt x="364" y="1341" on="1"/>
        <pt x="482" y="1341" on="1"/>
        <pt x="482" y="1066" on="1"/>
        <pt x="563" y="1066" on="1"/>
      </contour>
    </TTGlyph>
    <TTGlyph name=".notdef#9" xMin="45" yMin="0" xMax="944" yMax="1565">
      <contour>
        <pt x="944" y="1448" on="1"/>
        <pt x="756" y="1448" on="1"/>
        <pt x="756" y="973" on="1"/>
        <pt x="922" y="973" on="1"/>
        <pt x="922" y="856" on="1"/>
        <pt x="756" y="856" on="1"/>
        <pt x="756" y="0" on="1"/>
        <pt x="625" y="0" on="1"/>
        <pt x="625" y="856" on="1"/>
        <pt x="289" y="856" on="1"/>
        <pt x="289" y="0" on="1"/>
        <pt x="158" y="0" on="1"/>
        <pt x="158" y="856" on="1"/>
        <pt x="45" y="856" on="1"/>
        <pt x="45" y="973" on="1"/>
        <pt x="158" y="973" on="1"/>
        <pt x="158" y="1452" on="1"/>
        <pt x="158" y="1565" on="0"/>
        <pt x="270" y="1565" on="1"/>
        <pt x="477" y="1565" on="1"/>
        <pt x="477" y="1448" on="1"/>
        <pt x="289" y="1448" on="1"/>
        <pt x="289" y="973" on="1"/>
        <pt x="625" y="973" on="1"/>
        <pt x="625" y="1452" on="1"/>
        <pt x="625" y="1565" on="0"/>
        <pt x="737" y="1565" on="1"/>
        <pt x="944" y="1565" on="1"/>
      </contour>
    </TTGlyph>
    <TTGlyph name="A" xMin="63" yMin="0" xMax="756" yMax="1569">
      <contour>
        <pt x="756" y="0" on="1"/>
        <pt x="618" y="0" on="1"/>
        <pt x="563" y="348" on="1"/>
        <pt x="252" y="348" on="1"/>
        <pt x="197" y="0" on="1"/>
        <pt x="63" y="0" on="1"/>
        <pt x="63" y="4" on="1"/>
        <pt x="342" y="1569" on="1"/>
        <pt x="479" y="1569" on="1"/>
      </contour>
      <contour>
        <pt x="545" y="471" on="1"/>
        <pt x="408" y="1319" on="1"/>
        <pt x="270" y="471" on="1"/>
      </contour>
    </TTGlyph>
    <TTGlyph name="AE" xMin="55" yMin="0" xMax="1044" yMax="1565">
      <contour>
        <pt x="1044" y="0" on="1"/>
        <pt x="539" y="0" on="1"/>
        <pt x="539" y="348" on="1"/>
        <pt x="272" y="348" on="1"/>
        <pt x="188" y="0" on="1"/>
        <pt x="55" y="0" on="1"/>
        <pt x="55" y="4" on="1"/>
        <pt x="442" y="1565" on="1"/>
        <pt x="1038" y="1565" on="1"/>
        <pt x="1038" y="1442" on="1"/>
        <pt x="676" y="1442" on="1"/>
        <pt x="676" y="858" on="1"/>
        <pt x="1008" y="858" on="1"/>
        <pt x="1008" y="733" on="1"/>
        <pt x="676" y="733" on="1"/>
        <pt x="676" y="123" on="1"/>
        <pt x="1044" y="123" on="1"/>
      </contour>
      <contour>
        <pt x="539" y="471" on="1"/>
        <pt x="539" y="1458" on="1"/>
        <pt x="299" y="471" on="1"/>
      </contour>
    </TTGlyph>
    <TTGlyph name="Aacute" xMin="63" yMin="0" xMax="756" yMax="1888">
      <component glyphName="A" x="0" y="0" flags="0x214"/>
      <component glyphName="acute" x="113" y="594" flags="0x14"/>
    </TTGlyph>
    <TTGlyph name="Acircumflex" xMin="63" yMin="0" xMax="756" yMax="1873">
      <component glyphName="A" x="0" y="0" flags="0x214"/>
      <component glyphName="circumflex" x="0" y="579" flags="0x14"/>
    </TTGlyph>
    <TTGlyph name="Adieresis" xMin="63" yMin="0" xMax="756" yMax="1804">
      <component glyphName="A" x="0" y="0" flags="0x214"/>
      <component glyphName="dieresis" x="0" y="594" flags="0x14"/>
    </TTGlyph>
    <TTGlyph name="Agrave" xMin="63" yMin="0" xMax="756" yMax="1888">
      <component glyphName="A" x="0" y="0" flags="0x214"/>
      <component glyphName="grave" x="-113" y="594" flags="0x14"/>
    </TTGlyph>
    <TTGlyph name="Aring" xMin="63" yMin="0" xMax="756" yMax="1869">
      <component glyphName="A" x="0" y="0" flags="0x214"/>
      <component glyphName="ring" x="0" y="437" flags="0x4"/>
    </TTGlyph>
    <TTGlyph name="Atilde" xMin="63" yMin="0" xMax="756" yMax="1847">
      <component glyphName="A" x="0" y="0" flags="0x214"/>
      <component glyphName="tilde" x="0" y="592" flags="0x14"/>
    </TTGlyph>
    <TTGlyph name="B" xMin="125" yMin="0" xMax="752" yMax="1565">
      <contour>
        <pt x="752" y="111" on="1"/>
        <pt x="752" y="62" on="0"/>
        <pt x="690" y="0" on="0"/>
        <pt x="641" y="0" on="1"/>
        <pt x="125" y="0" on="1"/>
        <pt x="125" y="1565" on="1"/>
        <pt x="637" y="1565" on="1"/>
        <pt x="686" y="1565" on="0"/>
        <pt x="748" y="1503" on="0"/>
        <pt x="748" y="1454" on="1"/>
        <pt x="748" y="989" on="1"/>
        <pt x="748" y="927" on="0"/>
        <pt x="692" y="885" on="1"/>
        <pt x="637" y="852" on="0"/>
        <pt x="582" y="819" on="1"/>
        <pt x="700" y="743" on="1"/>
        <pt x="752" y="711" on="0"/>
        <pt x="752" y="643" on="1"/>
      </contour>
      <contour>
        <pt x="608" y="971" on="1"/>
        <pt x="608" y="1442" on="1"/>
        <pt x="264" y="1442" on="1"/>
        <pt x="264" y="877" on="1"/>
        <pt x="469" y="877" on="1"/>
      </contour>
      <contour>
        <pt x="612" y="123" on="1"/>
        <pt x="612" y="664" on="1"/>
        <pt x="471" y="756" on="1"/>
        <pt x="264" y="756" on="1"/>
        <pt x="264" y="123" on="1"/>
      </contour>
    </TTGlyph>
    <TTGlyph name="C" xMin="125" yMin="0" xMax="752" yMax="1565">
      <contour>
        <pt x="752" y="111" on="1"/>
        <pt x="752" y="62" on="0"/>
        <pt x="688" y="0" on="0"/>
        <pt x="639" y="0" on="1"/>
        <pt x="236" y="0" on="1"/>
        <pt x="187" y="0" on="0"/>
        <pt x="125" y="62" on="0"/>
        <pt x="125" y="111" on="1"/>
        <pt x="125" y="1454" on="1"/>
        <pt x="125" y="1503" on="0"/>
        <pt x="187" y="1565" on="0"/>
        <pt x="236" y="1565" on="1"/>
        <pt x="639" y="1565" on="1"/>
        <pt x="688" y="1565" on="0"/>
        <pt x="752" y="1503" on="0"/>
        <pt x="752" y="1454" on="1"/>
        <pt x="752" y="1090" on="1"/>
        <pt x="612" y="1090" on="1"/>
        <pt x="612" y="1442" on="1"/>
        <pt x="264" y="1442" on="1"/>
        <pt x="264" y="123" on="1"/>
        <pt x="612" y="123" on="1"/>
        <pt x="612" y="508" on="1"/>
        <pt x="752" y="508" on="1"/>
      </contour>
    </TTGlyph>
    <TTGlyph name="Ccedilla" xMin="125" yMin="-387" xMax="752" yMax="1565">
      <component glyphName="C" x="0" y="0" flags="0x214"/>
      <component glyphName="cedilla" x="30" y="-18" flags="0x14"/>
    </TTGlyph>
    <TTGlyph name="D" xMin="125" yMin="0" xMax="770" yMax="1565">
      <contour>
        <pt x="770" y="283" on="1"/>
        <pt x="770" y="159" on="0"/>
        <pt x="607" y="0" on="0"/>
        <pt x="483" y="0" on="1"/>
        <pt x="125" y="0" on="1"/>
        <pt x="125" y="1565" on="1"/>
        <pt x="483" y="1565" on="1"/>
        <pt x="608" y="1565" on="0"/>
        <pt x="770" y="1406" on="0"/>
        <pt x="770" y="1282" on="1"/>
      </contour>
      <contour>
        <pt x="631" y="297" on="1"/>
        <pt x="631" y="1270" on="1"/>
        <pt x="631" y="1347" on="0"/>
        <pt x="534" y="1442" on="0"/>
        <pt x="457" y="1442" on="1"/>
        <pt x="264" y="1442" on="1"/>
        <pt x="264" y="123" on="1"/>
        <pt x="449" y="123" on="1"/>
        <pt x="530" y="123" on="0"/>
        <pt x="631" y="216" on="0"/>
      </contour>
    </TTGlyph>
    <TTGlyph name="Delta" xMin="45" yMin="0" xMax="776" yMax="1569">
      <contour>
        <pt x="775" y="0" on="1"/>
        <pt x="45" y="0" on="1"/>
        <pt x="45" y="122" on="1"/>
        <pt x="342" y="1569" on="1"/>
        <pt x="479" y="1569" on="1"/>
        <pt x="489" y="1511" on="0"/>
        <pt x="635" y="806" on="1"/>
        <pt x="776" y="120" on="0"/>
        <pt x="775" y="118" on="1"/>
      </contour>
      <contour>
        <pt x="637" y="132" on="1"/>
        <pt x="408" y="1319" on="1"/>
        <pt x="180" y="132" on="1"/>
      </contour>
    </TTGlyph>
    <TTGlyph name="E" xMin="125" yMin="0" xMax="639" yMax="1565">
      <contour>
        <pt x="639" y="0" on="1"/>
        <pt x="125" y="0" on="1"/>
        <pt x="125" y="1565" on="1"/>
        <pt x="633" y="1565" on="1"/>
        <pt x="633" y="1442" on="1"/>
        <pt x="264" y="1442" on="1"/>
        <pt x="264" y="858" on="1"/>
        <pt x="600" y="858" on="1"/>
        <pt x="600" y="733" on="1"/>
        <pt x="264" y="733" on="1"/>
        <pt x="264" y="123" on="1"/>
        <pt x="639" y="123" on="1"/>
      </contour>
    </TTGlyph>
    <TTGlyph name="Eacute" xMin="125" yMin="0" xMax="639" yMax="1888">
      <component glyphName="E" x="0" y="0" flags="0x214"/>
      <component glyphName="acute" x="53" y="594" flags="0x14"/>
    </TTGlyph>
    <TTGlyph name="Ecircumflex" xMin="125" yMin="0" xMax="639" yMax="1888">
      <component glyphName="E" x="0" y="0" flags="0x214"/>
      <component glyphName="circumflex" x="-31" y="594" flags="0x14"/>
    </TTGlyph>
    <TTGlyph name="Edieresis" xMin="125" yMin="0" xMax="639" yMax="1804">
      <component glyphName="E" x="0" y="0" flags="0x214"/>
      <component glyphName="dieresis" x="-30" y="594" flags="0x14"/>
    </TTGlyph>
    <TTGlyph name="Egrave" xMin="125" yMin="0" xMax="639" yMax="1888">
      <component glyphName="E" x="0" y="0" flags="0x214"/>
      <component glyphName="grave" x="-125" y="594" flags="0x14"/>
    </TTGlyph>
    <TTGlyph name="Eth" xMin="35" yMin="0" xMax="770" yMax="1565">
      <component glyphName="D" x="0" y="0" flags="0x214"/>
      <component glyphName=".notdef#3" x="-18" y="0" flags="0x4"/>
    </TTGlyph>
    <TTGlyph name="Euro" xMin="53" yMin="0" xMax="732" yMax="1565">
      <contour>
        <pt x="732" y="111" on="1"/>
        <pt x="732" y="62" on="0"/>
        <pt x="668" y="0" on="0"/>
        <pt x="619" y="0" on="1"/>
        <pt x="256" y="0" on="1"/>
        <pt x="207" y="0" on="0"/>
        <pt x="145" y="62" on="0"/>
        <pt x="145" y="111" on="1"/>
        <pt x="145" y="591" on="1"/>
        <pt x="53" y="591" on="1"/>
        <pt x="53" y="710" on="1"/>
        <pt x="145" y="710" on="1"/>
        <pt x="145" y="876" on="1"/>
        <pt x="53" y="876" on="1"/>
        <pt x="53" y="997" on="1"/>
        <pt x="145" y="997" on="1"/>
        <pt x="145" y="1454" on="1"/>
        <pt x="145" y="1503" on="0"/>
        <pt x="207" y="1565" on="0"/>
        <pt x="256" y="1565" on="1"/>
        <pt x="619" y="1565" on="1"/>
        <pt x="668" y="1565" on="0"/>
        <pt x="732" y="1503" on="0"/>
        <pt x="732" y="1454" on="1"/>
        <pt x="732" y="1190" on="1"/>
        <pt x="592" y="1190" on="1"/>
        <pt x="592" y="1442" on="1"/>
        <pt x="284" y="1442" on="1"/>
        <pt x="284" y="997" on="1"/>
        <pt x="681" y="997" on="1"/>
        <pt x="681" y="876" on="1"/>
        <pt x="284" y="876" on="1"/>
        <pt x="284" y="710" on="1"/>
        <pt x="681" y="710" on="1"/>
        <pt x="681" y="591" on="1"/>
        <pt x="284" y="591" on="1"/>
        <pt x="284" y="123" on="1"/>
        <pt x="592" y="123" on="1"/>
        <pt x="592" y="378" on="1"/>
        <pt x="732" y="378" on="1"/>
      </contour>
    </TTGlyph>
    <TTGlyph name="F" xMin="125" yMin="0" xMax="629" yMax="1565">
      <contour>
        <pt x="629" y="1442" on="1"/>
        <pt x="264" y="1442" on="1"/>
        <pt x="264" y="848" on="1"/>
        <pt x="600" y="848" on="1"/>
        <pt x="600" y="723" on="1"/>
        <pt x="264" y="723" on="1"/>
        <pt x="264" y="0" on="1"/>
        <pt x="125" y="0" on="1"/>
        <pt x="125" y="1565" on="1"/>
        <pt x="629" y="1565" on="1"/>
      </contour>
    </TTGlyph>
    <TTGlyph name="G" xMin="125" yMin="0" xMax="758" yMax="1565">
      <contour>
        <pt x="758" y="111" on="1"/>
        <pt x="758" y="62" on="0"/>
        <pt x="696" y="0" on="0"/>
        <pt x="647" y="0" on="1"/>
        <pt x="236" y="0" on="1"/>
        <pt x="187" y="0" on="0"/>
        <pt x="125" y="62" on="0"/>
        <pt x="125" y="111" on="1"/>
        <pt x="125" y="1454" on="1"/>
        <pt x="125" y="1503" on="0"/>
        <pt x="187" y="1565" on="0"/>
        <pt x="236" y="1565" on="1"/>
        <pt x="647" y="1565" on="1"/>
        <pt x="696" y="1565" on="0"/>
        <pt x="758" y="1503" on="0"/>
        <pt x="758" y="1454" on="1"/>
        <pt x="758" y="1090" on="1"/>
        <pt x="618" y="1090" on="1"/>
        <pt x="618" y="1442" on="1"/>
        <pt x="264" y="1442" on="1"/>
        <pt x="264" y="123" on="1"/>
        <pt x="618" y="123" on="1"/>
        <pt x="618" y="664" on="1"/>
        <pt x="451" y="664" on="1"/>
        <pt x="451" y="784" on="1"/>
        <pt x="758" y="784" on="1"/>
      </contour>
    </TTGlyph>
    <TTGlyph name="H" xMin="125" yMin="0" xMax="780" yMax="1565">
      <contour>
        <pt x="780" y="0" on="1"/>
        <pt x="641" y="0" on="1"/>
        <pt x="641" y="752" on="1"/>
        <pt x="264" y="752" on="1"/>
        <pt x="264" y="0" on="1"/>
        <pt x="125" y="0" on="1"/>
        <pt x="125" y="1565" on="1"/>
        <pt x="264" y="1565" on="1"/>
        <pt x="264" y="877" on="1"/>
        <pt x="641" y="877" on="1"/>
        <pt x="641" y="1565" on="1"/>
        <pt x="780" y="1565" on="1"/>
      </contour>
    </TTGlyph>
    <TTGlyph name="I" xMin="133" yMin="0" xMax="272" yMax="1565">
      <contour>
        <pt x="272" y="0" on="1"/>
        <pt x="133" y="0" on="1"/>
        <pt x="133" y="1565" on="1"/>
        <pt x="272" y="1565" on="1"/>
      </contour>
    </TTGlyph>
    <TTGlyph name="Iacute" xMin="94" yMin="0" xMax="432" yMax="1888">
      <component glyphName="I" x="0" y="0" flags="0x214"/>
      <component glyphName="acute" x="-94" y="594" flags="0x14"/>
    </TTGlyph>
    <TTGlyph name="Icircumflex" xMin="-32" yMin="0" xMax="439" yMax="1889">
      <component glyphName="I" x="0" y="0" flags="0x214"/>
      <component glyphName="circumflex" x="-206" y="595" flags="0x14"/>
    </TTGlyph>
    <TTGlyph name="Idieresis" xMin="1" yMin="0" xMax="406" yMax="1804">
      <component glyphName="I" x="0" y="0" flags="0x214"/>
      <component glyphName="dieresis" x="-206" y="594" flags="0x14"/>
    </TTGlyph>
    <TTGlyph name="Igrave" xMin="-30" yMin="0" xMax="308" yMax="1888">
      <component glyphName="I" x="0" y="0" flags="0x214"/>
      <component glyphName="grave" x="-319" y="594" flags="0x14"/>
    </TTGlyph>
    <TTGlyph name="J" xMin="90" yMin="0" xMax="676" yMax="1565">
      <contour>
        <pt x="676" y="111" on="1"/>
        <pt x="676" y="62" on="0"/>
        <pt x="614" y="0" on="0"/>
        <pt x="565" y="0" on="1"/>
        <pt x="201" y="0" on="1"/>
        <pt x="152" y="0" on="0"/>
        <pt x="90" y="62" on="0"/>
        <pt x="90" y="111" on="1"/>
        <pt x="90" y="508" on="1"/>
        <pt x="229" y="508" on="1"/>
        <pt x="229" y="123" on="1"/>
        <pt x="537" y="123" on="1"/>
        <pt x="537" y="1565" on="1"/>
        <pt x="676" y="1565" on="1"/>
      </contour>
    </TTGlyph>
    <TTGlyph name="K" xMin="125" yMin="0" xMax="778" yMax="1565">
      <contour>
        <pt x="778" y="0" on="1"/>
        <pt x="625" y="0" on="1"/>
        <pt x="264" y="752" on="1"/>
        <pt x="264" y="0" on="1"/>
        <pt x="125" y="0" on="1"/>
        <pt x="125" y="1565" on="1"/>
        <pt x="264" y="1565" on="1"/>
        <pt x="264" y="862" on="1"/>
        <pt x="592" y="1565" on="1"/>
        <pt x="743" y="1565" on="1"/>
        <pt x="743" y="1556" on="1"/>
        <pt x="389" y="811" on="1"/>
      </contour>
    </TTGlyph>
    <TTGlyph name="L" xMin="125" yMin="0" xMax="625" yMax="1565">
      <contour>
        <pt x="625" y="0" on="1"/>
        <pt x="125" y="0" on="1"/>
        <pt x="125" y="1565" on="1"/>
        <pt x="264" y="1565" on="1"/>
        <pt x="264" y="123" on="1"/>
        <pt x="625" y="123" on="1"/>
      </contour>
    </TTGlyph>
    <TTGlyph name="Lslash" xMin="37" yMin="0" xMax="625" yMax="1565">
      <component glyphName="L" x="0" y="0" flags="0x214"/>
      <component glyphName=".notdef#4" x="0" y="0" flags="0x14"/>
    </TTGlyph>
    <TTGlyph name="M" xMin="125" yMin="0" xMax="899" yMax="1565">
      <contour>
        <pt x="899" y="0" on="1"/>
        <pt x="768" y="0" on="1"/>
        <pt x="768" y="991" on="1"/>
        <pt x="768" y="1012" on="0"/>
        <pt x="782" y="1114" on="1"/>
        <pt x="526" y="147" on="1"/>
        <pt x="498" y="147" on="1"/>
        <pt x="242" y="1114" on="1"/>
        <pt x="256" y="1011" on="0"/>
        <pt x="256" y="991" on="1"/>
        <pt x="256" y="0" on="1"/>
        <pt x="125" y="0" on="1"/>
        <pt x="125" y="1565" on="1"/>
        <pt x="254" y="1565" on="1"/>
        <pt x="508" y="547" on="1"/>
        <pt x="510" y="539" on="0"/>
        <pt x="512" y="502" on="1"/>
        <pt x="512" y="517" on="0"/>
        <pt x="516" y="547" on="1"/>
        <pt x="770" y="1565" on="1"/>
        <pt x="899" y="1565" on="1"/>
      </contour>
    </TTGlyph>
    <TTGlyph name="N" xMin="125" yMin="0" xMax="770" yMax="1565">
      <contour>
        <pt x="770" y="0" on="1"/>
        <pt x="674" y="0" on="1"/>
        <pt x="256" y="1151" on="1"/>
        <pt x="256" y="0" on="1"/>
        <pt x="125" y="0" on="1"/>
        <pt x="125" y="1565" on="1"/>
        <pt x="229" y="1565" on="1"/>
        <pt x="639" y="434" on="1"/>
        <pt x="639" y="1565" on="1"/>
        <pt x="770" y="1565" on="1"/>
      </contour>
    </TTGlyph>
    <TTGlyph name="Ntilde" xMin="125" yMin="0" xMax="770" yMax="1849">
      <component glyphName="N" x="0" y="0" flags="0x214"/>
      <component glyphName="tilde" x="32" y="594" flags="0x14"/>
    </TTGlyph>
    <TTGlyph name="O" xMin="125" yMin="0" xMax="786" yMax="1565">
      <contour>
        <pt x="786" y="111" on="1"/>
        <pt x="786" y="62" on="0"/>
        <pt x="723" y="0" on="0"/>
        <pt x="674" y="0" on="1"/>
        <pt x="236" y="0" on="1"/>
        <pt x="187" y="0" on="0"/>
        <pt x="125" y="62" on="0"/>
        <pt x="125" y="111" on="1"/>
        <pt x="125" y="1454" on="1"/>
        <pt x="125" y="1503" on="0"/>
        <pt x="187" y="1565" on="0"/>
        <pt x="236" y="1565" on="1"/>
        <pt x="674" y="1565" on="1"/>
        <pt x="723" y="1565" on="0"/>
        <pt x="786" y="1503" on="0"/>
        <pt x="786" y="1454" on="1"/>
      </contour>
      <contour>
        <pt x="647" y="123" on="1"/>
        <pt x="647" y="1442" on="1"/>
        <pt x="264" y="1442" on="1"/>
        <pt x="264" y="123" on="1"/>
      </contour>
    </TTGlyph>
    <TTGlyph name="OE" xMin="125" yMin="0" xMax="1116" yMax="1565">
      <contour>
        <pt x="1116" y="0" on="1"/>
        <pt x="236" y="0" on="1"/>
        <pt x="187" y="0" on="0"/>
        <pt x="125" y="62" on="0"/>
        <pt x="125" y="111" on="1"/>
        <pt x="125" y="1454" on="1"/>
        <pt x="125" y="1503" on="0"/>
        <pt x="187" y="1565" on="0"/>
        <pt x="236" y="1565" on="1"/>
        <pt x="1110" y="1565" on="1"/>
        <pt x="1110" y="1442" on="1"/>
        <pt x="745" y="1442" on="1"/>
        <pt x="745" y="858" on="1"/>
        <pt x="1079" y="858" on="1"/>
        <pt x="1079" y="733" on="1"/>
        <pt x="745" y="733" on="1"/>
        <pt x="745" y="123" on="1"/>
        <pt x="1116" y="123" on="1"/>
      </contour>
      <contour>
        <pt x="606" y="123" on="1"/>
        <pt x="606" y="1442" on="1"/>
        <pt x="264" y="1442" on="1"/>
        <pt x="264" y="123" on="1"/>
      </contour>
    </TTGlyph>
    <TTGlyph name="Oacute" xMin="125" yMin="0" xMax="786" yMax="1888">
      <component glyphName="O" x="0" y="0" flags="0x214"/>
      <component glyphName="acute" x="152" y="594" flags="0x14"/>
    </TTGlyph>
    <TTGlyph name="Ocircumflex" xMin="125" yMin="0" xMax="786" yMax="1888">
      <component glyphName="O" x="0" y="0" flags="0x214"/>
      <component glyphName="circumflex" x="46" y="594" flags="0x14"/>
    </TTGlyph>
    <TTGlyph name="Odieresis" xMin="125" yMin="0" xMax="786" yMax="1804">
      <component glyphName="O" x="0" y="0" flags="0x214"/>
      <component glyphName="dieresis" x="46" y="594" flags="0x14"/>
    </TTGlyph>
    <TTGlyph name="Ograve" xMin="125" yMin="0" xMax="786" yMax="1888">
      <component glyphName="O" x="0" y="0" flags="0x214"/>
      <component glyphName="grave" x="-61" y="594" flags="0x14"/>
    </TTGlyph>
    <TTGlyph name="Omega" xMin="59" yMin="-1" xMax="1000" yMax="1565">
      <contour>
        <pt x="1000" y="-1" on="1"/>
        <pt x="612" y="-1" on="1"/>
        <pt x="612" y="489" on="1"/>
        <pt x="796" y="489" on="1"/>
        <pt x="796" y="1442" on="1"/>
        <pt x="265" y="1441" on="1"/>
        <pt x="264" y="489" on="1"/>
        <pt x="448" y="489" on="1"/>
        <pt x="448" y="-1" on="1"/>
        <pt x="59" y="-1" on="1"/>
        <pt x="59" y="129" on="1"/>
        <pt x="331" y="129" on="1"/>
        <pt x="331" y="366" on="1"/>
        <pt x="236" y="366" on="1"/>
        <pt x="187" y="366" on="0"/>
        <pt x="125" y="428" on="0"/>
        <pt x="125" y="477" on="1"/>
        <pt x="125" y="1454" on="1"/>
        <pt x="125" y="1503" on="0"/>
        <pt x="187" y="1565" on="0"/>
        <pt x="236" y="1565" on="1"/>
        <pt x="821" y="1565" on="1"/>
        <pt x="870" y="1565" on="0"/>
        <pt x="935" y="1503" on="0"/>
        <pt x="935" y="1454" on="1"/>
        <pt x="935" y="477" on="1"/>
        <pt x="935" y="428" on="0"/>
        <pt x="873" y="366" on="0"/>
        <pt x="824" y="366" on="1"/>
        <pt x="729" y="366" on="1"/>
        <pt x="729" y="129" on="1"/>
        <pt x="1000" y="129" on="1"/>
      </contour>
    </TTGlyph>
    <TTGlyph name="Oslash" xMin="18" yMin="0" xMax="893" yMax="1565">
      <component glyphName="O" x="0" y="0" flags="0x214"/>
      <component glyphName=".notdef#6" x="0" y="0" flags="0x14"/>
    </TTGlyph>
    <TTGlyph name="Otilde" xMin="125" yMin="0" xMax="786" yMax="1849">
      <component glyphName="O" x="0" y="0" flags="0x214"/>
      <component glyphName="tilde" x="46" y="594" flags="0x14"/>
    </TTGlyph>
    <TTGlyph name="P" xMin="125" yMin="0" xMax="745" yMax="1565">
      <contour>
        <pt x="745" y="733" on="1"/>
        <pt x="745" y="684" on="0"/>
        <pt x="682" y="621" on="0"/>
        <pt x="633" y="621" on="1"/>
        <pt x="264" y="621" on="1"/>
        <pt x="264" y="0" on="1"/>
        <pt x="125" y="0" on="1"/>
        <pt x="125" y="1565" on="1"/>
        <pt x="633" y="1565" on="1"/>
        <pt x="682" y="1565" on="0"/>
        <pt x="745" y="1503" on="0"/>
        <pt x="745" y="1454" on="1"/>
      </contour>
      <contour>
        <pt x="606" y="745" on="1"/>
        <pt x="606" y="1442" on="1"/>
        <pt x="264" y="1442" on="1"/>
        <pt x="264" y="745" on="1"/>
      </contour>
    </TTGlyph>
    <TTGlyph name="Q" xMin="125" yMin="-2" xMax="893" yMax="1565">
      <contour>
        <pt x="893" y="-2" on="1"/>
        <pt x="881" y="-2" on="1"/>
        <pt x="778" y="82" on="1"/>
        <pt x="760" y="0" on="0"/>
        <pt x="676" y="0" on="1"/>
        <pt x="236" y="0" on="1"/>
        <pt x="187" y="0" on="0"/>
        <pt x="125" y="62" on="0"/>
        <pt x="125" y="111" on="1"/>
        <pt x="125" y="1454" on="1"/>
        <pt x="125" y="1503" on="0"/>
        <pt x="187" y="1565" on="0"/>
        <pt x="236" y="1565" on="1"/>
        <pt x="676" y="1565" on="1"/>
        <pt x="725" y="1565" on="0"/>
        <pt x="786" y="1503" on="0"/>
        <pt x="786" y="1454" on="1"/>
        <pt x="786" y="221" on="1"/>
        <pt x="893" y="135" on="1"/>
      </contour>
      <contour>
        <pt x="647" y="123" on="1"/>
        <pt x="647" y="184" on="1"/>
        <pt x="481" y="322" on="1"/>
        <pt x="481" y="459" on="1"/>
        <pt x="494" y="459" on="1"/>
        <pt x="647" y="332" on="1"/>
        <pt x="647" y="1442" on="1"/>
        <pt x="264" y="1442" on="1"/>
        <pt x="264" y="123" on="1"/>
      </contour>
    </TTGlyph>
    <TTGlyph name="R" xMin="125" yMin="0" xMax="791" yMax="1565">
      <contour>
        <pt x="791" y="0" on="1"/>
        <pt x="645" y="0" on="1"/>
        <pt x="354" y="838" on="1"/>
        <pt x="373" y="866" on="1"/>
        <pt x="621" y="866" on="1"/>
        <pt x="621" y="1442" on="1"/>
        <pt x="264" y="1442" on="1"/>
        <pt x="264" y="0" on="1"/>
        <pt x="125" y="0" on="1"/>
        <pt x="125" y="1565" on="1"/>
        <pt x="649" y="1565" on="1"/>
        <pt x="698" y="1565" on="0"/>
        <pt x="760" y="1503" on="0"/>
        <pt x="760" y="1454" on="1"/>
        <pt x="760" y="860" on="1"/>
        <pt x="760" y="747" on="0"/>
        <pt x="608" y="747" on="1"/>
        <pt x="593" y="747" on="0"/>
        <pt x="535" y="750" on="0"/>
        <pt x="522" y="750" on="1"/>
        <pt x="657" y="376" on="0"/>
      </contour>
    </TTGlyph>
    <TTGlyph name="S" xMin="119" yMin="0" xMax="735" yMax="1565">
      <contour>
        <pt x="735" y="111" on="1"/>
        <pt x="735" y="62" on="0"/>
        <pt x="674" y="0" on="0"/>
        <pt x="625" y="0" on="1"/>
        <pt x="231" y="0" on="1"/>
        <pt x="182" y="0" on="0"/>
        <pt x="119" y="62" on="0"/>
        <pt x="119" y="111" on="1"/>
        <pt x="119" y="508" on="1"/>
        <pt x="258" y="508" on="1"/>
        <pt x="258" y="123" on="1"/>
        <pt x="596" y="123" on="1"/>
        <pt x="596" y="496" on="1"/>
        <pt x="164" y="1018" on="1"/>
        <pt x="119" y="1072" on="0"/>
        <pt x="119" y="1137" on="1"/>
        <pt x="119" y="1454" on="1"/>
        <pt x="119" y="1503" on="0"/>
        <pt x="182" y="1565" on="0"/>
        <pt x="231" y="1565" on="1"/>
        <pt x="625" y="1565" on="1"/>
        <pt x="674" y="1565" on="0"/>
        <pt x="735" y="1503" on="0"/>
        <pt x="735" y="1454" on="1"/>
        <pt x="735" y="1090" on="1"/>
        <pt x="596" y="1090" on="1"/>
        <pt x="596" y="1442" on="1"/>
        <pt x="258" y="1442" on="1"/>
        <pt x="258" y="1112" on="1"/>
        <pt x="692" y="590" on="1"/>
        <pt x="735" y="538" on="0"/>
        <pt x="735" y="473" on="1"/>
      </contour>
    </TTGlyph>
    <TTGlyph name="Scaron" xMin="119" yMin="0" xMax="735" yMax="1888">
      <component glyphName="S" x="0" y="0" flags="0x214"/>
      <component glyphName="caron" x="19" y="594" flags="0x14"/>
    </TTGlyph>
    <TTGlyph name="T" xMin="39" yMin="0" xMax="664" yMax="1565">
      <contour>
        <pt x="664" y="1442" on="1"/>
        <pt x="422" y="1442" on="1"/>
        <pt x="422" y="0" on="1"/>
        <pt x="283" y="0" on="1"/>
        <pt x="283" y="1442" on="1"/>
        <pt x="39" y="1442" on="1"/>
        <pt x="39" y="1565" on="1"/>
        <pt x="664" y="1565" on="1"/>
      </contour>
    </TTGlyph>
    <TTGlyph name="Thorn" xMin="125" yMin="0" xMax="745" yMax="1565">
      <contour>
        <pt x="745" y="432" on="1"/>
        <pt x="745" y="383" on="0"/>
        <pt x="682" y="322" on="0"/>
        <pt x="633" y="322" on="1"/>
        <pt x="264" y="322" on="1"/>
        <pt x="264" y="0" on="1"/>
        <pt x="125" y="0" on="1"/>
        <pt x="125" y="1565" on="1"/>
        <pt x="264" y="1565" on="1"/>
        <pt x="264" y="1264" on="1"/>
        <pt x="633" y="1264" on="1"/>
        <pt x="682" y="1264" on="0"/>
        <pt x="745" y="1202" on="0"/>
        <pt x="745" y="1153" on="1"/>
      </contour>
      <contour>
        <pt x="606" y="444" on="1"/>
        <pt x="606" y="1141" on="1"/>
        <pt x="264" y="1141" on="1"/>
        <pt x="264" y="444" on="1"/>
      </contour>
    </TTGlyph>
    <TTGlyph name="U" xMin="125" yMin="0" xMax="774" yMax="1565">
      <contour>
        <pt x="774" y="111" on="1"/>
        <pt x="774" y="62" on="0"/>
        <pt x="711" y="0" on="0"/>
        <pt x="662" y="0" on="1"/>
        <pt x="236" y="0" on="1"/>
        <pt x="187" y="0" on="0"/>
        <pt x="125" y="62" on="0"/>
        <pt x="125" y="111" on="1"/>
        <pt x="125" y="1565" on="1"/>
        <pt x="264" y="1565" on="1"/>
        <pt x="264" y="123" on="1"/>
        <pt x="635" y="123" on="1"/>
        <pt x="635" y="1565" on="1"/>
        <pt x="774" y="1565" on="1"/>
      </contour>
    </TTGlyph>
    <TTGlyph name="Uacute" xMin="125" yMin="0" xMax="774" yMax="1887">
      <component glyphName="U" x="0" y="0" flags="0x214"/>
      <component glyphName="acute" x="140" y="593" flags="0x14"/>
    </TTGlyph>
    <TTGlyph name="Ucircumflex" xMin="125" yMin="0" xMax="774" yMax="1888">
      <component glyphName="U" x="0" y="0" flags="0x214"/>
      <component glyphName="circumflex" x="40" y="594" flags="0x14"/>
    </TTGlyph>
    <TTGlyph name="Udieresis" xMin="125" yMin="0" xMax="774" yMax="1804">
      <component glyphName="U" x="0" y="0" flags="0x214"/>
      <component glyphName="dieresis" x="40" y="594" flags="0x14"/>
    </TTGlyph>
    <TTGlyph name="Ugrave" xMin="125" yMin="0" xMax="774" yMax="1887">
      <component glyphName="U" x="0" y="0" flags="0x214"/>
      <component glyphName="grave" x="-61" y="593" flags="0x14"/>
    </TTGlyph>
    <TTGlyph name="V" xMin="63" yMin="-4" xMax="736" yMax="1565">
      <contour>
        <pt x="736" y="1565" on="1"/>
        <pt x="465" y="-4" on="1"/>
        <pt x="334" y="-4" on="1"/>
        <pt x="63" y="1565" on="1"/>
        <pt x="201" y="1565" on="1"/>
        <pt x="395" y="319" on="1"/>
        <pt x="395" y="319" on="0"/>
        <pt x="401" y="217" on="1"/>
        <pt x="402" y="252" on="0"/>
        <pt x="408" y="319" on="1"/>
        <pt x="602" y="1565" on="1"/>
      </contour>
    </TTGlyph>
    <TTGlyph name="W" xMin="61" yMin="-4" xMax="1061" yMax="1565">
      <contour>
        <pt x="1061" y="1565" on="1"/>
        <pt x="848" y="-4" on="1"/>
        <pt x="735" y="-4" on="1"/>
        <pt x="565" y="1176" on="1"/>
        <pt x="564" y="1207" on="0"/>
        <pt x="561" y="1268" on="1"/>
        <pt x="561" y="1236" on="0"/>
        <pt x="557" y="1176" on="1"/>
        <pt x="387" y="-4" on="1"/>
        <pt x="274" y="-4" on="1"/>
        <pt x="61" y="1565" on="1"/>
        <pt x="199" y="1565" on="1"/>
        <pt x="332" y="436" on="1"/>
        <pt x="333" y="398" on="0"/>
        <pt x="336" y="324" on="1"/>
        <pt x="335" y="362" on="0"/>
        <pt x="340" y="436" on="1"/>
        <pt x="502" y="1565" on="1"/>
        <pt x="621" y="1565" on="1"/>
        <pt x="782" y="436" on="1"/>
        <pt x="784" y="398" on="0"/>
        <pt x="786" y="324" on="1"/>
        <pt x="786" y="362" on="0"/>
        <pt x="791" y="436" on="1"/>
        <pt x="924" y="1565" on="1"/>
      </contour>
    </TTGlyph>
    <TTGlyph name="X" xMin="43" yMin="0" xMax="745" yMax="1565">
      <contour>
        <pt x="743" y="0" on="1"/>
        <pt x="600" y="0" on="1"/>
        <pt x="391" y="643" on="1"/>
        <pt x="182" y="0" on="1"/>
        <pt x="43" y="0" on="1"/>
        <pt x="43" y="7" on="0"/>
        <pt x="43" y="8" on="1"/>
        <pt x="322" y="801" on="1"/>
        <pt x="58" y="1561" on="0"/>
        <pt x="59" y="1565" on="1"/>
        <pt x="205" y="1565" on="1"/>
        <pt x="393" y="971" on="1"/>
        <pt x="588" y="1565" on="1"/>
        <pt x="727" y="1565" on="1"/>
        <pt x="727" y="1558" on="0"/>
        <pt x="727" y="1556" on="1"/>
        <pt x="467" y="809" on="1"/>
        <pt x="745" y="4" on="0"/>
      </contour>
    </TTGlyph>
    <TTGlyph name="Y" xMin="45" yMin="0" xMax="754" yMax="1565">
      <contour>
        <pt x="754" y="1556" on="1"/>
        <pt x="564" y="923" on="1"/>
        <pt x="528" y="828" on="0"/>
        <pt x="469" y="606" on="1"/>
        <pt x="469" y="0" on="1"/>
        <pt x="330" y="0" on="1"/>
        <pt x="330" y="606" on="1"/>
        <pt x="316" y="682" on="0"/>
        <pt x="287" y="766" on="1"/>
        <pt x="239" y="910" on="0"/>
        <pt x="235" y="923" on="1"/>
        <pt x="45" y="1556" on="1"/>
        <pt x="45" y="1557" on="0"/>
        <pt x="45" y="1565" on="1"/>
        <pt x="186" y="1565" on="1"/>
        <pt x="401" y="782" on="1"/>
        <pt x="614" y="1565" on="1"/>
        <pt x="754" y="1565" on="1"/>
        <pt x="754" y="1558" on="0"/>
      </contour>
    </TTGlyph>
    <TTGlyph name="Yacute" xMin="45" yMin="0" xMax="754" yMax="1873">
      <component glyphName="Y" x="0" y="0" flags="0x214"/>
      <component glyphName="acute" x="101" y="579" flags="0x14"/>
    </TTGlyph>
    <TTGlyph name="Ydieresis" xMin="45" yMin="0" xMax="754" yMax="1804">
      <component glyphName="Y" x="0" y="0" flags="0x214"/>
      <component glyphName="dieresis" x="-10" y="594" flags="0x14"/>
    </TTGlyph>
    <TTGlyph name="Z" xMin="49" yMin="0" xMax="649" yMax="1565">
      <contour>
        <pt x="649" y="0" on="1"/>
        <pt x="49" y="0" on="1"/>
        <pt x="49" y="74" on="0"/>
        <pt x="49" y="74" on="1"/>
        <pt x="489" y="1442" on="1"/>
        <pt x="92" y="1442" on="1"/>
        <pt x="92" y="1565" on="1"/>
        <pt x="649" y="1565" on="1"/>
        <pt x="649" y="1493" on="0"/>
        <pt x="649" y="1493" on="1"/>
        <pt x="209" y="123" on="1"/>
        <pt x="649" y="123" on="1"/>
      </contour>
    </TTGlyph>
    <TTGlyph name="Zcaron" xMin="49" yMin="0" xMax="649" yMax="1888">
      <component glyphName="Z" x="0" y="0" flags="0x214"/>
      <component glyphName="caron" x="-39" y="594" flags="0x14"/>
    </TTGlyph>
    <TTGlyph name="a" xMin="104" yMin="-6" xMax="659" yMax="973">
      <contour>
        <pt x="659" y="0" on="1"/>
        <pt x="528" y="0" on="1"/>
        <pt x="528" y="27" on="1"/>
        <pt x="449" y="16" on="0"/>
        <pt x="370" y="6" on="1"/>
        <pt x="272" y="-6" on="0"/>
        <pt x="213" y="-6" on="1"/>
        <pt x="104" y="-6" on="0"/>
        <pt x="104" y="102" on="1"/>
        <pt x="104" y="457" on="1"/>
        <pt x="104" y="569" on="0"/>
        <pt x="217" y="569" on="1"/>
        <pt x="530" y="569" on="1"/>
        <pt x="530" y="862" on="1"/>
        <pt x="244" y="862" on="1"/>
        <pt x="244" y="696" on="1"/>
        <pt x="115" y="696" on="1"/>
        <pt x="115" y="860" on="1"/>
        <pt x="115" y="973" on="0"/>
        <pt x="227" y="973" on="1"/>
        <pt x="547" y="973" on="1"/>
        <pt x="659" y="973" on="0"/>
        <pt x="659" y="860" on="1"/>
      </contour>
      <contour>
        <pt x="530" y="121" on="1"/>
        <pt x="530" y="465" on="1"/>
        <pt x="233" y="465" on="1"/>
        <pt x="233" y="115" on="1"/>
      </contour>
    </TTGlyph>
    <TTGlyph name="aacute" xMin="104" yMin="-6" xMax="659" yMax="1294">
      <component glyphName="a" x="0" y="0" flags="0x214"/>
      <component glyphName="acute" x="78" y="0" flags="0x14"/>
    </TTGlyph>
    <TTGlyph name="acircumflex" xMin="104" yMin="-6" xMax="659" yMax="1294">
      <component glyphName="a" x="0" y="0" flags="0x214"/>
      <component glyphName="circumflex" x="-22" y="0" flags="0x14"/>
    </TTGlyph>
    <TTGlyph name="acute" xMin="188" yMin="1059" xMax="526" yMax="1294">
      <contour>
        <pt x="526" y="1290" on="1"/>
        <pt x="281" y="1059" on="1"/>
        <pt x="188" y="1059" on="1"/>
        <pt x="188" y="1065" on="1"/>
        <pt x="338" y="1294" on="1"/>
        <pt x="526" y="1294" on="1"/>
      </contour>
    </TTGlyph>
    <TTGlyph name="adieresis" xMin="104" yMin="-6" xMax="659" yMax="1210">
      <component glyphName="a" x="0" y="0" flags="0x214"/>
      <component glyphName="dieresis" x="-22" y="0" flags="0x14"/>
    </TTGlyph>
    <TTGlyph name="ae" xMin="104" yMin="-6" xMax="1061" yMax="973">
      <contour>
        <pt x="1061" y="113" on="1"/>
        <pt x="1061" y="0" on="0"/>
        <pt x="948" y="0" on="1"/>
        <pt x="637" y="0" on="1"/>
        <pt x="583" y="0" on="0"/>
        <pt x="549" y="29" on="1"/>
        <pt x="238" y="-6" on="0"/>
        <pt x="213" y="-6" on="1"/>
        <pt x="104" y="-6" on="0"/>
        <pt x="104" y="102" on="1"/>
        <pt x="104" y="457" on="1"/>
        <pt x="104" y="569" on="0"/>
        <pt x="217" y="569" on="1"/>
        <pt x="524" y="569" on="1"/>
        <pt x="524" y="862" on="1"/>
        <pt x="244" y="862" on="1"/>
        <pt x="244" y="696" on="1"/>
        <pt x="115" y="696" on="1"/>
        <pt x="115" y="860" on="1"/>
        <pt x="115" y="973" on="0"/>
        <pt x="227" y="973" on="1"/>
        <pt x="948" y="973" on="1"/>
        <pt x="1061" y="973" on="0"/>
        <pt x="1061" y="860" on="1"/>
        <pt x="1061" y="508" on="1"/>
        <pt x="1014" y="463" on="1"/>
        <pt x="651" y="463" on="1"/>
        <pt x="651" y="111" on="1"/>
        <pt x="932" y="111" on="1"/>
        <pt x="932" y="289" on="1"/>
        <pt x="1061" y="289" on="1"/>
      </contour>
      <contour>
        <pt x="932" y="567" on="1"/>
        <pt x="932" y="862" on="1"/>
        <pt x="651" y="862" on="1"/>
        <pt x="651" y="567" on="1"/>
      </contour>
      <contour>
        <pt x="524" y="117" on="1"/>
        <pt x="524" y="465" on="1"/>
        <pt x="233" y="465" on="1"/>
        <pt x="233" y="109" on="1"/>
      </contour>
    </TTGlyph>
    <TTGlyph name="agrave" xMin="104" yMin="-6" xMax="659" yMax="1294">
      <component glyphName="a" x="0" y="0" flags="0x214"/>
      <component glyphName="grave" x="-120" y="0" flags="0x14"/>
    </TTGlyph>
    <TTGlyph name="ampersand" xMin="119" yMin="0" xMax="850" yMax="1565">
      <contour>
        <pt x="850" y="756" on="1"/>
        <pt x="735" y="756" on="1"/>
        <pt x="735" y="0" on="1"/>
        <pt x="229" y="0" on="1"/>
        <pt x="180" y="0" on="0"/>
        <pt x="119" y="62" on="0"/>
        <pt x="119" y="111" on="1"/>
        <pt x="119" y="643" on="1"/>
        <pt x="119" y="710" on="0"/>
        <pt x="170" y="743" on="1"/>
        <pt x="287" y="819" on="1"/>
        <pt x="232" y="852" on="0"/>
        <pt x="178" y="885" on="1"/>
        <pt x="123" y="928" on="0"/>
        <pt x="123" y="989" on="1"/>
        <pt x="123" y="1454" on="1"/>
        <pt x="123" y="1503" on="0"/>
        <pt x="185" y="1565" on="0"/>
        <pt x="233" y="1565" on="1"/>
        <pt x="629" y="1565" on="1"/>
        <pt x="678" y="1565" on="0"/>
        <pt x="741" y="1503" on="0"/>
        <pt x="741" y="1454" on="1"/>
        <pt x="741" y="1126" on="1"/>
        <pt x="602" y="1126" on="1"/>
        <pt x="602" y="1442" on="1"/>
        <pt x="260" y="1442" on="1"/>
        <pt x="260" y="971" on="1"/>
        <pt x="401" y="877" on="1"/>
        <pt x="850" y="877" on="1"/>
      </contour>
      <contour>
        <pt x="598" y="123" on="1"/>
        <pt x="598" y="756" on="1"/>
        <pt x="399" y="756" on="1"/>
        <pt x="256" y="664" on="1"/>
        <pt x="256" y="123" on="1"/>
      </contour>
    </TTGlyph>
    <TTGlyph name="apple" xMin="128" yMin="0" xMax="896" yMax="1633">
      <contour>
        <pt x="128" y="0" on="1"/>
        <pt x="128" y="1633" on="1"/>
        <pt x="896" y="1633" on="1"/>
        <pt x="896" y="0" on="1"/>
      </contour>
      <contour>
        <pt x="256" y="128" on="1"/>
        <pt x="768" y="128" on="1"/>
        <pt x="768" y="1505" on="1"/>
        <pt x="256" y="1505" on="1"/>
      </contour>
    </TTGlyph>
    <TTGlyph name="approxequal" xMin="170" yMin="323" xMax="864" yMax="1019">
      <contour>
        <pt x="864" y="804" on="1"/>
        <pt x="864" y="718" on="0"/>
        <pt x="782" y="718" on="1"/>
        <pt x="732" y="718" on="0"/>
        <pt x="678" y="738" on="1"/>
        <pt x="301" y="882" on="1"/>
        <pt x="301" y="724" on="1"/>
        <pt x="170" y="724" on="1"/>
        <pt x="170" y="933" on="1"/>
        <pt x="170" y="1019" on="0"/>
        <pt x="252" y="1019" on="1"/>
        <pt x="303" y="1019" on="0"/>
        <pt x="356" y="998" on="1"/>
        <pt x="733" y="855" on="1"/>
        <pt x="733" y="1013" on="1"/>
        <pt x="864" y="1013" on="1"/>
      </contour>
      <contour>
        <pt x="864" y="409" on="1"/>
        <pt x="864" y="323" on="0"/>
        <pt x="782" y="323" on="1"/>
        <pt x="732" y="323" on="0"/>
        <pt x="678" y="343" on="1"/>
        <pt x="301" y="487" on="1"/>
        <pt x="301" y="329" on="1"/>
        <pt x="170" y="329" on="1"/>
        <pt x="170" y="538" on="1"/>
        <pt x="170" y="624" on="0"/>
        <pt x="252" y="624" on="1"/>
        <pt x="303" y="624" on="0"/>
        <pt x="356" y="603" on="1"/>
        <pt x="733" y="460" on="1"/>
        <pt x="733" y="618" on="1"/>
        <pt x="864" y="618" on="1"/>
      </contour>
    </TTGlyph>
    <TTGlyph name="aring" xMin="104" yMin="-6" xMax="659" yMax="1432">
      <component glyphName="a" x="0" y="0" flags="0x214"/>
      <component glyphName="ring" x="-22" y="0" flags="0x14"/>
    </TTGlyph>
    <TTGlyph name="asciicircum" xMin="96" yMin="1012" xMax="723" yMax="1565">
      <contour>
        <pt x="723" y="1012" on="1"/>
        <pt x="610" y="1012" on="1"/>
        <pt x="408" y="1399" on="1"/>
        <pt x="205" y="1012" on="1"/>
        <pt x="96" y="1012" on="1"/>
        <pt x="96" y="1020" on="1"/>
        <pt x="358" y="1565" on="1"/>
        <pt x="463" y="1565" on="1"/>
      </contour>
    </TTGlyph>
    <TTGlyph name="asciitilde" xMin="170" yMin="459" xMax="864" yMax="760">
      <contour>
        <pt x="864" y="545" on="1"/>
        <pt x="864" y="459" on="0"/>
        <pt x="782" y="459" on="1"/>
        <pt x="732" y="459" on="0"/>
        <pt x="678" y="479" on="1"/>
        <pt x="301" y="623" on="1"/>
        <pt x="301" y="465" on="1"/>
        <pt x="170" y="465" on="1"/>
        <pt x="170" y="674" on="1"/>
        <pt x="170" y="760" on="0"/>
        <pt x="252" y="760" on="1"/>
        <pt x="303" y="760" on="0"/>
        <pt x="356" y="739" on="1"/>
        <pt x="733" y="596" on="1"/>
        <pt x="733" y="754" on="1"/>
        <pt x="864" y="754" on="1"/>
      </contour>
    </TTGlyph>
    <TTGlyph name="asterisk" xMin="98" yMin="928" xMax="715" yMax="1565">
      <contour>
        <pt x="715" y="1143" on="1"/>
        <pt x="649" y="1034" on="1"/>
        <pt x="442" y="1188" on="1"/>
        <pt x="467" y="928" on="1"/>
        <pt x="344" y="928" on="1"/>
        <pt x="371" y="1188" on="1"/>
        <pt x="162" y="1034" on="1"/>
        <pt x="98" y="1143" on="1"/>
        <pt x="338" y="1245" on="1"/>
        <pt x="98" y="1350" on="1"/>
        <pt x="162" y="1456" on="1"/>
        <pt x="371" y="1305" on="1"/>
        <pt x="344" y="1565" on="1"/>
        <pt x="467" y="1565" on="1"/>
        <pt x="442" y="1305" on="1"/>
        <pt x="649" y="1456" on="1"/>
        <pt x="715" y="1350" on="1"/>
        <pt x="475" y="1245" on="1"/>
      </contour>
    </TTGlyph>
    <TTGlyph name="at" xMin="125" yMin="0" xMax="1030" yMax="1565">
      <contour>
        <pt x="1030" y="0" on="1"/>
        <pt x="190" y="0" on="1"/>
        <pt x="125" y="0" on="0"/>
        <pt x="125" y="66" on="1"/>
        <pt x="125" y="1499" on="1"/>
        <pt x="125" y="1565" on="0"/>
        <pt x="190" y="1565" on="1"/>
        <pt x="965" y="1565" on="1"/>
        <pt x="1030" y="1565" on="0"/>
        <pt x="1030" y="1499" on="1"/>
        <pt x="1030" y="412" on="1"/>
        <pt x="1030" y="346" on="0"/>
        <pt x="965" y="346" on="1"/>
        <pt x="457" y="346" on="1"/>
        <pt x="385" y="346" on="0"/>
        <pt x="385" y="416" on="1"/>
        <pt x="385" y="784" on="1"/>
        <pt x="385" y="856" on="0"/>
        <pt x="457" y="856" on="1"/>
        <pt x="666" y="856" on="1"/>
        <pt x="666" y="1135" on="1"/>
        <pt x="494" y="1135" on="1"/>
        <pt x="494" y="971" on="1"/>
        <pt x="393" y="971" on="1"/>
        <pt x="393" y="1155" on="1"/>
        <pt x="393" y="1227" on="0"/>
        <pt x="465" y="1227" on="1"/>
        <pt x="694" y="1227" on="1"/>
        <pt x="766" y="1227" on="0"/>
        <pt x="766" y="1155" on="1"/>
        <pt x="766" y="422" on="1"/>
        <pt x="954" y="422" on="1"/>
        <pt x="954" y="1495" on="1"/>
        <pt x="201" y="1495" on="1"/>
        <pt x="201" y="70" on="1"/>
        <pt x="1030" y="70" on="1"/>
      </contour>
      <contour>
        <pt x="666" y="436" on="1"/>
        <pt x="666" y="766" on="1"/>
        <pt x="487" y="766" on="1"/>
        <pt x="487" y="436" on="1"/>
      </contour>
    </TTGlyph>
    <TTGlyph name="atilde" xMin="104" yMin="-6" xMax="659" yMax="1255">
      <component glyphName="a" x="0" y="0" flags="0x214"/>
      <component glyphName="tilde" x="-22" y="0" flags="0x14"/>
    </TTGlyph>
    <TTGlyph name="b" xMin="109" yMin="0" xMax="668" yMax="1565">
      <contour>
        <pt x="668" y="209" on="1"/>
        <pt x="668" y="119" on="0"/>
        <pt x="550" y="0" on="0"/>
        <pt x="461" y="0" on="1"/>
        <pt x="109" y="0" on="1"/>
        <pt x="109" y="1565" on="1"/>
        <pt x="242" y="1565" on="1"/>
        <pt x="242" y="946" on="1"/>
        <pt x="321" y="956" on="0"/>
        <pt x="400" y="966" on="1"/>
        <pt x="500" y="979" on="0"/>
        <pt x="557" y="979" on="1"/>
        <pt x="668" y="979" on="0"/>
        <pt x="668" y="870" on="1"/>
      </contour>
      <contour>
        <pt x="535" y="229" on="1"/>
        <pt x="535" y="854" on="1"/>
        <pt x="242" y="846" on="1"/>
        <pt x="242" y="117" on="1"/>
        <pt x="426" y="117" on="1"/>
        <pt x="535" y="117" on="0"/>
      </contour>
    </TTGlyph>
    <TTGlyph name="backslash" xMin="45" yMin="0" xMax="840" yMax="1565">
      <contour>
        <pt x="840" y="0" on="1"/>
        <pt x="707" y="0" on="1"/>
        <pt x="45" y="1565" on="1"/>
        <pt x="178" y="1565" on="1"/>
      </contour>
    </TTGlyph>
    <TTGlyph name="bar" xMin="145" yMin="-342" xMax="272" yMax="1565">
      <contour>
        <pt x="272" y="-342" on="1"/>
        <pt x="145" y="-342" on="1"/>
        <pt x="145" y="1565" on="1"/>
        <pt x="272" y="1565" on="1"/>
      </contour>
    </TTGlyph>
    <TTGlyph name="braceleft" xMin="63" yMin="-248" xMax="610" yMax="1565">
      <contour>
        <pt x="610" y="-248" on="1"/>
        <pt x="436" y="-248" on="1"/>
        <pt x="347" y="-248" on="0"/>
        <pt x="231" y="-132" on="0"/>
        <pt x="231" y="-43" on="1"/>
        <pt x="231" y="520" on="1"/>
        <pt x="63" y="676" on="1"/>
        <pt x="63" y="705" on="1"/>
        <pt x="231" y="860" on="1"/>
        <pt x="231" y="1360" on="1"/>
        <pt x="231" y="1449" on="0"/>
        <pt x="347" y="1565" on="0"/>
        <pt x="436" y="1565" on="1"/>
        <pt x="610" y="1565" on="1"/>
        <pt x="610" y="1444" on="1"/>
        <pt x="597" y="1444" on="0"/>
        <pt x="530" y="1447" on="0"/>
        <pt x="512" y="1447" on="1"/>
        <pt x="371" y="1447" on="0"/>
        <pt x="371" y="1343" on="1"/>
        <pt x="371" y="879" on="1"/>
        <pt x="371" y="817" on="0"/>
        <pt x="322" y="769" on="1"/>
        <pt x="271" y="730" on="0"/>
        <pt x="221" y="690" on="1"/>
        <pt x="271" y="651" on="0"/>
        <pt x="322" y="611" on="1"/>
        <pt x="371" y="563" on="0"/>
        <pt x="371" y="502" on="1"/>
        <pt x="371" y="-27" on="1"/>
        <pt x="371" y="-130" on="0"/>
        <pt x="512" y="-130" on="1"/>
        <pt x="530" y="-130" on="0"/>
        <pt x="597" y="-127" on="0"/>
        <pt x="610" y="-127" on="1"/>
      </contour>
    </TTGlyph>
    <TTGlyph name="braceright" xMin="88" yMin="-248" xMax="635" yMax="1565">
      <contour>
        <pt x="635" y="676" on="1"/>
        <pt x="467" y="520" on="1"/>
        <pt x="467" y="-43" on="1"/>
        <pt x="467" y="-131" on="0"/>
        <pt x="350" y="-248" on="0"/>
        <pt x="262" y="-248" on="1"/>
        <pt x="88" y="-248" on="1"/>
        <pt x="88" y="-127" on="1"/>
        <pt x="101" y="-127" on="0"/>
        <pt x="168" y="-130" on="0"/>
        <pt x="186" y="-130" on="1"/>
        <pt x="328" y="-130" on="0"/>
        <pt x="328" y="-27" on="1"/>
        <pt x="328" y="502" on="1"/>
        <pt x="328" y="563" on="0"/>
        <pt x="377" y="611" on="1"/>
        <pt x="427" y="651" on="0"/>
        <pt x="477" y="690" on="1"/>
        <pt x="427" y="730" on="0"/>
        <pt x="377" y="769" on="1"/>
        <pt x="328" y="817" on="0"/>
        <pt x="328" y="879" on="1"/>
        <pt x="328" y="1343" on="1"/>
        <pt x="328" y="1447" on="0"/>
        <pt x="186" y="1447" on="1"/>
        <pt x="168" y="1447" on="0"/>
        <pt x="101" y="1444" on="0"/>
        <pt x="88" y="1444" on="1"/>
        <pt x="88" y="1565" on="1"/>
        <pt x="262" y="1565" on="1"/>
        <pt x="350" y="1565" on="0"/>
        <pt x="467" y="1448" on="0"/>
        <pt x="467" y="1360" on="1"/>
        <pt x="467" y="860" on="1"/>
        <pt x="635" y="705" on="1"/>
      </contour>
    </TTGlyph>
    <TTGlyph name="bracketleft" xMin="129" yMin="-248" xMax="506" yMax="1565">
      <contour>
        <pt x="506" y="-248" on="1"/>
        <pt x="240" y="-248" on="1"/>
        <pt x="191" y="-248" on="0"/>
        <pt x="129" y="-186" on="0"/>
        <pt x="129" y="-137" on="1"/>
        <pt x="129" y="1454" on="1"/>
        <pt x="129" y="1503" on="0"/>
        <pt x="191" y="1565" on="0"/>
        <pt x="240" y="1565" on="1"/>
        <pt x="506" y="1565" on="1"/>
        <pt x="506" y="1442" on="1"/>
        <pt x="268" y="1442" on="1"/>
        <pt x="268" y="-125" on="1"/>
        <pt x="506" y="-125" on="1"/>
      </contour>
    </TTGlyph>
    <TTGlyph name="bracketright" xMin="88" yMin="-248" xMax="467" yMax="1565">
      <contour>
        <pt x="467" y="-137" on="1"/>
        <pt x="467" y="-186" on="0"/>
        <pt x="403" y="-248" on="0"/>
        <pt x="354" y="-248" on="1"/>
        <pt x="88" y="-248" on="1"/>
        <pt x="88" y="-125" on="1"/>
        <pt x="328" y="-125" on="1"/>
        <pt x="328" y="1442" on="1"/>
        <pt x="88" y="1442" on="1"/>
        <pt x="88" y="1565" on="1"/>
        <pt x="354" y="1565" on="1"/>
        <pt x="403" y="1565" on="0"/>
        <pt x="467" y="1503" on="0"/>
        <pt x="467" y="1454" on="1"/>
      </contour>
    </TTGlyph>
    <TTGlyph name="breve" xMin="217" yMin="1059" xMax="602" yMax="1280">
      <contour>
        <pt x="602" y="1151" on="1"/>
        <pt x="602" y="1059" on="0"/>
        <pt x="510" y="1059" on="1"/>
        <pt x="309" y="1059" on="1"/>
        <pt x="217" y="1059" on="0"/>
        <pt x="217" y="1151" on="1"/>
        <pt x="217" y="1280" on="1"/>
        <pt x="322" y="1280" on="1"/>
        <pt x="322" y="1155" on="1"/>
        <pt x="498" y="1155" on="1"/>
        <pt x="498" y="1280" on="1"/>
        <pt x="602" y="1280" on="1"/>
      </contour>
    </TTGlyph>
    <TTGlyph name="brokenbar" xMin="129" yMin="-409" xMax="268" yMax="1638">
      <contour>
        <pt x="268" y="811" on="1"/>
        <pt x="129" y="811" on="1"/>
        <pt x="129" y="1638" on="1"/>
        <pt x="268" y="1638" on="1"/>
      </contour>
      <contour>
        <pt x="268" y="-409" on="1"/>
        <pt x="129" y="-409" on="1"/>
        <pt x="129" y="417" on="1"/>
        <pt x="268" y="417" on="1"/>
      </contour>
    </TTGlyph>
    <TTGlyph name="bullet" xMin="131" yMin="481" xMax="733" yMax="1081">
      <contour>
        <pt x="733" y="598" on="1"/>
        <pt x="733" y="481" on="0"/>
        <pt x="616" y="481" on="1"/>
        <pt x="248" y="481" on="1"/>
        <pt x="131" y="481" on="0"/>
        <pt x="131" y="598" on="1"/>
        <pt x="131" y="965" on="1"/>
        <pt x="131" y="1081" on="0"/>
        <pt x="248" y="1081" on="1"/>
        <pt x="616" y="1081" on="1"/>
        <pt x="733" y="1081" on="0"/>
        <pt x="733" y="965" on="1"/>
      </contour>
    </TTGlyph>
    <TTGlyph name="c" xMin="109" yMin="0" xMax="649" yMax="973">
      <contour>
        <pt x="649" y="113" on="1"/>
        <pt x="649" y="0" on="0"/>
        <pt x="537" y="0" on="1"/>
        <pt x="221" y="0" on="1"/>
        <pt x="109" y="0" on="0"/>
        <pt x="109" y="113" on="1"/>
        <pt x="109" y="860" on="1"/>
        <pt x="109" y="973" on="0"/>
        <pt x="221" y="973" on="1"/>
        <pt x="537" y="973" on="1"/>
        <pt x="649" y="973" on="0"/>
        <pt x="649" y="860" on="1"/>
        <pt x="649" y="666" on="1"/>
        <pt x="518" y="666" on="1"/>
        <pt x="518" y="856" on="1"/>
        <pt x="242" y="856" on="1"/>
        <pt x="242" y="117" on="1"/>
        <pt x="518" y="117" on="1"/>
        <pt x="518" y="334" on="1"/>
        <pt x="649" y="334" on="1"/>
      </contour>
    </TTGlyph>
    <TTGlyph name="caron" xMin="168" yMin="1059" xMax="651" yMax="1294">
      <contour>
        <pt x="651" y="1288" on="1"/>
        <pt x="449" y="1059" on="1"/>
        <pt x="371" y="1059" on="1"/>
        <pt x="168" y="1288" on="1"/>
        <pt x="168" y="1294" on="1"/>
        <pt x="254" y="1294" on="1"/>
        <pt x="412" y="1176" on="1"/>
        <pt x="569" y="1294" on="1"/>
        <pt x="651" y="1294" on="1"/>
      </contour>
    </TTGlyph>
    <TTGlyph name="ccedilla" xMin="109" yMin="-389" xMax="649" yMax="973">
      <component glyphName="c" x="0" y="0" flags="0x214"/>
      <component glyphName="cedilla" x="-22" y="-20" flags="0x14"/>
    </TTGlyph>
    <TTGlyph name="cedilla" xMin="227" yMin="-369" xMax="592" yMax="20">
      <contour>
        <pt x="592" y="-289" on="1"/>
        <pt x="592" y="-369" on="0"/>
        <pt x="512" y="-369" on="1"/>
        <pt x="307" y="-369" on="1"/>
        <pt x="227" y="-369" on="0"/>
        <pt x="227" y="-289" on="1"/>
        <pt x="227" y="-176" on="1"/>
        <pt x="332" y="-176" on="1"/>
        <pt x="332" y="-279" on="1"/>
        <pt x="485" y="-279" on="1"/>
        <pt x="485" y="-172" on="1"/>
        <pt x="440" y="-150" on="0"/>
        <pt x="396" y="-127" on="1"/>
        <pt x="352" y="-98" on="0"/>
        <pt x="352" y="-47" on="1"/>
        <pt x="352" y="20" on="1"/>
        <pt x="459" y="20" on="1"/>
        <pt x="459" y="-49" on="1"/>
        <pt x="504" y="-72" on="0"/>
        <pt x="550" y="-95" on="1"/>
        <pt x="592" y="-124" on="0"/>
        <pt x="592" y="-176" on="1"/>
      </contour>
    </TTGlyph>
    <TTGlyph name="cent" xMin="109" yMin="0" xMax="649" yMax="1565">
      <contour>
        <pt x="649" y="412" on="1"/>
        <pt x="649" y="297" on="0"/>
        <pt x="511" y="297" on="1"/>
        <pt x="498" y="297" on="0"/>
        <pt x="445" y="299" on="0"/>
        <pt x="432" y="299" on="1"/>
        <pt x="432" y="0" on="1"/>
        <pt x="326" y="0" on="1"/>
        <pt x="326" y="299" on="1"/>
        <pt x="313" y="299" on="0"/>
        <pt x="259" y="297" on="0"/>
        <pt x="246" y="297" on="1"/>
        <pt x="109" y="297" on="0"/>
        <pt x="109" y="412" on="1"/>
        <pt x="109" y="1159" on="1"/>
        <pt x="109" y="1273" on="0"/>
        <pt x="246" y="1273" on="1"/>
        <pt x="259" y="1273" on="0"/>
        <pt x="286" y="1273" on="1"/>
        <pt x="313" y="1272" on="0"/>
        <pt x="326" y="1272" on="1"/>
        <pt x="326" y="1565" on="1"/>
        <pt x="432" y="1565" on="1"/>
        <pt x="432" y="1272" on="1"/>
        <pt x="445" y="1272" on="0"/>
        <pt x="472" y="1273" on="1"/>
        <pt x="498" y="1273" on="0"/>
        <pt x="511" y="1273" on="1"/>
        <pt x="649" y="1273" on="0"/>
        <pt x="649" y="1159" on="1"/>
        <pt x="649" y="965" on="1"/>
        <pt x="518" y="965" on="1"/>
        <pt x="518" y="1155" on="1"/>
        <pt x="432" y="1155" on="1"/>
        <pt x="432" y="416" on="1"/>
        <pt x="518" y="416" on="1"/>
        <pt x="518" y="633" on="1"/>
        <pt x="649" y="633" on="1"/>
      </contour>
      <contour>
        <pt x="326" y="416" on="1"/>
        <pt x="326" y="1155" on="1"/>
        <pt x="242" y="1155" on="1"/>
        <pt x="242" y="416" on="1"/>
      </contour>
    </TTGlyph>
    <TTGlyph name="circumflex" xMin="174" yMin="1059" xMax="645" yMax="1294">
      <contour>
        <pt x="645" y="1059" on="1"/>
        <pt x="559" y="1059" on="1"/>
        <pt x="408" y="1176" on="1"/>
        <pt x="256" y="1059" on="1"/>
        <pt x="174" y="1059" on="1"/>
        <pt x="174" y="1067" on="1"/>
        <pt x="371" y="1294" on="1"/>
        <pt x="449" y="1294" on="1"/>
        <pt x="645" y="1067" on="1"/>
      </contour>
    </TTGlyph>
    <TTGlyph name="colon" xMin="94" yMin="0" xMax="246" yMax="852">
      <contour>
        <pt x="246" y="676" on="1"/>
        <pt x="94" y="676" on="1"/>
        <pt x="94" y="852" on="1"/>
        <pt x="246" y="852" on="1"/>
      </contour>
      <contour>
        <pt x="246" y="0" on="1"/>
        <pt x="94" y="0" on="1"/>
        <pt x="94" y="176" on="1"/>
        <pt x="246" y="176" on="1"/>
      </contour>
    </TTGlyph>
    <TTGlyph name="comma" xMin="82" yMin="-111" xMax="266" yMax="176">
      <contour>
        <pt x="266" y="176" on="1"/>
        <pt x="178" y="-111" on="1"/>
        <pt x="82" y="-111" on="1"/>
        <pt x="111" y="176" on="1"/>
      </contour>
    </TTGlyph>
    <TTGlyph name="copyright" xMin="125" yMin="0" xMax="1030" yMax="1565">
      <contour>
        <pt x="1030" y="66" on="1"/>
        <pt x="1030" y="0" on="0"/>
        <pt x="965" y="0" on="1"/>
        <pt x="190" y="0" on="1"/>
        <pt x="125" y="0" on="0"/>
        <pt x="125" y="66" on="1"/>
        <pt x="125" y="1499" on="1"/>
        <pt x="125" y="1565" on="0"/>
        <pt x="190" y="1565" on="1"/>
        <pt x="965" y="1565" on="1"/>
        <pt x="1030" y="1565" on="0"/>
        <pt x="1030" y="1499" on="1"/>
      </contour>
      <contour>
        <pt x="954" y="70" on="1"/>
        <pt x="954" y="1495" on="1"/>
        <pt x="201" y="1495" on="1"/>
        <pt x="201" y="70" on="1"/>
      </contour>
      <contour>
        <pt x="768" y="416" on="1"/>
        <pt x="768" y="346" on="0"/>
        <pt x="696" y="346" on="1"/>
        <pt x="459" y="346" on="1"/>
        <pt x="385" y="346" on="0"/>
        <pt x="385" y="416" on="1"/>
        <pt x="385" y="1155" on="1"/>
        <pt x="385" y="1227" on="0"/>
        <pt x="459" y="1227" on="1"/>
        <pt x="696" y="1227" on="1"/>
        <pt x="768" y="1227" on="0"/>
        <pt x="768" y="1155" on="1"/>
        <pt x="768" y="944" on="1"/>
        <pt x="666" y="944" on="1"/>
        <pt x="666" y="1133" on="1"/>
        <pt x="487" y="1133" on="1"/>
        <pt x="487" y="438" on="1"/>
        <pt x="666" y="438" on="1"/>
        <pt x="666" y="645" on="1"/>
        <pt x="768" y="645" on="1"/>
      </contour>
    </TTGlyph>
    <TTGlyph name="currency" xMin="142" yMin="231" xMax="1095" yMax="1217">
      <contour>
        <pt x="1095" y="1099" on="1"/>
        <pt x="918" y="921" on="1"/>
        <pt x="918" y="526" on="1"/>
        <pt x="1095" y="349" on="1"/>
        <pt x="977" y="231" on="1"/>
        <pt x="783" y="425" on="1"/>
        <pt x="453" y="425" on="1"/>
        <pt x="260" y="231" on="1"/>
        <pt x="142" y="349" on="1"/>
        <pt x="319" y="527" on="1"/>
        <pt x="319" y="922" on="1"/>
        <pt x="142" y="1099" on="1"/>
        <pt x="260" y="1217" on="1"/>
        <pt x="454" y="1023" on="1"/>
        <pt x="784" y="1023" on="1"/>
        <pt x="977" y="1217" on="1"/>
      </contour>
      <contour>
        <pt x="754" y="574" on="1"/>
        <pt x="754" y="876" on="1"/>
        <pt x="483" y="876" on="1"/>
        <pt x="483" y="573" on="1"/>
      </contour>
    </TTGlyph>
    <TTGlyph name="d" xMin="104" yMin="-6" xMax="662" yMax="1565">
      <contour>
        <pt x="662" y="0" on="1"/>
        <pt x="530" y="0" on="1"/>
        <pt x="530" y="27" on="1"/>
        <pt x="316" y="-6" on="0"/>
        <pt x="293" y="-6" on="1"/>
        <pt x="208" y="-6" on="0"/>
        <pt x="104" y="109" on="0"/>
        <pt x="104" y="195" on="1"/>
        <pt x="104" y="764" on="1"/>
        <pt x="104" y="854" on="0"/>
        <pt x="222" y="973" on="0"/>
        <pt x="311" y="973" on="1"/>
        <pt x="530" y="973" on="1"/>
        <pt x="530" y="1565" on="1"/>
        <pt x="662" y="1565" on="1"/>
      </contour>
      <contour>
        <pt x="530" y="121" on="1"/>
        <pt x="530" y="856" on="1"/>
        <pt x="346" y="856" on="1"/>
        <pt x="236" y="856" on="0"/>
        <pt x="236" y="743" on="1"/>
        <pt x="236" y="223" on="1"/>
        <pt x="236" y="111" on="0"/>
        <pt x="346" y="111" on="1"/>
        <pt x="372" y="111" on="0"/>
      </contour>
    </TTGlyph>
    <TTGlyph name="dagger" xMin="84" yMin="0" xMax="815" yMax="1565">
      <contour>
        <pt x="815" y="1024" on="1"/>
        <pt x="516" y="1024" on="1"/>
        <pt x="516" y="0" on="1"/>
        <pt x="383" y="0" on="1"/>
        <pt x="383" y="1024" on="1"/>
        <pt x="84" y="1024" on="1"/>
        <pt x="84" y="1141" on="1"/>
        <pt x="383" y="1141" on="1"/>
        <pt x="383" y="1565" on="1"/>
        <pt x="516" y="1565" on="1"/>
        <pt x="516" y="1141" on="1"/>
        <pt x="815" y="1141" on="1"/>
      </contour>
    </TTGlyph>
    <TTGlyph name="daggerdbl" xMin="84" yMin="0" xMax="815" yMax="1565">
      <contour>
        <pt x="815" y="424" on="1"/>
        <pt x="514" y="424" on="1"/>
        <pt x="514" y="0" on="1"/>
        <pt x="385" y="0" on="1"/>
        <pt x="385" y="424" on="1"/>
        <pt x="84" y="424" on="1"/>
        <pt x="84" y="541" on="1"/>
        <pt x="385" y="541" on="1"/>
        <pt x="385" y="1024" on="1"/>
        <pt x="84" y="1024" on="1"/>
        <pt x="84" y="1141" on="1"/>
        <pt x="385" y="1141" on="1"/>
        <pt x="385" y="1565" on="1"/>
        <pt x="514" y="1565" on="1"/>
        <pt x="514" y="1141" on="1"/>
        <pt x="815" y="1141" on="1"/>
        <pt x="815" y="1024" on="1"/>
        <pt x="514" y="1024" on="1"/>
        <pt x="514" y="541" on="1"/>
        <pt x="815" y="541" on="1"/>
      </contour>
    </TTGlyph>
    <TTGlyph name="degree" xMin="92" yMin="786" xMax="575" yMax="1565">
      <contour>
        <pt x="575" y="889" on="1"/>
        <pt x="575" y="786" on="0"/>
        <pt x="471" y="786" on="1"/>
        <pt x="197" y="786" on="1"/>
        <pt x="92" y="786" on="0"/>
        <pt x="92" y="889" on="1"/>
        <pt x="92" y="1462" on="1"/>
        <pt x="92" y="1565" on="0"/>
        <pt x="197" y="1565" on="1"/>
        <pt x="471" y="1565" on="1"/>
        <pt x="575" y="1565" on="0"/>
        <pt x="575" y="1462" on="1"/>
      </contour>
      <contour>
        <pt x="461" y="887" on="1"/>
        <pt x="461" y="1464" on="1"/>
        <pt x="205" y="1464" on="1"/>
        <pt x="205" y="887" on="1"/>
      </contour>
    </TTGlyph>
    <TTGlyph name="dieresis" xMin="207" yMin="1059" xMax="612" yMax="1210">
      <contour>
        <pt x="612" y="1059" on="1"/>
        <pt x="465" y="1059" on="1"/>
        <pt x="465" y="1210" on="1"/>
        <pt x="612" y="1210" on="1"/>
      </contour>
      <contour>
        <pt x="354" y="1059" on="1"/>
        <pt x="207" y="1059" on="1"/>
        <pt x="207" y="1210" on="1"/>
        <pt x="354" y="1210" on="1"/>
      </contour>
    </TTGlyph>
    <TTGlyph name="divide" xMin="70" yMin="324" xMax="768" yMax="1050">
      <contour>
        <pt x="523" y="944" on="1"/>
        <pt x="523" y="900" on="0"/>
        <pt x="462" y="837" on="0"/>
        <pt x="418" y="837" on="1"/>
        <pt x="375" y="837" on="0"/>
        <pt x="314" y="900" on="0"/>
        <pt x="314" y="944" on="1"/>
        <pt x="314" y="988" on="0"/>
        <pt x="375" y="1050" on="0"/>
        <pt x="418" y="1050" on="1"/>
        <pt x="462" y="1050" on="0"/>
        <pt x="523" y="988" on="0"/>
      </contour>
      <contour>
        <pt x="768" y="625" on="1"/>
        <pt x="70" y="625" on="1"/>
        <pt x="70" y="751" on="1"/>
        <pt x="768" y="751" on="1"/>
      </contour>
      <contour>
        <pt x="523" y="430" on="1"/>
        <pt x="523" y="386" on="0"/>
        <pt x="462" y="324" on="0"/>
        <pt x="418" y="324" on="1"/>
        <pt x="375" y="324" on="0"/>
        <pt x="314" y="386" on="0"/>
        <pt x="314" y="430" on="1"/>
        <pt x="314" y="474" on="0"/>
        <pt x="375" y="537" on="0"/>
        <pt x="418" y="537" on="1"/>
        <pt x="462" y="537" on="0"/>
        <pt x="523" y="474" on="0"/>
      </contour>
    </TTGlyph>
    <TTGlyph name="dollar" xMin="119" yMin="-123" xMax="729" yMax="1688">
      <contour>
        <pt x="729" y="121" on="1"/>
        <pt x="729" y="8" on="0"/>
        <pt x="574" y="8" on="1"/>
        <pt x="557" y="8" on="0"/>
        <pt x="496" y="10" on="0"/>
        <pt x="483" y="10" on="1"/>
        <pt x="483" y="-123" on="1"/>
        <pt x="362" y="-123" on="1"/>
        <pt x="362" y="10" on="1"/>
        <pt x="350" y="10" on="0"/>
        <pt x="290" y="8" on="0"/>
        <pt x="274" y="8" on="1"/>
        <pt x="119" y="8" on="0"/>
        <pt x="119" y="121" on="1"/>
        <pt x="119" y="508" on="1"/>
        <pt x="258" y="508" on="1"/>
        <pt x="258" y="127" on="1"/>
        <pt x="362" y="127" on="1"/>
        <pt x="362" y="772" on="1"/>
        <pt x="164" y="1018" on="1"/>
        <pt x="119" y="1074" on="0"/>
        <pt x="119" y="1137" on="1"/>
        <pt x="119" y="1444" on="1"/>
        <pt x="119" y="1557" on="0"/>
        <pt x="274" y="1557" on="1"/>
        <pt x="290" y="1557" on="0"/>
        <pt x="350" y="1554" on="0"/>
        <pt x="362" y="1554" on="1"/>
        <pt x="362" y="1688" on="1"/>
        <pt x="483" y="1688" on="1"/>
        <pt x="483" y="1554" on="1"/>
        <pt x="496" y="1554" on="0"/>
        <pt x="557" y="1557" on="0"/>
        <pt x="574" y="1557" on="1"/>
        <pt x="729" y="1557" on="0"/>
        <pt x="729" y="1444" on="1"/>
        <pt x="729" y="1090" on="1"/>
        <pt x="590" y="1090" on="1"/>
        <pt x="590" y="1438" on="1"/>
        <pt x="483" y="1438" on="1"/>
        <pt x="483" y="834" on="1"/>
        <pt x="684" y="590" on="1"/>
        <pt x="729" y="535" on="0"/>
        <pt x="729" y="473" on="1"/>
      </contour>
      <contour>
        <pt x="362" y="975" on="1"/>
        <pt x="362" y="1438" on="1"/>
        <pt x="258" y="1438" on="1"/>
        <pt x="258" y="1108" on="1"/>
      </contour>
      <contour>
        <pt x="590" y="127" on="1"/>
        <pt x="590" y="502" on="1"/>
        <pt x="483" y="631" on="1"/>
        <pt x="483" y="127" on="1"/>
      </contour>
    </TTGlyph>
    <TTGlyph name="dotaccent" xMin="336" yMin="1059" xMax="483" yMax="1210">
      <contour>
        <pt x="483" y="1059" on="1"/>
        <pt x="336" y="1059" on="1"/>
        <pt x="336" y="1210" on="1"/>
        <pt x="483" y="1210" on="1"/>
      </contour>
    </TTGlyph>
    <TTGlyph name="dotlessi" xMin="117" yMin="0" xMax="248" yMax="973">
      <contour>
        <pt x="248" y="0" on="1"/>
        <pt x="117" y="0" on="1"/>
        <pt x="117" y="973" on="1"/>
        <pt x="248" y="973" on="1"/>
      </contour>
    </TTGlyph>
    <TTGlyph name="e" xMin="109" yMin="0" xMax="653" yMax="973">
      <contour>
        <pt x="653" y="113" on="1"/>
        <pt x="653" y="0" on="0"/>
        <pt x="541" y="0" on="1"/>
        <pt x="221" y="0" on="1"/>
        <pt x="109" y="0" on="0"/>
        <pt x="109" y="113" on="1"/>
        <pt x="109" y="860" on="1"/>
        <pt x="109" y="973" on="0"/>
        <pt x="221" y="973" on="1"/>
        <pt x="541" y="973" on="1"/>
        <pt x="653" y="973" on="0"/>
        <pt x="653" y="860" on="1"/>
        <pt x="653" y="510" on="1"/>
        <pt x="608" y="463" on="1"/>
        <pt x="238" y="463" on="1"/>
        <pt x="238" y="111" on="1"/>
        <pt x="524" y="111" on="1"/>
        <pt x="524" y="289" on="1"/>
        <pt x="653" y="289" on="1"/>
      </contour>
      <contour>
        <pt x="524" y="569" on="1"/>
        <pt x="524" y="862" on="1"/>
        <pt x="238" y="862" on="1"/>
        <pt x="238" y="569" on="1"/>
      </contour>
    </TTGlyph>
    <TTGlyph name="eacute" xMin="109" yMin="0" xMax="653" yMax="1294">
      <component glyphName="e" x="0" y="0" flags="0x214"/>
      <component glyphName="acute" x="67" y="0" flags="0x14"/>
    </TTGlyph>
    <TTGlyph name="ecircumflex" xMin="109" yMin="0" xMax="653" yMax="1294">
      <component glyphName="e" x="0" y="0" flags="0x214"/>
      <component glyphName="circumflex" x="-28" y="0" flags="0x14"/>
    </TTGlyph>
    <TTGlyph name="edieresis" xMin="109" yMin="0" xMax="653" yMax="1210">
      <component glyphName="e" x="0" y="0" flags="0x214"/>
      <component glyphName="dieresis" x="-28" y="0" flags="0x14"/>
    </TTGlyph>
    <TTGlyph name="egrave" xMin="109" yMin="0" xMax="653" yMax="1294">
      <component glyphName="e" x="0" y="0" flags="0x214"/>
      <component glyphName="grave" x="-125" y="0" flags="0x14"/>
    </TTGlyph>
    <TTGlyph name="eight" xMin="121" yMin="0" xMax="756" yMax="1565">
      <contour>
        <pt x="756" y="111" on="1"/>
        <pt x="756" y="62" on="0"/>
        <pt x="692" y="0" on="0"/>
        <pt x="643" y="0" on="1"/>
        <pt x="231" y="0" on="1"/>
        <pt x="182" y="0" on="0"/>
        <pt x="121" y="62" on="0"/>
        <pt x="121" y="111" on="1"/>
        <pt x="121" y="621" on="1"/>
        <pt x="121" y="688" on="0"/>
        <pt x="172" y="721" on="1"/>
        <pt x="324" y="819" on="1"/>
        <pt x="176" y="911" on="1"/>
        <pt x="125" y="943" on="0"/>
        <pt x="125" y="1012" on="1"/>
        <pt x="125" y="1454" on="1"/>
        <pt x="125" y="1503" on="0"/>
        <pt x="187" y="1565" on="0"/>
        <pt x="236" y="1565" on="1"/>
        <pt x="641" y="1565" on="1"/>
        <pt x="690" y="1565" on="0"/>
        <pt x="752" y="1503" on="0"/>
        <pt x="752" y="1454" on="1"/>
        <pt x="752" y="1012" on="1"/>
        <pt x="752" y="943" on="0"/>
        <pt x="700" y="911" on="1"/>
        <pt x="553" y="819" on="1"/>
        <pt x="702" y="721" on="1"/>
        <pt x="756" y="686" on="0"/>
        <pt x="756" y="621" on="1"/>
      </contour>
      <contour>
        <pt x="612" y="993" on="1"/>
        <pt x="612" y="1442" on="1"/>
        <pt x="264" y="1442" on="1"/>
        <pt x="264" y="993" on="1"/>
        <pt x="438" y="877" on="1"/>
      </contour>
      <contour>
        <pt x="616" y="123" on="1"/>
        <pt x="616" y="641" on="1"/>
        <pt x="438" y="758" on="1"/>
        <pt x="260" y="641" on="1"/>
        <pt x="260" y="123" on="1"/>
      </contour>
    </TTGlyph>
    <TTGlyph name="ellipsis" xMin="94" yMin="0" xMax="926" yMax="176">
      <contour>
        <pt x="926" y="0" on="1"/>
        <pt x="776" y="0" on="1"/>
        <pt x="776" y="176" on="1"/>
        <pt x="926" y="176" on="1"/>
      </contour>
      <contour>
        <pt x="586" y="0" on="1"/>
        <pt x="436" y="0" on="1"/>
        <pt x="436" y="176" on="1"/>
        <pt x="586" y="176" on="1"/>
      </contour>
      <contour>
        <pt x="246" y="0" on="1"/>
        <pt x="94" y="0" on="1"/>
        <pt x="94" y="176" on="1"/>
        <pt x="246" y="176" on="1"/>
      </contour>
    </TTGlyph>
    <TTGlyph name="emdash" xMin="96" yMin="535" xMax="1194" yMax="659">
      <contour>
        <pt x="1194" y="535" on="1"/>
        <pt x="96" y="535" on="1"/>
        <pt x="96" y="659" on="1"/>
        <pt x="1194" y="659" on="1"/>
      </contour>
    </TTGlyph>
    <TTGlyph name="endash" xMin="96" yMin="535" xMax="774" yMax="659">
      <contour>
        <pt x="774" y="535" on="1"/>
        <pt x="96" y="535" on="1"/>
        <pt x="96" y="659" on="1"/>
        <pt x="774" y="659" on="1"/>
      </contour>
    </TTGlyph>
    <TTGlyph name="equal" xMin="102" yMin="391" xMax="801" yMax="877">
      <contour>
        <pt x="801" y="756" on="1"/>
        <pt x="102" y="756" on="1"/>
        <pt x="102" y="877" on="1"/>
        <pt x="801" y="877" on="1"/>
      </contour>
      <contour>
        <pt x="801" y="391" on="1"/>
        <pt x="102" y="391" on="1"/>
        <pt x="102" y="510" on="1"/>
        <pt x="801" y="510" on="1"/>
      </contour>
    </TTGlyph>
    <TTGlyph name="eth" xMin="109" yMin="0" xMax="772" yMax="1565">
      <contour>
        <pt x="772" y="1219" on="1"/>
        <pt x="668" y="1190" on="1"/>
        <pt x="668" y="113" on="1"/>
        <pt x="668" y="0" on="0"/>
        <pt x="555" y="0" on="1"/>
        <pt x="221" y="0" on="1"/>
        <pt x="109" y="0" on="0"/>
        <pt x="109" y="113" on="1"/>
        <pt x="109" y="860" on="1"/>
        <pt x="109" y="973" on="0"/>
        <pt x="221" y="973" on="1"/>
        <pt x="539" y="973" on="1"/>
        <pt x="539" y="1153" on="1"/>
        <pt x="411" y="1117" on="0"/>
        <pt x="408" y="1118" on="1"/>
        <pt x="408" y="1241" on="1"/>
        <pt x="539" y="1278" on="1"/>
        <pt x="539" y="1450" on="1"/>
        <pt x="248" y="1450" on="1"/>
        <pt x="248" y="1253" on="1"/>
        <pt x="119" y="1253" on="1"/>
        <pt x="119" y="1452" on="1"/>
        <pt x="119" y="1565" on="0"/>
        <pt x="231" y="1565" on="1"/>
        <pt x="555" y="1565" on="1"/>
        <pt x="671" y="1565" on="0"/>
        <pt x="671" y="1420" on="1"/>
        <pt x="671" y="1402" on="0"/>
        <pt x="668" y="1329" on="0"/>
        <pt x="668" y="1313" on="1"/>
        <pt x="769" y="1340" on="0"/>
        <pt x="772" y="1339" on="1"/>
      </contour>
      <contour>
        <pt x="539" y="117" on="1"/>
        <pt x="539" y="856" on="1"/>
        <pt x="242" y="856" on="1"/>
        <pt x="242" y="117" on="1"/>
      </contour>
    </TTGlyph>
    <TTGlyph name="exclam" xMin="127" yMin="0" xMax="281" yMax="1565">
      <contour>
        <pt x="281" y="1565" on="1"/>
        <pt x="250" y="352" on="1"/>
        <pt x="158" y="352" on="1"/>
        <pt x="127" y="1565" on="1"/>
      </contour>
      <contour>
        <pt x="279" y="0" on="1"/>
        <pt x="129" y="0" on="1"/>
        <pt x="129" y="176" on="1"/>
        <pt x="279" y="176" on="1"/>
      </contour>
    </TTGlyph>
    <TTGlyph name="exclamdown" xMin="127" yMin="0" xMax="281" yMax="1565">
      <contour>
        <pt x="279" y="1389" on="1"/>
        <pt x="129" y="1389" on="1"/>
        <pt x="129" y="1565" on="1"/>
        <pt x="279" y="1565" on="1"/>
      </contour>
      <contour>
        <pt x="281" y="0" on="1"/>
        <pt x="127" y="0" on="1"/>
        <pt x="158" y="1212" on="1"/>
        <pt x="250" y="1212" on="1"/>
      </contour>
    </TTGlyph>
    <TTGlyph name="f" xMin="45" yMin="0" xMax="477" yMax="1565">
      <contour>
        <pt x="477" y="1448" on="1"/>
        <pt x="289" y="1448" on="1"/>
        <pt x="289" y="973" on="1"/>
        <pt x="455" y="973" on="1"/>
        <pt x="455" y="856" on="1"/>
        <pt x="289" y="856" on="1"/>
        <pt x="289" y="0" on="1"/>
        <pt x="158" y="0" on="1"/>
        <pt x="158" y="856" on="1"/>
        <pt x="45" y="856" on="1"/>
        <pt x="45" y="973" on="1"/>
        <pt x="158" y="973" on="1"/>
        <pt x="158" y="1452" on="1"/>
        <pt x="158" y="1565" on="0"/>
        <pt x="270" y="1565" on="1"/>
        <pt x="477" y="1565" on="1"/>
      </contour>
    </TTGlyph>
    <TTGlyph name="fi" xMin="45" yMin="0" xMax="756" yMax="1565">
      <contour>
        <pt x="756" y="0" on="1"/>
        <pt x="625" y="0" on="1"/>
        <pt x="625" y="856" on="1"/>
        <pt x="289" y="856" on="1"/>
        <pt x="289" y="0" on="1"/>
        <pt x="158" y="0" on="1"/>
        <pt x="158" y="856" on="1"/>
        <pt x="45" y="856" on="1"/>
        <pt x="45" y="973" on="1"/>
        <pt x="158" y="973" on="1"/>
        <pt x="158" y="1452" on="1"/>
        <pt x="158" y="1565" on="0"/>
        <pt x="270" y="1565" on="1"/>
        <pt x="643" y="1565" on="1"/>
        <pt x="756" y="1565" on="0"/>
        <pt x="756" y="1452" on="1"/>
        <pt x="756" y="1186" on="1"/>
        <pt x="625" y="1186" on="1"/>
        <pt x="625" y="1448" on="1"/>
        <pt x="289" y="1448" on="1"/>
        <pt x="289" y="973" on="1"/>
        <pt x="756" y="973" on="1"/>
      </contour>
    </TTGlyph>
    <TTGlyph name="five" xMin="121" yMin="0" xMax="727" yMax="1565">
      <contour>
        <pt x="727" y="111" on="1"/>
        <pt x="727" y="62" on="0"/>
        <pt x="665" y="0" on="0"/>
        <pt x="616" y="0" on="1"/>
        <pt x="231" y="0" on="1"/>
        <pt x="182" y="0" on="0"/>
        <pt x="121" y="62" on="0"/>
        <pt x="121" y="111" on="1"/>
        <pt x="121" y="508" on="1"/>
        <pt x="260" y="508" on="1"/>
        <pt x="260" y="123" on="1"/>
        <pt x="588" y="123" on="1"/>
        <pt x="588" y="860" on="1"/>
        <pt x="125" y="860" on="1"/>
        <pt x="143" y="1565" on="1"/>
        <pt x="715" y="1565" on="1"/>
        <pt x="715" y="1442" on="1"/>
        <pt x="279" y="1442" on="1"/>
        <pt x="262" y="983" on="1"/>
        <pt x="616" y="983" on="1"/>
        <pt x="665" y="983" on="0"/>
        <pt x="727" y="921" on="0"/>
        <pt x="727" y="872" on="1"/>
      </contour>
    </TTGlyph>
    <TTGlyph name="fl" xMin="45" yMin="0" xMax="756" yMax="1565">
      <contour>
        <pt x="756" y="0" on="1"/>
        <pt x="625" y="0" on="1"/>
        <pt x="625" y="1448" on="1"/>
        <pt x="289" y="1448" on="1"/>
        <pt x="289" y="973" on="1"/>
        <pt x="455" y="973" on="1"/>
        <pt x="455" y="856" on="1"/>
        <pt x="289" y="856" on="1"/>
        <pt x="289" y="0" on="1"/>
        <pt x="158" y="0" on="1"/>
        <pt x="158" y="856" on="1"/>
        <pt x="45" y="856" on="1"/>
        <pt x="45" y="973" on="1"/>
        <pt x="158" y="973" on="1"/>
        <pt x="158" y="1452" on="1"/>
        <pt x="158" y="1565" on="0"/>
        <pt x="270" y="1565" on="1"/>
        <pt x="756" y="1565" on="1"/>
      </contour>
    </TTGlyph>
    <TTGlyph name="florin" xMin="-125" yMin="-369" xMax="612" yMax="1565">
      <contour>
        <pt x="612" y="1565" on="1"/>
        <pt x="598" y="1448" on="1"/>
        <pt x="408" y="1448" on="1"/>
        <pt x="342" y="973" on="1"/>
        <pt x="510" y="973" on="1"/>
        <pt x="492" y="856" on="1"/>
        <pt x="324" y="856" on="1"/>
        <pt x="168" y="-256" on="1"/>
        <pt x="152" y="-369" on="0"/>
        <pt x="41" y="-369" on="1"/>
        <pt x="-125" y="-369" on="1"/>
        <pt x="-111" y="-252" on="1"/>
        <pt x="37" y="-252" on="1"/>
        <pt x="193" y="856" on="1"/>
        <pt x="80" y="856" on="1"/>
        <pt x="98" y="973" on="1"/>
        <pt x="211" y="973" on="1"/>
        <pt x="276" y="1452" on="1"/>
        <pt x="292" y="1565" on="0"/>
        <pt x="406" y="1565" on="1"/>
      </contour>
    </TTGlyph>
    <TTGlyph name="four" xMin="43" yMin="0" xMax="735" yMax="1565">
      <contour>
        <pt x="735" y="408" on="1"/>
        <pt x="616" y="408" on="1"/>
        <pt x="616" y="0" on="1"/>
        <pt x="485" y="0" on="1"/>
        <pt x="485" y="408" on="1"/>
        <pt x="43" y="408" on="1"/>
        <pt x="43" y="479" on="1"/>
        <pt x="422" y="1565" on="1"/>
        <pt x="553" y="1565" on="1"/>
        <pt x="553" y="1559" on="0"/>
        <pt x="553" y="1559" on="1"/>
        <pt x="193" y="526" on="1"/>
        <pt x="485" y="526" on="1"/>
        <pt x="485" y="1094" on="1"/>
        <pt x="616" y="1094" on="1"/>
        <pt x="616" y="526" on="1"/>
        <pt x="735" y="526" on="1"/>
      </contour>
    </TTGlyph>
    <TTGlyph name="fraction" xMin="-326" yMin="0" xMax="649" yMax="1565">
      <contour>
        <pt x="649" y="1556" on="1"/>
        <pt x="-211" y="0" on="1"/>
        <pt x="-326" y="0" on="1"/>
        <pt x="-326" y="8" on="1"/>
        <pt x="535" y="1565" on="1"/>
        <pt x="649" y="1565" on="1"/>
      </contour>
    </TTGlyph>
    <TTGlyph name="g" xMin="104" yMin="-369" xMax="662" yMax="979">
      <contour>
        <pt x="662" y="-256" on="1"/>
        <pt x="662" y="-369" on="0"/>
        <pt x="549" y="-369" on="1"/>
        <pt x="233" y="-369" on="1"/>
        <pt x="118" y="-369" on="0"/>
        <pt x="118" y="-226" on="1"/>
        <pt x="118" y="-209" on="0"/>
        <pt x="121" y="-142" on="0"/>
        <pt x="121" y="-127" on="1"/>
        <pt x="252" y="-127" on="1"/>
        <pt x="252" y="-256" on="1"/>
        <pt x="530" y="-256" on="1"/>
        <pt x="530" y="0" on="1"/>
        <pt x="311" y="0" on="1"/>
        <pt x="222" y="0" on="0"/>
        <pt x="104" y="119" on="0"/>
        <pt x="104" y="209" on="1"/>
        <pt x="104" y="778" on="1"/>
        <pt x="104" y="864" on="0"/>
        <pt x="208" y="979" on="0"/>
        <pt x="293" y="979" on="1"/>
        <pt x="316" y="979" on="0"/>
        <pt x="530" y="946" on="1"/>
        <pt x="530" y="973" on="1"/>
        <pt x="662" y="973" on="1"/>
      </contour>
      <contour>
        <pt x="530" y="117" on="1"/>
        <pt x="530" y="852" on="1"/>
        <pt x="372" y="862" on="0"/>
        <pt x="346" y="862" on="1"/>
        <pt x="236" y="862" on="0"/>
        <pt x="236" y="750" on="1"/>
        <pt x="236" y="229" on="1"/>
        <pt x="236" y="117" on="0"/>
        <pt x="346" y="117" on="1"/>
      </contour>
    </TTGlyph>
    <TTGlyph name="germandbls" xMin="109" yMin="0" xMax="678" yMax="1565">
      <contour>
        <pt x="678" y="109" on="1"/>
        <pt x="678" y="0" on="0"/>
        <pt x="569" y="0" on="1"/>
        <pt x="385" y="0" on="1"/>
        <pt x="385" y="117" on="1"/>
        <pt x="547" y="117" on="1"/>
        <pt x="547" y="653" on="1"/>
        <pt x="383" y="805" on="1"/>
        <pt x="383" y="838" on="1"/>
        <pt x="545" y="987" on="1"/>
        <pt x="545" y="1335" on="1"/>
        <pt x="545" y="1448" on="0"/>
        <pt x="436" y="1448" on="1"/>
        <pt x="242" y="1448" on="1"/>
        <pt x="242" y="0" on="1"/>
        <pt x="109" y="0" on="1"/>
        <pt x="109" y="1565" on="1"/>
        <pt x="469" y="1565" on="1"/>
        <pt x="559" y="1565" on="0"/>
        <pt x="676" y="1446" on="0"/>
        <pt x="676" y="1356" on="1"/>
        <pt x="676" y="1040" on="1"/>
        <pt x="676" y="961" on="0"/>
        <pt x="632" y="914" on="1"/>
        <pt x="575" y="868" on="0"/>
        <pt x="518" y="821" on="1"/>
        <pt x="577" y="775" on="0"/>
        <pt x="635" y="729" on="1"/>
        <pt x="678" y="685" on="0"/>
        <pt x="678" y="602" on="1"/>
      </contour>
    </TTGlyph>
    <TTGlyph name="grave" xMin="289" yMin="1059" xMax="627" yMax="1294">
      <contour>
        <pt x="627" y="1059" on="1"/>
        <pt x="535" y="1059" on="1"/>
        <pt x="289" y="1290" on="1"/>
        <pt x="289" y="1294" on="1"/>
        <pt x="477" y="1294" on="1"/>
        <pt x="627" y="1065" on="1"/>
      </contour>
    </TTGlyph>
    <TTGlyph name="greater" xMin="115" yMin="242" xMax="623" yMax="1069">
      <contour>
        <pt x="623" y="618" on="1"/>
        <pt x="115" y="242" on="1"/>
        <pt x="115" y="381" on="1"/>
        <pt x="485" y="655" on="1"/>
        <pt x="115" y="930" on="1"/>
        <pt x="115" y="1069" on="1"/>
        <pt x="123" y="1069" on="1"/>
        <pt x="623" y="690" on="1"/>
      </contour>
    </TTGlyph>
    <TTGlyph name="greaterequal" xMin="96" yMin="145" xMax="604" yMax="1069">
      <contour>
        <pt x="604" y="648" on="1"/>
        <pt x="96" y="302" on="1"/>
        <pt x="96" y="441" on="1"/>
        <pt x="466" y="685" on="1"/>
        <pt x="96" y="930" on="1"/>
        <pt x="96" y="1069" on="1"/>
        <pt x="102" y="1069" on="1"/>
        <pt x="604" y="720" on="1"/>
      </contour>
      <contour>
        <pt x="603" y="145" on="1"/>
        <pt x="96" y="145" on="1"/>
        <pt x="96" y="264" on="1"/>
        <pt x="603" y="264" on="1"/>
      </contour>
    </TTGlyph>
    <TTGlyph name="guillemotleft" xMin="78" yMin="156" xMax="813" yMax="954">
      <contour>
        <pt x="813" y="156" on="1"/>
        <pt x="670" y="156" on="1"/>
        <pt x="420" y="535" on="1"/>
        <pt x="420" y="575" on="1"/>
        <pt x="670" y="954" on="1"/>
        <pt x="813" y="954" on="1"/>
        <pt x="813" y="946" on="1"/>
        <pt x="559" y="555" on="1"/>
      </contour>
      <contour>
        <pt x="469" y="156" on="1"/>
        <pt x="328" y="156" on="1"/>
        <pt x="78" y="535" on="1"/>
        <pt x="78" y="575" on="1"/>
        <pt x="328" y="954" on="1"/>
        <pt x="469" y="954" on="1"/>
        <pt x="469" y="946" on="1"/>
        <pt x="217" y="555" on="1"/>
      </contour>
    </TTGlyph>
    <TTGlyph name="guillemotright" xMin="104" yMin="156" xMax="838" yMax="954">
      <contour>
        <pt x="838" y="535" on="1"/>
        <pt x="590" y="156" on="1"/>
        <pt x="446" y="156" on="1"/>
        <pt x="446" y="164" on="1"/>
        <pt x="700" y="555" on="1"/>
        <pt x="446" y="954" on="1"/>
        <pt x="590" y="954" on="1"/>
        <pt x="838" y="575" on="1"/>
      </contour>
      <contour>
        <pt x="496" y="535" on="1"/>
        <pt x="246" y="156" on="1"/>
        <pt x="104" y="156" on="1"/>
        <pt x="104" y="164" on="1"/>
        <pt x="356" y="555" on="1"/>
        <pt x="104" y="954" on="1"/>
        <pt x="246" y="954" on="1"/>
        <pt x="496" y="575" on="1"/>
      </contour>
    </TTGlyph>
    <TTGlyph name="guilsinglleft" xMin="78" yMin="156" xMax="469" yMax="954">
      <contour>
        <pt x="469" y="156" on="1"/>
        <pt x="328" y="156" on="1"/>
        <pt x="78" y="535" on="1"/>
        <pt x="78" y="575" on="1"/>
        <pt x="328" y="954" on="1"/>
        <pt x="469" y="954" on="1"/>
        <pt x="469" y="946" on="1"/>
        <pt x="217" y="555" on="1"/>
      </contour>
    </TTGlyph>
    <TTGlyph name="guilsinglright" xMin="104" yMin="156" xMax="496" yMax="954">
      <contour>
        <pt x="496" y="535" on="1"/>
        <pt x="246" y="156" on="1"/>
        <pt x="104" y="156" on="1"/>
        <pt x="104" y="164" on="1"/>
        <pt x="356" y="555" on="1"/>
        <pt x="104" y="954" on="1"/>
        <pt x="246" y="954" on="1"/>
        <pt x="496" y="575" on="1"/>
      </contour>
    </TTGlyph>
    <TTGlyph name="h" xMin="109" yMin="0" xMax="668" yMax="1565">
      <contour>
        <pt x="668" y="0" on="1"/>
        <pt x="535" y="0" on="1"/>
        <pt x="535" y="854" on="1"/>
        <pt x="242" y="846" on="1"/>
        <pt x="242" y="0" on="1"/>
        <pt x="109" y="0" on="1"/>
        <pt x="109" y="1565" on="1"/>
        <pt x="242" y="1565" on="1"/>
        <pt x="242" y="946" on="1"/>
        <pt x="321" y="956" on="0"/>
        <pt x="400" y="966" on="1"/>
        <pt x="500" y="979" on="0"/>
        <pt x="557" y="979" on="1"/>
        <pt x="668" y="979" on="0"/>
        <pt x="668" y="870" on="1"/>
      </contour>
    </TTGlyph>
    <TTGlyph name="hungarumlaut" xMin="115" yMin="1059" xMax="711" yMax="1294">
      <contour>
        <pt x="711" y="1290" on="1"/>
        <pt x="465" y="1059" on="1"/>
        <pt x="381" y="1059" on="1"/>
        <pt x="381" y="1065" on="1"/>
        <pt x="532" y="1294" on="1"/>
        <pt x="711" y="1294" on="1"/>
      </contour>
      <contour>
        <pt x="444" y="1290" on="1"/>
        <pt x="199" y="1059" on="1"/>
        <pt x="115" y="1059" on="1"/>
        <pt x="115" y="1065" on="1"/>
        <pt x="266" y="1294" on="1"/>
        <pt x="444" y="1294" on="1"/>
      </contour>
    </TTGlyph>
    <TTGlyph name="hyphen" xMin="96" yMin="535" xMax="508" yMax="659">
      <contour>
        <pt x="508" y="535" on="1"/>
        <pt x="96" y="535" on="1"/>
        <pt x="96" y="659" on="1"/>
        <pt x="508" y="659" on="1"/>
      </contour>
    </TTGlyph>
    <TTGlyph name="i" xMin="115" yMin="0" xMax="250" yMax="1354">
      <contour>
        <pt x="250" y="1186" on="1"/>
        <pt x="115" y="1186" on="1"/>
        <pt x="115" y="1354" on="1"/>
        <pt x="250" y="1354" on="1"/>
      </contour>
      <contour>
        <pt x="248" y="0" on="1"/>
        <pt x="117" y="0" on="1"/>
        <pt x="117" y="973" on="1"/>
        <pt x="248" y="973" on="1"/>
      </contour>
    </TTGlyph>
    <TTGlyph name="iacute" xMin="69" yMin="0" xMax="407" yMax="1294">
      <component glyphName="dotlessi" x="0" y="0" flags="0x214"/>
      <component glyphName="acute" x="-119" y="0" flags="0x14"/>
    </TTGlyph>
    <TTGlyph name="icircumflex" xMin="-51" yMin="0" xMax="420" yMax="1279">
      <component glyphName="dotlessi" x="0" y="0" flags="0x214"/>
      <component glyphName="circumflex" x="-225" y="-15" flags="0x14"/>
    </TTGlyph>
    <TTGlyph name="idieresis" xMin="-20" yMin="0" xMax="385" yMax="1210">
      <component glyphName="dotlessi" x="0" y="0" flags="0x214"/>
      <component glyphName="dieresis" x="-227" y="0" flags="0x14"/>
    </TTGlyph>
    <TTGlyph name="igrave" xMin="-47" yMin="0" xMax="291" yMax="1294">
      <component glyphName="dotlessi" x="0" y="0" flags="0x214"/>
      <component glyphName="grave" x="-336" y="0" flags="0x14"/>
    </TTGlyph>
    <TTGlyph name="infinity" xMin="36" yMin="139" xMax="1236" yMax="873">
      <contour>
        <pt x="1236" y="252" on="1"/>
        <pt x="1236" y="139" on="0"/>
        <pt x="1123" y="139" on="1"/>
        <pt x="872" y="139" on="1"/>
        <pt x="808" y="139" on="0"/>
        <pt x="734" y="252" on="1"/>
        <pt x="635" y="403" on="1"/>
        <pt x="537" y="250" on="1"/>
        <pt x="495" y="185" on="0"/>
        <pt x="474" y="166" on="1"/>
        <pt x="445" y="140" on="0"/>
        <pt x="402" y="139" on="1"/>
        <pt x="149" y="139" on="1"/>
        <pt x="36" y="139" on="0"/>
        <pt x="36" y="252" on="1"/>
        <pt x="36" y="760" on="1"/>
        <pt x="36" y="873" on="0"/>
        <pt x="149" y="873" on="1"/>
        <pt x="402" y="873" on="1"/>
        <pt x="468" y="872" on="0"/>
        <pt x="540" y="760" on="1"/>
        <pt x="637" y="609" on="1"/>
        <pt x="735" y="760" on="1"/>
        <pt x="808" y="873" on="0"/>
        <pt x="872" y="873" on="1"/>
        <pt x="1123" y="873" on="1"/>
        <pt x="1235" y="873" on="0"/>
        <pt x="1236" y="760" on="1"/>
      </contour>
      <contour>
        <pt x="1102" y="256" on="1"/>
        <pt x="1102" y="756" on="1"/>
        <pt x="864" y="756" on="1"/>
        <pt x="703" y="507" on="1"/>
        <pt x="865" y="256" on="1"/>
      </contour>
      <contour>
        <pt x="569" y="504" on="1"/>
        <pt x="404" y="756" on="1"/>
        <pt x="169" y="756" on="1"/>
        <pt x="169" y="256" on="1"/>
        <pt x="409" y="256" on="1"/>
      </contour>
    </TTGlyph>
    <TTGlyph name="integral" xMin="-32" yMin="-401" xMax="477" yMax="1565">
      <contour>
        <pt x="477" y="1448" on="1"/>
        <pt x="289" y="1448" on="1"/>
        <pt x="289" y="-289" on="1"/>
        <pt x="289" y="-333" on="0"/>
        <pt x="263" y="-364" on="1"/>
        <pt x="233" y="-400" on="0"/>
        <pt x="181" y="-400" on="1"/>
        <pt x="-32" y="-401" on="1"/>
        <pt x="-32" y="-284" on="1"/>
        <pt x="157" y="-284" on="1"/>
        <pt x="158" y="1452" on="1"/>
        <pt x="158" y="1565" on="0"/>
        <pt x="270" y="1565" on="1"/>
        <pt x="477" y="1565" on="1"/>
      </contour>
    </TTGlyph>
    <TTGlyph name="j" xMin="-31" yMin="-369" xMax="250" yMax="1354">
      <contour>
        <pt x="250" y="1186" on="1"/>
        <pt x="115" y="1186" on="1"/>
        <pt x="115" y="1354" on="1"/>
        <pt x="250" y="1354" on="1"/>
      </contour>
      <contour>
        <pt x="248" y="-256" on="1"/>
        <pt x="248" y="-369" on="0"/>
        <pt x="135" y="-369" on="1"/>
        <pt x="-31" y="-369" on="1"/>
        <pt x="-31" y="-252" on="1"/>
        <pt x="117" y="-252" on="1"/>
        <pt x="117" y="973" on="1"/>
        <pt x="248" y="973" on="1"/>
      </contour>
    </TTGlyph>
    <TTGlyph name="k" xMin="109" yMin="0" xMax="655" yMax="1565">
      <contour>
        <pt x="655" y="0" on="1"/>
        <pt x="510" y="0" on="1"/>
        <pt x="242" y="496" on="1"/>
        <pt x="242" y="0" on="1"/>
        <pt x="109" y="0" on="1"/>
        <pt x="109" y="1565" on="1"/>
        <pt x="242" y="1565" on="1"/>
        <pt x="242" y="571" on="1"/>
        <pt x="492" y="973" on="1"/>
        <pt x="635" y="973" on="1"/>
        <pt x="635" y="969" on="1"/>
        <pt x="352" y="539" on="1"/>
      </contour>
    </TTGlyph>
    <TTGlyph name="l" xMin="117" yMin="0" xMax="248" yMax="1565">
      <contour>
        <pt x="248" y="0" on="1"/>
        <pt x="117" y="0" on="1"/>
        <pt x="117" y="1565" on="1"/>
        <pt x="248" y="1565" on="1"/>
      </contour>
    </TTGlyph>
    <TTGlyph name="less" xMin="76" yMin="242" xMax="584" yMax="1069">
      <contour>
        <pt x="584" y="242" on="1"/>
        <pt x="578" y="242" on="1"/>
        <pt x="76" y="618" on="1"/>
        <pt x="76" y="690" on="1"/>
        <pt x="584" y="1069" on="1"/>
        <pt x="584" y="930" on="1"/>
        <pt x="213" y="655" on="1"/>
        <pt x="584" y="381" on="1"/>
      </contour>
    </TTGlyph>
    <TTGlyph name="lessequal" xMin="76" yMin="145" xMax="584" yMax="1069">
      <contour>
        <pt x="584" y="302" on="1"/>
        <pt x="578" y="302" on="1"/>
        <pt x="76" y="648" on="1"/>
        <pt x="76" y="720" on="1"/>
        <pt x="584" y="1069" on="1"/>
        <pt x="584" y="930" on="1"/>
        <pt x="213" y="685" on="1"/>
        <pt x="584" y="441" on="1"/>
      </contour>
      <contour>
        <pt x="584" y="145" on="1"/>
        <pt x="76" y="145" on="1"/>
        <pt x="76" y="264" on="1"/>
        <pt x="584" y="264" on="1"/>
      </contour>
    </TTGlyph>
    <TTGlyph name="logicalnot" xMin="119" yMin="332" xMax="823" yMax="748">
      <contour>
        <pt x="823" y="332" on="1"/>
        <pt x="699" y="332" on="1"/>
        <pt x="699" y="624" on="1"/>
        <pt x="119" y="624" on="1"/>
        <pt x="119" y="748" on="1"/>
        <pt x="823" y="748" on="1"/>
      </contour>
    </TTGlyph>
    <TTGlyph name="lozenge" xMin="30" yMin="66" xMax="798" yMax="1082">
      <contour>
        <pt x="798" y="574" on="1"/>
        <pt x="451" y="66" on="1"/>
        <pt x="379" y="66" on="1"/>
        <pt x="30" y="574" on="1"/>
        <pt x="379" y="1082" on="1"/>
        <pt x="451" y="1082" on="1"/>
      </contour>
      <contour>
        <pt x="659" y="574" on="1"/>
        <pt x="414" y="945" on="1"/>
        <pt x="169" y="574" on="1"/>
        <pt x="414" y="203" on="1"/>
      </contour>
    </TTGlyph>
    <TTGlyph name="lslash" xMin="27" yMin="0" xMax="338" yMax="1565">
      <component glyphName="l" x="0" y="0" flags="0x214"/>
      <component glyphName=".notdef#5" x="-10" y="0" flags="0x14"/>
    </TTGlyph>
    <TTGlyph name="m" xMin="109" yMin="0" xMax="1087" yMax="979">
      <contour>
        <pt x="1087" y="0" on="1"/>
        <pt x="954" y="0" on="1"/>
        <pt x="954" y="854" on="1"/>
        <pt x="664" y="846" on="1"/>
        <pt x="664" y="0" on="1"/>
        <pt x="532" y="0" on="1"/>
        <pt x="532" y="854" on="1"/>
        <pt x="242" y="846" on="1"/>
        <pt x="242" y="0" on="1"/>
        <pt x="109" y="0" on="1"/>
        <pt x="109" y="973" on="1"/>
        <pt x="242" y="973" on="1"/>
        <pt x="242" y="946" on="1"/>
        <pt x="320" y="956" on="0"/>
        <pt x="398" y="967" on="1"/>
        <pt x="493" y="979" on="0"/>
        <pt x="555" y="979" on="1"/>
        <pt x="616" y="979" on="0"/>
        <pt x="645" y="942" on="1"/>
        <pt x="729" y="953" on="0"/>
        <pt x="812" y="965" on="1"/>
        <pt x="921" y="979" on="0"/>
        <pt x="977" y="979" on="1"/>
        <pt x="1087" y="979" on="0"/>
        <pt x="1087" y="870" on="1"/>
      </contour>
    </TTGlyph>
    <TTGlyph name="macron" xMin="188" yMin="1090" xMax="631" yMax="1196">
      <contour>
        <pt x="631" y="1090" on="1"/>
        <pt x="188" y="1090" on="1"/>
        <pt x="188" y="1196" on="1"/>
        <pt x="631" y="1196" on="1"/>
      </contour>
    </TTGlyph>
    <TTGlyph name="minus" xMin="119" yMin="624" xMax="823" yMax="748">
      <contour>
        <pt x="823" y="624" on="1"/>
        <pt x="119" y="624" on="1"/>
        <pt x="119" y="748" on="1"/>
        <pt x="823" y="748" on="1"/>
      </contour>
    </TTGlyph>
    <TTGlyph name="mu" xMin="109" yMin="-369" xMax="676" yMax="973">
      <contour>
        <pt x="676" y="0" on="1"/>
        <pt x="545" y="0" on="1"/>
        <pt x="545" y="28" on="1"/>
        <pt x="477" y="-1" on="0"/>
        <pt x="361" y="-1" on="1"/>
        <pt x="267" y="-1" on="0"/>
        <pt x="240" y="39" on="1"/>
        <pt x="240" y="-369" on="1"/>
        <pt x="109" y="-369" on="1"/>
        <pt x="109" y="973" on="1"/>
        <pt x="240" y="973" on="1"/>
        <pt x="240" y="253" on="1"/>
        <pt x="240" y="114" on="0"/>
        <pt x="378" y="114" on="1"/>
        <pt x="473" y="114" on="0"/>
        <pt x="544" y="130" on="1"/>
        <pt x="544" y="973" on="1"/>
        <pt x="676" y="973" on="1"/>
      </contour>
    </TTGlyph>
    <TTGlyph name="multiply" xMin="174" yMin="383" xMax="767" yMax="975">
      <contour>
        <pt x="767" y="883" on="1"/>
        <pt x="562" y="679" on="1"/>
        <pt x="766" y="475" on="1"/>
        <pt x="674" y="383" on="1"/>
        <pt x="470" y="588" on="1"/>
        <pt x="266" y="383" on="1"/>
        <pt x="174" y="474" on="1"/>
        <pt x="379" y="679" on="1"/>
        <pt x="175" y="883" on="1"/>
        <pt x="267" y="974" on="1"/>
        <pt x="471" y="770" on="1"/>
        <pt x="675" y="975" on="1"/>
      </contour>
    </TTGlyph>
    <TTGlyph name="n" xMin="109" yMin="0" xMax="668" yMax="979">
      <contour>
        <pt x="668" y="0" on="1"/>
        <pt x="535" y="0" on="1"/>
        <pt x="535" y="854" on="1"/>
        <pt x="242" y="846" on="1"/>
        <pt x="242" y="0" on="1"/>
        <pt x="109" y="0" on="1"/>
        <pt x="109" y="973" on="1"/>
        <pt x="242" y="973" on="1"/>
        <pt x="242" y="946" on="1"/>
        <pt x="320" y="956" on="0"/>
        <pt x="399" y="967" on="1"/>
        <pt x="495" y="979" on="0"/>
        <pt x="557" y="979" on="1"/>
        <pt x="668" y="979" on="0"/>
        <pt x="668" y="870" on="1"/>
      </contour>
    </TTGlyph>
    <TTGlyph name="nine" xMin="119" yMin="0" xMax="739" yMax="1565">
      <contour>
        <pt x="739" y="111" on="1"/>
        <pt x="739" y="62" on="0"/>
        <pt x="678" y="0" on="0"/>
        <pt x="629" y="0" on="1"/>
        <pt x="238" y="0" on="1"/>
        <pt x="189" y="0" on="0"/>
        <pt x="125" y="62" on="0"/>
        <pt x="125" y="111" on="1"/>
        <pt x="125" y="457" on="1"/>
        <pt x="264" y="457" on="1"/>
        <pt x="264" y="123" on="1"/>
        <pt x="600" y="123" on="1"/>
        <pt x="600" y="702" on="1"/>
        <pt x="229" y="702" on="1"/>
        <pt x="180" y="702" on="0"/>
        <pt x="119" y="764" on="0"/>
        <pt x="119" y="813" on="1"/>
        <pt x="119" y="1454" on="1"/>
        <pt x="119" y="1503" on="0"/>
        <pt x="180" y="1565" on="0"/>
        <pt x="229" y="1565" on="1"/>
        <pt x="629" y="1565" on="1"/>
        <pt x="678" y="1565" on="0"/>
        <pt x="739" y="1503" on="0"/>
        <pt x="739" y="1454" on="1"/>
      </contour>
      <contour>
        <pt x="600" y="823" on="1"/>
        <pt x="600" y="1442" on="1"/>
        <pt x="258" y="1442" on="1"/>
        <pt x="258" y="823" on="1"/>
      </contour>
    </TTGlyph>
    <TTGlyph name="notequal" xMin="102" yMin="69" xMax="801" yMax="1197">
      <contour>
        <pt x="801" y="391" on="1"/>
        <pt x="454" y="391" on="1"/>
        <pt x="374" y="69" on="1"/>
        <pt x="257" y="98" on="1"/>
        <pt x="329" y="391" on="1"/>
        <pt x="102" y="391" on="1"/>
        <pt x="102" y="510" on="1"/>
        <pt x="359" y="510" on="1"/>
        <pt x="420" y="756" on="1"/>
        <pt x="102" y="756" on="1"/>
        <pt x="102" y="877" on="1"/>
        <pt x="450" y="877" on="1"/>
        <pt x="529" y="1197" on="1"/>
        <pt x="646" y="1168" on="1"/>
        <pt x="574" y="877" on="1"/>
        <pt x="801" y="877" on="1"/>
        <pt x="801" y="756" on="1"/>
        <pt x="544" y="756" on="1"/>
        <pt x="483" y="510" on="1"/>
        <pt x="801" y="510" on="1"/>
      </contour>
    </TTGlyph>
    <TTGlyph name="ntilde" xMin="109" yMin="0" xMax="668" yMax="1255">
      <component glyphName="n" x="0" y="0" flags="0x214"/>
      <component glyphName="tilde" x="-22" y="0" flags="0x14"/>
    </TTGlyph>
    <TTGlyph name="numbersign" xMin="51" yMin="0" xMax="1016" yMax="1565">
      <contour>
        <pt x="1016" y="1022" on="1"/>
        <pt x="821" y="1022" on="1"/>
        <pt x="737" y="543" on="1"/>
        <pt x="944" y="543" on="1"/>
        <pt x="944" y="428" on="1"/>
        <pt x="717" y="428" on="1"/>
        <pt x="641" y="0" on="1"/>
        <pt x="514" y="0" on="1"/>
        <pt x="592" y="428" on="1"/>
        <pt x="350" y="428" on="1"/>
        <pt x="276" y="0" on="1"/>
        <pt x="150" y="0" on="1"/>
        <pt x="225" y="428" on="1"/>
        <pt x="51" y="428" on="1"/>
        <pt x="51" y="543" on="1"/>
        <pt x="246" y="543" on="1"/>
        <pt x="330" y="1022" on="1"/>
        <pt x="123" y="1022" on="1"/>
        <pt x="123" y="1137" on="1"/>
        <pt x="350" y="1137" on="1"/>
        <pt x="426" y="1565" on="1"/>
        <pt x="553" y="1565" on="1"/>
        <pt x="475" y="1137" on="1"/>
        <pt x="717" y="1137" on="1"/>
        <pt x="791" y="1565" on="1"/>
        <pt x="918" y="1565" on="1"/>
        <pt x="842" y="1137" on="1"/>
        <pt x="1016" y="1137" on="1"/>
      </contour>
      <contour>
        <pt x="696" y="1022" on="1"/>
        <pt x="455" y="1022" on="1"/>
        <pt x="371" y="543" on="1"/>
        <pt x="610" y="543" on="1"/>
      </contour>
    </TTGlyph>
    <TTGlyph name="o" xMin="109" yMin="0" xMax="668" yMax="973">
      <contour>
        <pt x="668" y="113" on="1"/>
        <pt x="668" y="0" on="0"/>
        <pt x="555" y="0" on="1"/>
        <pt x="221" y="0" on="1"/>
        <pt x="109" y="0" on="0"/>
        <pt x="109" y="113" on="1"/>
        <pt x="109" y="860" on="1"/>
        <pt x="109" y="973" on="0"/>
        <pt x="221" y="973" on="1"/>
        <pt x="555" y="973" on="1"/>
        <pt x="668" y="973" on="0"/>
        <pt x="668" y="860" on="1"/>
      </contour>
      <contour>
        <pt x="535" y="117" on="1"/>
        <pt x="535" y="856" on="1"/>
        <pt x="242" y="856" on="1"/>
        <pt x="242" y="117" on="1"/>
      </contour>
    </TTGlyph>
    <TTGlyph name="oacute" xMin="109" yMin="0" xMax="668" yMax="1294">
      <component glyphName="o" x="0" y="0" flags="0x214"/>
      <component glyphName="acute" x="80" y="0" flags="0x14"/>
    </TTGlyph>
    <TTGlyph name="ocircumflex" xMin="109" yMin="0" xMax="668" yMax="1294">
      <component glyphName="o" x="0" y="0" flags="0x214"/>
      <component glyphName="circumflex" x="-19" y="0" flags="0x14"/>
    </TTGlyph>
    <TTGlyph name="odieresis" xMin="109" yMin="0" xMax="668" yMax="1210">
      <component glyphName="o" x="0" y="0" flags="0x214"/>
      <component glyphName="dieresis" x="-21" y="0" flags="0x14"/>
    </TTGlyph>
    <TTGlyph name="oe" xMin="109" yMin="0" xMax="1065" yMax="973">
      <contour>
        <pt x="1065" y="113" on="1"/>
        <pt x="1065" y="0" on="0"/>
        <pt x="952" y="0" on="1"/>
        <pt x="221" y="0" on="1"/>
        <pt x="109" y="0" on="0"/>
        <pt x="109" y="113" on="1"/>
        <pt x="109" y="860" on="1"/>
        <pt x="109" y="973" on="0"/>
        <pt x="221" y="973" on="1"/>
        <pt x="952" y="973" on="1"/>
        <pt x="1065" y="973" on="0"/>
        <pt x="1065" y="860" on="1"/>
        <pt x="1065" y="510" on="1"/>
        <pt x="1018" y="463" on="1"/>
        <pt x="655" y="463" on="1"/>
        <pt x="655" y="111" on="1"/>
        <pt x="938" y="111" on="1"/>
        <pt x="938" y="289" on="1"/>
        <pt x="1065" y="289" on="1"/>
      </contour>
      <contour>
        <pt x="938" y="569" on="1"/>
        <pt x="938" y="862" on="1"/>
        <pt x="655" y="862" on="1"/>
        <pt x="655" y="569" on="1"/>
      </contour>
      <contour>
        <pt x="530" y="111" on="1"/>
        <pt x="530" y="862" on="1"/>
        <pt x="240" y="862" on="1"/>
        <pt x="240" y="111" on="1"/>
      </contour>
    </TTGlyph>
    <TTGlyph name="ogonek" xMin="225" yMin="-369" xMax="578" yMax="20">
      <contour>
        <pt x="578" y="-369" on="1"/>
        <pt x="305" y="-369" on="1"/>
        <pt x="225" y="-369" on="0"/>
        <pt x="225" y="-289" on="1"/>
        <pt x="225" y="-172" on="1"/>
        <pt x="225" y="-119" on="0"/>
        <pt x="264" y="-82" on="1"/>
        <pt x="371" y="20" on="1"/>
        <pt x="500" y="20" on="1"/>
        <pt x="500" y="12" on="1"/>
        <pt x="338" y="-150" on="1"/>
        <pt x="338" y="-274" on="1"/>
        <pt x="578" y="-274" on="1"/>
      </contour>
    </TTGlyph>
    <TTGlyph name="ograve" xMin="109" yMin="0" xMax="668" yMax="1294">
      <component glyphName="o" x="0" y="0" flags="0x214"/>
      <component glyphName="grave" x="-123" y="0" flags="0x14"/>
    </TTGlyph>
    <TTGlyph name="one" xMin="80" yMin="0" xMax="281" yMax="1565">
      <contour>
        <pt x="281" y="0" on="1"/>
        <pt x="141" y="0" on="1"/>
        <pt x="141" y="1085" on="1"/>
        <pt x="80" y="1085" on="1"/>
        <pt x="80" y="1090" on="1"/>
        <pt x="168" y="1565" on="1"/>
        <pt x="281" y="1565" on="1"/>
      </contour>
    </TTGlyph>
    <TTGlyph name="onehalf" xMin="-36" yMin="-6" xMax="1075" yMax="1565">
      <component glyphName="onesuperior" x="3" y="0" flags="0x14"/>
      <component glyphName="fraction" x="290" y="-6" flags="0x14"/>
      <component glyphName=".notdef#45" x="504" y="0" flags="0x14"/>
    </TTGlyph>
    <TTGlyph name="onequarter" xMin="29" yMin="0" xMax="1095" yMax="1565">
      <component glyphName="onesuperior" x="3" y="0" flags="0x14"/>
      <component glyphName="fraction" x="355" y="0" flags="0x14"/>
      <component glyphName=".notdef#47" x="532" y="0" flags="0x14"/>
    </TTGlyph>
    <TTGlyph name="onesuperior" xMin="84" yMin="769" xMax="268" yMax="1565">
      <contour>
        <pt x="268" y="769" on="1"/>
        <pt x="137" y="769" on="1"/>
        <pt x="137" y="1167" on="1"/>
        <pt x="84" y="1167" on="1"/>
        <pt x="171" y="1565" on="1"/>
        <pt x="268" y="1565" on="1"/>
      </contour>
    </TTGlyph>
    <TTGlyph name="ordfeminine" xMin="113" yMin="559" xMax="557" yMax="1565">
      <contour>
        <pt x="557" y="786" on="1"/>
        <pt x="442" y="786" on="1"/>
        <pt x="442" y="809" on="1"/>
        <pt x="214" y="782" on="0"/>
        <pt x="199" y="782" on="1"/>
        <pt x="113" y="782" on="0"/>
        <pt x="113" y="868" on="1"/>
        <pt x="113" y="1155" on="1"/>
        <pt x="113" y="1243" on="0"/>
        <pt x="201" y="1243" on="1"/>
        <pt x="444" y="1243" on="1"/>
        <pt x="444" y="1468" on="1"/>
        <pt x="229" y="1468" on="1"/>
        <pt x="229" y="1343" on="1"/>
        <pt x="119" y="1343" on="1"/>
        <pt x="119" y="1475" on="1"/>
        <pt x="119" y="1565" on="0"/>
        <pt x="209" y="1565" on="1"/>
        <pt x="465" y="1565" on="1"/>
        <pt x="557" y="1565" on="0"/>
        <pt x="557" y="1475" on="1"/>
      </contour>
      <contour>
        <pt x="444" y="891" on="1"/>
        <pt x="444" y="1153" on="1"/>
        <pt x="221" y="1153" on="1"/>
        <pt x="221" y="885" on="1"/>
      </contour>
      <contour>
        <pt x="557" y="559" on="1"/>
        <pt x="113" y="559" on="1"/>
        <pt x="113" y="657" on="1"/>
        <pt x="557" y="657" on="1"/>
      </contour>
    </TTGlyph>
    <TTGlyph name="ordmasculine" xMin="113" yMin="559" xMax="561" yMax="1565">
      <contour>
        <pt x="561" y="877" on="1"/>
        <pt x="561" y="786" on="0"/>
        <pt x="471" y="786" on="1"/>
        <pt x="205" y="786" on="1"/>
        <pt x="113" y="786" on="0"/>
        <pt x="113" y="877" on="1"/>
        <pt x="113" y="1475" on="1"/>
        <pt x="113" y="1565" on="0"/>
        <pt x="205" y="1565" on="1"/>
        <pt x="471" y="1565" on="1"/>
        <pt x="561" y="1565" on="0"/>
        <pt x="561" y="1475" on="1"/>
      </contour>
      <contour>
        <pt x="449" y="887" on="1"/>
        <pt x="449" y="1464" on="1"/>
        <pt x="225" y="1464" on="1"/>
        <pt x="225" y="887" on="1"/>
      </contour>
      <contour>
        <pt x="561" y="559" on="1"/>
        <pt x="113" y="559" on="1"/>
        <pt x="113" y="657" on="1"/>
        <pt x="561" y="657" on="1"/>
      </contour>
    </TTGlyph>
    <TTGlyph name="oslash" xMin="18" yMin="0" xMax="764" yMax="975">
      <component glyphName="o" x="0" y="0" flags="0x214"/>
      <component glyphName=".notdef#7" x="0" y="0" flags="0x14"/>
    </TTGlyph>
    <TTGlyph name="otilde" xMin="109" yMin="0" xMax="668" yMax="1255">
      <component glyphName="o" x="0" y="0" flags="0x214"/>
      <component glyphName="tilde" x="-21" y="0" flags="0x14"/>
    </TTGlyph>
    <TTGlyph name="p" xMin="109" yMin="-369" xMax="668" yMax="979">
      <contour>
        <pt x="668" y="209" on="1"/>
        <pt x="668" y="119" on="0"/>
        <pt x="550" y="0" on="0"/>
        <pt x="461" y="0" on="1"/>
        <pt x="242" y="0" on="1"/>
        <pt x="242" y="-369" on="1"/>
        <pt x="109" y="-369" on="1"/>
        <pt x="109" y="973" on="1"/>
        <pt x="242" y="973" on="1"/>
        <pt x="242" y="946" on="1"/>
        <pt x="321" y="956" on="0"/>
        <pt x="400" y="966" on="1"/>
        <pt x="500" y="979" on="0"/>
        <pt x="557" y="979" on="1"/>
        <pt x="668" y="979" on="0"/>
        <pt x="668" y="870" on="1"/>
      </contour>
      <contour>
        <pt x="535" y="229" on="1"/>
        <pt x="535" y="854" on="1"/>
        <pt x="242" y="846" on="1"/>
        <pt x="242" y="117" on="1"/>
        <pt x="426" y="117" on="1"/>
        <pt x="535" y="117" on="0"/>
      </contour>
    </TTGlyph>
    <TTGlyph name="paragraph" xMin="96" yMin="0" xMax="823" yMax="1565">
      <contour>
        <pt x="823" y="0" on="1"/>
        <pt x="690" y="0" on="1"/>
        <pt x="690" y="621" on="1"/>
        <pt x="514" y="621" on="1"/>
        <pt x="514" y="0" on="1"/>
        <pt x="381" y="0" on="1"/>
        <pt x="381" y="621" on="1"/>
        <pt x="207" y="621" on="1"/>
        <pt x="158" y="621" on="0"/>
        <pt x="96" y="684" on="0"/>
        <pt x="96" y="733" on="1"/>
        <pt x="96" y="1454" on="1"/>
        <pt x="96" y="1503" on="0"/>
        <pt x="158" y="1565" on="0"/>
        <pt x="207" y="1565" on="1"/>
        <pt x="823" y="1565" on="1"/>
      </contour>
      <contour>
        <pt x="690" y="745" on="1"/>
        <pt x="690" y="1442" on="1"/>
        <pt x="424" y="1442" on="1"/>
        <pt x="424" y="745" on="1"/>
      </contour>
    </TTGlyph>
    <TTGlyph name="parenleft" xMin="104" yMin="-201" xMax="473" yMax="1565">
      <contour>
        <pt x="473" y="-201" on="1"/>
        <pt x="352" y="-201" on="1"/>
        <pt x="104" y="202" on="0"/>
        <pt x="104" y="682" on="1"/>
        <pt x="104" y="1162" on="0"/>
        <pt x="352" y="1565" on="1"/>
        <pt x="473" y="1565" on="1"/>
        <pt x="473" y="1554" on="1"/>
        <pt x="351" y="1333" on="0"/>
        <pt x="298" y="1134" on="1"/>
        <pt x="244" y="930" on="0"/>
        <pt x="244" y="682" on="1"/>
        <pt x="244" y="434" on="0"/>
        <pt x="298" y="230" on="1"/>
        <pt x="351" y="31" on="0"/>
        <pt x="473" y="-190" on="1"/>
      </contour>
    </TTGlyph>
    <TTGlyph name="parenright" xMin="68" yMin="-201" xMax="434" yMax="1565">
      <contour>
        <pt x="434" y="682" on="1"/>
        <pt x="434" y="202" on="0"/>
        <pt x="186" y="-201" on="1"/>
        <pt x="68" y="-201" on="1"/>
        <pt x="68" y="-190" on="1"/>
        <pt x="190" y="31" on="0"/>
        <pt x="242" y="230" on="1"/>
        <pt x="297" y="434" on="0"/>
        <pt x="297" y="682" on="1"/>
        <pt x="297" y="930" on="0"/>
        <pt x="242" y="1134" on="1"/>
        <pt x="190" y="1333" on="0"/>
        <pt x="68" y="1554" on="1"/>
        <pt x="68" y="1565" on="1"/>
        <pt x="186" y="1565" on="1"/>
        <pt x="434" y="1162" on="0"/>
      </contour>
    </TTGlyph>
    <TTGlyph name="partialdiff" xMin="124" yMin="0" xMax="745" yMax="1565">
      <contour>
        <pt x="745" y="859" on="1"/>
        <pt x="745" y="111" on="1"/>
        <pt x="745" y="62" on="0"/>
        <pt x="683" y="0" on="0"/>
        <pt x="634" y="0" on="1"/>
        <pt x="235" y="0" on="1"/>
        <pt x="186" y="0" on="0"/>
        <pt x="124" y="62" on="0"/>
        <pt x="124" y="111" on="1"/>
        <pt x="124" y="752" on="1"/>
        <pt x="124" y="801" on="0"/>
        <pt x="186" y="862" on="0"/>
        <pt x="235" y="862" on="1"/>
        <pt x="592" y="862" on="1"/>
        <pt x="265" y="1565" on="1"/>
        <pt x="416" y="1565" on="1"/>
      </contour>
      <contour>
        <pt x="605" y="123" on="1"/>
        <pt x="605" y="741" on="1"/>
        <pt x="263" y="741" on="1"/>
        <pt x="263" y="123" on="1"/>
      </contour>
    </TTGlyph>
    <TTGlyph name="percent" xMin="60" yMin="0" xMax="1284" yMax="1565">
      <contour>
        <pt x="1157" y="1556" on="1"/>
        <pt x="297" y="0" on="1"/>
        <pt x="182" y="0" on="1"/>
        <pt x="182" y="8" on="1"/>
        <pt x="1043" y="1565" on="1"/>
        <pt x="1157" y="1565" on="1"/>
      </contour>
      <contour>
        <pt x="1284" y="102" on="1"/>
        <pt x="1284" y="60" on="0"/>
        <pt x="1227" y="0" on="0"/>
        <pt x="1186" y="0" on="1"/>
        <pt x="895" y="0" on="1"/>
        <pt x="858" y="0" on="0"/>
        <pt x="799" y="65" on="0"/>
        <pt x="799" y="102" on="1"/>
        <pt x="799" y="693" on="1"/>
        <pt x="799" y="729" on="0"/>
        <pt x="859" y="796" on="0"/>
        <pt x="895" y="796" on="1"/>
        <pt x="1186" y="796" on="1"/>
        <pt x="1225" y="796" on="0"/>
        <pt x="1284" y="732" on="0"/>
        <pt x="1284" y="693" on="1"/>
      </contour>
      <contour>
        <pt x="1163" y="112" on="1"/>
        <pt x="1163" y="679" on="1"/>
        <pt x="920" y="679" on="1"/>
        <pt x="920" y="112" on="1"/>
      </contour>
      <contour>
        <pt x="545" y="871" on="1"/>
        <pt x="545" y="829" on="0"/>
        <pt x="488" y="769" on="0"/>
        <pt x="447" y="769" on="1"/>
        <pt x="156" y="769" on="1"/>
        <pt x="119" y="769" on="0"/>
        <pt x="60" y="834" on="0"/>
        <pt x="60" y="871" on="1"/>
        <pt x="60" y="1462" on="1"/>
        <pt x="60" y="1498" on="0"/>
        <pt x="120" y="1565" on="0"/>
        <pt x="156" y="1565" on="1"/>
        <pt x="447" y="1565" on="1"/>
        <pt x="486" y="1565" on="0"/>
        <pt x="545" y="1501" on="0"/>
        <pt x="545" y="1462" on="1"/>
      </contour>
      <contour>
        <pt x="424" y="881" on="1"/>
        <pt x="424" y="1448" on="1"/>
        <pt x="181" y="1448" on="1"/>
        <pt x="181" y="881" on="1"/>
      </contour>
    </TTGlyph>
    <TTGlyph name="period" xMin="94" yMin="0" xMax="246" yMax="176">
      <contour>
        <pt x="246" y="0" on="1"/>
        <pt x="94" y="0" on="1"/>
        <pt x="94" y="176" on="1"/>
        <pt x="246" y="176" on="1"/>
      </contour>
    </TTGlyph>
    <TTGlyph name="periodcentered" xMin="94" yMin="522" xMax="246" yMax="700">
      <contour>
        <pt x="246" y="522" on="1"/>
        <pt x="94" y="522" on="1"/>
        <pt x="94" y="700" on="1"/>
        <pt x="246" y="700" on="1"/>
      </contour>
    </TTGlyph>
    <TTGlyph name="perthousand" xMin="86" yMin="0" xMax="1889" yMax="1569">
      <contour>
        <pt x="571" y="871" on="1"/>
        <pt x="571" y="829" on="0"/>
        <pt x="514" y="769" on="0"/>
        <pt x="473" y="769" on="1"/>
        <pt x="182" y="769" on="1"/>
        <pt x="145" y="769" on="0"/>
        <pt x="86" y="834" on="0"/>
        <pt x="86" y="871" on="1"/>
        <pt x="86" y="1462" on="1"/>
        <pt x="86" y="1498" on="0"/>
        <pt x="146" y="1565" on="0"/>
        <pt x="182" y="1565" on="1"/>
        <pt x="473" y="1565" on="1"/>
        <pt x="512" y="1565" on="0"/>
        <pt x="571" y="1501" on="0"/>
        <pt x="571" y="1462" on="1"/>
      </contour>
      <contour>
        <pt x="450" y="881" on="1"/>
        <pt x="450" y="1448" on="1"/>
        <pt x="207" y="1448" on="1"/>
        <pt x="207" y="881" on="1"/>
      </contour>
      <contour>
        <pt x="1177" y="1560" on="1"/>
        <pt x="317" y="4" on="1"/>
        <pt x="202" y="4" on="1"/>
        <pt x="202" y="12" on="1"/>
        <pt x="1063" y="1569" on="1"/>
        <pt x="1177" y="1569" on="1"/>
      </contour>
      <contour>
        <pt x="1289" y="102" on="1"/>
        <pt x="1289" y="60" on="0"/>
        <pt x="1232" y="0" on="0"/>
        <pt x="1191" y="0" on="1"/>
        <pt x="900" y="0" on="1"/>
        <pt x="863" y="0" on="0"/>
        <pt x="804" y="65" on="0"/>
        <pt x="804" y="102" on="1"/>
        <pt x="804" y="693" on="1"/>
        <pt x="804" y="729" on="0"/>
        <pt x="864" y="796" on="0"/>
        <pt x="900" y="796" on="1"/>
        <pt x="1191" y="796" on="1"/>
        <pt x="1230" y="796" on="0"/>
        <pt x="1289" y="732" on="0"/>
        <pt x="1289" y="693" on="1"/>
      </contour>
      <contour>
        <pt x="1168" y="112" on="1"/>
        <pt x="1168" y="679" on="1"/>
        <pt x="925" y="679" on="1"/>
        <pt x="925" y="112" on="1"/>
      </contour>
      <contour>
        <pt x="1889" y="102" on="1"/>
        <pt x="1889" y="60" on="0"/>
        <pt x="1832" y="0" on="0"/>
        <pt x="1791" y="0" on="1"/>
        <pt x="1500" y="0" on="1"/>
        <pt x="1463" y="0" on="0"/>
        <pt x="1404" y="65" on="0"/>
        <pt x="1404" y="102" on="1"/>
        <pt x="1404" y="693" on="1"/>
        <pt x="1404" y="729" on="0"/>
        <pt x="1464" y="796" on="0"/>
        <pt x="1500" y="796" on="1"/>
        <pt x="1791" y="796" on="1"/>
        <pt x="1830" y="796" on="0"/>
        <pt x="1889" y="732" on="0"/>
        <pt x="1889" y="693" on="1"/>
      </contour>
      <contour>
        <pt x="1768" y="112" on="1"/>
        <pt x="1768" y="679" on="1"/>
        <pt x="1525" y="679" on="1"/>
        <pt x="1525" y="112" on="1"/>
      </contour>
    </TTGlyph>
    <TTGlyph name="pi" xMin="39" yMin="0" xMax="764" yMax="893">
      <contour>
        <pt x="764" y="770" on="1"/>
        <pt x="616" y="770" on="1"/>
        <pt x="616" y="0" on="1"/>
        <pt x="481" y="0" on="1"/>
        <pt x="481" y="770" on="1"/>
        <pt x="318" y="770" on="1"/>
        <pt x="318" y="0" on="1"/>
        <pt x="183" y="0" on="1"/>
        <pt x="183" y="770" on="1"/>
        <pt x="39" y="770" on="1"/>
        <pt x="39" y="893" on="1"/>
        <pt x="764" y="893" on="1"/>
      </contour>
    </TTGlyph>
    <TTGlyph name="plus" xMin="70" yMin="346" xMax="769" yMax="1028">
      <contour>
        <pt x="769" y="629" on="1"/>
        <pt x="481" y="629" on="1"/>
        <pt x="481" y="346" on="1"/>
        <pt x="358" y="346" on="1"/>
        <pt x="358" y="629" on="1"/>
        <pt x="70" y="629" on="1"/>
        <pt x="70" y="745" on="1"/>
        <pt x="358" y="745" on="1"/>
        <pt x="358" y="1028" on="1"/>
        <pt x="481" y="1028" on="1"/>
        <pt x="481" y="745" on="1"/>
        <pt x="769" y="745" on="1"/>
      </contour>
    </TTGlyph>
    <TTGlyph name="plusminus" xMin="68" yMin="190" xMax="772" yMax="1028">
      <contour>
        <pt x="768" y="650" on="1"/>
        <pt x="479" y="650" on="1"/>
        <pt x="479" y="396" on="1"/>
        <pt x="360" y="396" on="1"/>
        <pt x="360" y="650" on="1"/>
        <pt x="70" y="650" on="1"/>
        <pt x="70" y="764" on="1"/>
        <pt x="360" y="764" on="1"/>
        <pt x="360" y="1028" on="1"/>
        <pt x="479" y="1028" on="1"/>
        <pt x="479" y="764" on="1"/>
        <pt x="768" y="764" on="1"/>
      </contour>
      <contour>
        <pt x="772" y="190" on="1"/>
        <pt x="68" y="190" on="1"/>
        <pt x="68" y="313" on="1"/>
        <pt x="772" y="313" on="1"/>
      </contour>
    </TTGlyph>
    <TTGlyph name="product" xMin="39" yMin="0" xMax="764" yMax="1565">
      <contour>
        <pt x="764" y="1442" on="1"/>
        <pt x="616" y="1442" on="1"/>
        <pt x="616" y="0" on="1"/>
        <pt x="481" y="0" on="1"/>
        <pt x="481" y="1442" on="1"/>
        <pt x="318" y="1442" on="1"/>
        <pt x="318" y="0" on="1"/>
        <pt x="183" y="0" on="1"/>
        <pt x="183" y="1442" on="1"/>
        <pt x="39" y="1442" on="1"/>
        <pt x="39" y="1565" on="1"/>
        <pt x="764" y="1565" on="1"/>
      </contour>
    </TTGlyph>
    <TTGlyph name="q" xMin="104" yMin="-369" xMax="662" yMax="979">
      <contour>
        <pt x="662" y="-369" on="1"/>
        <pt x="530" y="-369" on="1"/>
        <pt x="530" y="0" on="1"/>
        <pt x="311" y="0" on="1"/>
        <pt x="222" y="0" on="0"/>
        <pt x="104" y="119" on="0"/>
        <pt x="104" y="209" on="1"/>
        <pt x="104" y="778" on="1"/>
        <pt x="104" y="864" on="0"/>
        <pt x="208" y="979" on="0"/>
        <pt x="293" y="979" on="1"/>
        <pt x="316" y="979" on="0"/>
        <pt x="530" y="946" on="1"/>
        <pt x="530" y="973" on="1"/>
        <pt x="662" y="973" on="1"/>
      </contour>
      <contour>
        <pt x="530" y="117" on="1"/>
        <pt x="530" y="852" on="1"/>
        <pt x="372" y="862" on="0"/>
        <pt x="346" y="862" on="1"/>
        <pt x="236" y="862" on="0"/>
        <pt x="236" y="750" on="1"/>
        <pt x="236" y="229" on="1"/>
        <pt x="236" y="117" on="0"/>
        <pt x="346" y="117" on="1"/>
      </contour>
    </TTGlyph>
    <TTGlyph name="question" xMin="90" yMin="0" xMax="688" yMax="1565">
      <contour>
        <pt x="688" y="1102" on="1"/>
        <pt x="688" y="1042" on="0"/>
        <pt x="657" y="995" on="1"/>
        <pt x="453" y="684" on="1"/>
        <pt x="453" y="352" on="1"/>
        <pt x="313" y="352" on="1"/>
        <pt x="313" y="651" on="1"/>
        <pt x="313" y="717" on="0"/>
        <pt x="342" y="760" on="1"/>
        <pt x="549" y="1069" on="1"/>
        <pt x="549" y="1442" on="1"/>
        <pt x="229" y="1442" on="1"/>
        <pt x="229" y="1090" on="1"/>
        <pt x="90" y="1090" on="1"/>
        <pt x="90" y="1454" on="1"/>
        <pt x="90" y="1503" on="0"/>
        <pt x="154" y="1565" on="0"/>
        <pt x="203" y="1565" on="1"/>
        <pt x="575" y="1565" on="1"/>
        <pt x="625" y="1565" on="0"/>
        <pt x="688" y="1503" on="0"/>
        <pt x="688" y="1454" on="1"/>
      </contour>
      <contour>
        <pt x="459" y="0" on="1"/>
        <pt x="307" y="0" on="1"/>
        <pt x="307" y="176" on="1"/>
        <pt x="459" y="176" on="1"/>
      </contour>
    </TTGlyph>
    <TTGlyph name="questiondown" xMin="94" yMin="0" xMax="692" yMax="1565">
      <contour>
        <pt x="475" y="1389" on="1"/>
        <pt x="324" y="1389" on="1"/>
        <pt x="324" y="1565" on="1"/>
        <pt x="475" y="1565" on="1"/>
      </contour>
      <contour>
        <pt x="692" y="111" on="1"/>
        <pt x="692" y="62" on="0"/>
        <pt x="629" y="0" on="0"/>
        <pt x="580" y="0" on="1"/>
        <pt x="207" y="0" on="1"/>
        <pt x="158" y="0" on="0"/>
        <pt x="94" y="62" on="0"/>
        <pt x="94" y="111" on="1"/>
        <pt x="94" y="463" on="1"/>
        <pt x="94" y="523" on="0"/>
        <pt x="125" y="569" on="1"/>
        <pt x="330" y="881" on="1"/>
        <pt x="330" y="1212" on="1"/>
        <pt x="469" y="1212" on="1"/>
        <pt x="469" y="913" on="1"/>
        <pt x="469" y="848" on="0"/>
        <pt x="440" y="805" on="1"/>
        <pt x="233" y="496" on="1"/>
        <pt x="233" y="123" on="1"/>
        <pt x="553" y="123" on="1"/>
        <pt x="553" y="475" on="1"/>
        <pt x="692" y="475" on="1"/>
      </contour>
    </TTGlyph>
    <TTGlyph name="quotedbl" xMin="96" yMin="1073" xMax="530" yMax="1565">
      <contour>
        <pt x="530" y="1565" on="1"/>
        <pt x="502" y="1073" on="1"/>
        <pt x="414" y="1073" on="1"/>
        <pt x="385" y="1565" on="1"/>
      </contour>
      <contour>
        <pt x="244" y="1565" on="1"/>
        <pt x="213" y="1073" on="1"/>
        <pt x="127" y="1073" on="1"/>
        <pt x="96" y="1565" on="1"/>
      </contour>
    </TTGlyph>
    <TTGlyph name="quotedblbase" xMin="88" yMin="-240" xMax="561" yMax="252">
      <contour>
        <pt x="561" y="252" on="1"/>
        <pt x="465" y="-240" on="1"/>
        <pt x="375" y="-240" on="1"/>
        <pt x="412" y="252" on="1"/>
      </contour>
      <contour>
        <pt x="272" y="252" on="1"/>
        <pt x="178" y="-240" on="1"/>
        <pt x="88" y="-240" on="1"/>
        <pt x="125" y="252" on="1"/>
      </contour>
    </TTGlyph>
    <TTGlyph name="quotedblleft" xMin="68" yMin="1073" xMax="541" yMax="1565">
      <contour>
        <pt x="541" y="1565" on="1"/>
        <pt x="504" y="1073" on="1"/>
        <pt x="356" y="1073" on="1"/>
        <pt x="451" y="1565" on="1"/>
      </contour>
      <contour>
        <pt x="254" y="1565" on="1"/>
        <pt x="217" y="1073" on="1"/>
        <pt x="68" y="1073" on="1"/>
        <pt x="164" y="1565" on="1"/>
      </contour>
    </TTGlyph>
    <TTGlyph name="quotedblright" xMin="88" yMin="1073" xMax="561" yMax="1565">
      <contour>
        <pt x="561" y="1565" on="1"/>
        <pt x="465" y="1073" on="1"/>
        <pt x="375" y="1073" on="1"/>
        <pt x="412" y="1565" on="1"/>
      </contour>
      <contour>
        <pt x="272" y="1565" on="1"/>
        <pt x="178" y="1073" on="1"/>
        <pt x="88" y="1073" on="1"/>
        <pt x="125" y="1565" on="1"/>
      </contour>
    </TTGlyph>
    <TTGlyph name="quoteleft" xMin="68" yMin="1073" xMax="254" yMax="1565">
      <contour>
        <pt x="254" y="1565" on="1"/>
        <pt x="217" y="1073" on="1"/>
        <pt x="68" y="1073" on="1"/>
        <pt x="164" y="1565" on="1"/>
      </contour>
    </TTGlyph>
    <TTGlyph name="quoteright" xMin="88" yMin="1073" xMax="272" yMax="1565">
      <contour>
        <pt x="272" y="1565" on="1"/>
        <pt x="178" y="1073" on="1"/>
        <pt x="88" y="1073" on="1"/>
        <pt x="125" y="1565" on="1"/>
      </contour>
    </TTGlyph>
    <TTGlyph name="quotesinglbase" xMin="70" yMin="-240" xMax="256" yMax="252">
      <contour>
        <pt x="256" y="252" on="1"/>
        <pt x="160" y="-240" on="1"/>
        <pt x="70" y="-240" on="1"/>
        <pt x="106" y="252" on="1"/>
      </contour>
    </TTGlyph>
    <TTGlyph name="quotesingle" xMin="96" yMin="1073" xMax="244" yMax="1565">
      <contour>
        <pt x="244" y="1565" on="1"/>
        <pt x="213" y="1073" on="1"/>
        <pt x="127" y="1073" on="1"/>
        <pt x="96" y="1565" on="1"/>
      </contour>
    </TTGlyph>
    <TTGlyph name="r" xMin="109" yMin="0" xMax="618" yMax="979">
      <contour>
        <pt x="618" y="653" on="1"/>
        <pt x="487" y="653" on="1"/>
        <pt x="487" y="854" on="1"/>
        <pt x="242" y="846" on="1"/>
        <pt x="242" y="0" on="1"/>
        <pt x="109" y="0" on="1"/>
        <pt x="109" y="973" on="1"/>
        <pt x="242" y="973" on="1"/>
        <pt x="242" y="946" on="1"/>
        <pt x="308" y="956" on="0"/>
        <pt x="375" y="967" on="1"/>
        <pt x="455" y="979" on="0"/>
        <pt x="508" y="979" on="1"/>
        <pt x="618" y="979" on="0"/>
        <pt x="618" y="870" on="1"/>
      </contour>
    </TTGlyph>
    <TTGlyph name="radical" xMin="35" yMin="-2" xMax="844" yMax="1565">
      <contour>
        <pt x="844" y="1565" on="1"/>
        <pt x="416" y="-2" on="1"/>
        <pt x="297" y="-2" on="1"/>
        <pt x="35" y="541" on="1"/>
        <pt x="180" y="541" on="1"/>
        <pt x="344" y="164" on="1"/>
        <pt x="705" y="1565" on="1"/>
      </contour>
    </TTGlyph>
    <TTGlyph name="registered" xMin="125" yMin="0" xMax="1030" yMax="1565">
      <contour>
        <pt x="1030" y="66" on="1"/>
        <pt x="1030" y="0" on="0"/>
        <pt x="965" y="0" on="1"/>
        <pt x="190" y="0" on="1"/>
        <pt x="125" y="0" on="0"/>
        <pt x="125" y="66" on="1"/>
        <pt x="125" y="1499" on="1"/>
        <pt x="125" y="1565" on="0"/>
        <pt x="190" y="1565" on="1"/>
        <pt x="965" y="1565" on="1"/>
        <pt x="1030" y="1565" on="0"/>
        <pt x="1030" y="1499" on="1"/>
      </contour>
      <contour>
        <pt x="954" y="70" on="1"/>
        <pt x="954" y="1495" on="1"/>
        <pt x="201" y="1495" on="1"/>
        <pt x="201" y="70" on="1"/>
      </contour>
      <contour>
        <pt x="791" y="346" on="1"/>
        <pt x="686" y="346" on="1"/>
        <pt x="524" y="817" on="1"/>
        <pt x="545" y="848" on="1"/>
        <pt x="672" y="848" on="1"/>
        <pt x="672" y="1135" on="1"/>
        <pt x="487" y="1135" on="1"/>
        <pt x="487" y="346" on="1"/>
        <pt x="387" y="346" on="1"/>
        <pt x="387" y="1227" on="1"/>
        <pt x="702" y="1227" on="1"/>
        <pt x="772" y="1227" on="0"/>
        <pt x="772" y="1155" on="1"/>
        <pt x="772" y="829" on="1"/>
        <pt x="772" y="778" on="0"/>
        <pt x="731" y="765" on="1"/>
        <pt x="714" y="760" on="0"/>
        <pt x="647" y="760" on="1"/>
        <pt x="792" y="351" on="0"/>
      </contour>
    </TTGlyph>
    <TTGlyph name="ring" xMin="217" yMin="1059" xMax="602" yMax="1432">
      <contour>
        <pt x="602" y="1151" on="1"/>
        <pt x="602" y="1059" on="0"/>
        <pt x="510" y="1059" on="1"/>
        <pt x="309" y="1059" on="1"/>
        <pt x="217" y="1059" on="0"/>
        <pt x="217" y="1151" on="1"/>
        <pt x="217" y="1339" on="1"/>
        <pt x="217" y="1432" on="0"/>
        <pt x="309" y="1432" on="1"/>
        <pt x="510" y="1432" on="1"/>
        <pt x="602" y="1432" on="0"/>
        <pt x="602" y="1339" on="1"/>
      </contour>
      <contour>
        <pt x="500" y="1151" on="1"/>
        <pt x="500" y="1339" on="1"/>
        <pt x="319" y="1339" on="1"/>
        <pt x="319" y="1151" on="1"/>
      </contour>
    </TTGlyph>
    <TTGlyph name="s" xMin="102" yMin="0" xMax="633" yMax="973">
      <contour>
        <pt x="633" y="113" on="1"/>
        <pt x="633" y="0" on="0"/>
        <pt x="520" y="0" on="1"/>
        <pt x="215" y="0" on="1"/>
        <pt x="102" y="0" on="0"/>
        <pt x="102" y="113" on="1"/>
        <pt x="102" y="334" on="1"/>
        <pt x="233" y="334" on="1"/>
        <pt x="233" y="115" on="1"/>
        <pt x="502" y="115" on="1"/>
        <pt x="502" y="309" on="1"/>
        <pt x="154" y="594" on="1"/>
        <pt x="104" y="634" on="0"/>
        <pt x="104" y="698" on="1"/>
        <pt x="104" y="860" on="1"/>
        <pt x="104" y="973" on="0"/>
        <pt x="217" y="973" on="1"/>
        <pt x="518" y="973" on="1"/>
        <pt x="631" y="973" on="0"/>
        <pt x="631" y="860" on="1"/>
        <pt x="631" y="666" on="1"/>
        <pt x="502" y="666" on="1"/>
        <pt x="502" y="858" on="1"/>
        <pt x="233" y="858" on="1"/>
        <pt x="233" y="688" on="1"/>
        <pt x="584" y="403" on="1"/>
        <pt x="633" y="364" on="0"/>
        <pt x="633" y="297" on="1"/>
      </contour>
    </TTGlyph>
    <TTGlyph name="scaron" xMin="102" yMin="0" xMax="633" yMax="1294">
      <component glyphName="s" x="0" y="0" flags="0x214"/>
      <component glyphName="caron" x="-41" y="0" flags="0x14"/>
    </TTGlyph>
    <TTGlyph name="section" xMin="119" yMin="0" xMax="735" yMax="1565">
      <contour>
        <pt x="735" y="111" on="1"/>
        <pt x="735" y="62" on="0"/>
        <pt x="674" y="0" on="0"/>
        <pt x="625" y="0" on="1"/>
        <pt x="231" y="0" on="1"/>
        <pt x="182" y="0" on="0"/>
        <pt x="119" y="62" on="0"/>
        <pt x="119" y="111" on="1"/>
        <pt x="119" y="354" on="1"/>
        <pt x="256" y="354" on="1"/>
        <pt x="256" y="119" on="1"/>
        <pt x="600" y="119" on="1"/>
        <pt x="600" y="360" on="1"/>
        <pt x="184" y="592" on="1"/>
        <pt x="119" y="628" on="0"/>
        <pt x="119" y="700" on="1"/>
        <pt x="119" y="854" on="1"/>
        <pt x="119" y="926" on="0"/>
        <pt x="182" y="961" on="1"/>
        <pt x="317" y="1034" on="1"/>
        <pt x="184" y="1108" on="1"/>
        <pt x="119" y="1144" on="0"/>
        <pt x="119" y="1217" on="1"/>
        <pt x="119" y="1454" on="1"/>
        <pt x="119" y="1503" on="0"/>
        <pt x="182" y="1565" on="0"/>
        <pt x="231" y="1565" on="1"/>
        <pt x="625" y="1565" on="1"/>
        <pt x="674" y="1565" on="0"/>
        <pt x="735" y="1503" on="0"/>
        <pt x="735" y="1454" on="1"/>
        <pt x="735" y="1210" on="1"/>
        <pt x="600" y="1210" on="1"/>
        <pt x="600" y="1446" on="1"/>
        <pt x="256" y="1446" on="1"/>
        <pt x="256" y="1204" on="1"/>
        <pt x="670" y="973" on="1"/>
        <pt x="735" y="936" on="0"/>
        <pt x="735" y="864" on="1"/>
        <pt x="735" y="711" on="1"/>
        <pt x="735" y="639" on="0"/>
        <pt x="672" y="604" on="1"/>
        <pt x="539" y="530" on="1"/>
        <pt x="670" y="457" on="1"/>
        <pt x="735" y="420" on="0"/>
        <pt x="735" y="348" on="1"/>
      </contour>
      <contour>
        <pt x="608" y="690" on="1"/>
        <pt x="608" y="874" on="1"/>
        <pt x="428" y="975" on="1"/>
        <pt x="248" y="874" on="1"/>
        <pt x="248" y="690" on="1"/>
        <pt x="428" y="590" on="1"/>
      </contour>
    </TTGlyph>
    <TTGlyph name="semicolon" xMin="66" yMin="-111" xMax="252" yMax="852">
      <contour>
        <pt x="246" y="676" on="1"/>
        <pt x="94" y="676" on="1"/>
        <pt x="94" y="852" on="1"/>
        <pt x="246" y="852" on="1"/>
      </contour>
      <contour>
        <pt x="252" y="176" on="1"/>
        <pt x="162" y="-111" on="1"/>
        <pt x="66" y="-111" on="1"/>
        <pt x="94" y="176" on="1"/>
      </contour>
    </TTGlyph>
    <TTGlyph name="seven" xMin="72" yMin="0" xMax="692" yMax="1565">
      <contour>
        <pt x="692" y="1493" on="1"/>
        <pt x="356" y="0" on="1"/>
        <pt x="219" y="0" on="1"/>
        <pt x="545" y="1442" on="1"/>
        <pt x="211" y="1442" on="1"/>
        <pt x="211" y="1212" on="1"/>
        <pt x="72" y="1212" on="1"/>
        <pt x="72" y="1565" on="1"/>
        <pt x="692" y="1565" on="1"/>
        <pt x="692" y="1493" on="0"/>
      </contour>
    </TTGlyph>
    <TTGlyph name="six" xMin="125" yMin="0" xMax="745" yMax="1565">
      <contour>
        <pt x="745" y="111" on="1"/>
        <pt x="745" y="62" on="0"/>
        <pt x="684" y="0" on="0"/>
        <pt x="635" y="0" on="1"/>
        <pt x="236" y="0" on="1"/>
        <pt x="187" y="0" on="0"/>
        <pt x="125" y="62" on="0"/>
        <pt x="125" y="111" on="1"/>
        <pt x="125" y="1454" on="1"/>
        <pt x="125" y="1503" on="0"/>
        <pt x="187" y="1565" on="0"/>
        <pt x="236" y="1565" on="1"/>
        <pt x="631" y="1565" on="1"/>
        <pt x="680" y="1565" on="0"/>
        <pt x="741" y="1503" on="0"/>
        <pt x="741" y="1454" on="1"/>
        <pt x="741" y="1108" on="1"/>
        <pt x="602" y="1108" on="1"/>
        <pt x="602" y="1442" on="1"/>
        <pt x="264" y="1442" on="1"/>
        <pt x="264" y="862" on="1"/>
        <pt x="635" y="862" on="1"/>
        <pt x="684" y="862" on="0"/>
        <pt x="745" y="801" on="0"/>
        <pt x="745" y="752" on="1"/>
      </contour>
      <contour>
        <pt x="606" y="123" on="1"/>
        <pt x="606" y="741" on="1"/>
        <pt x="264" y="741" on="1"/>
        <pt x="264" y="123" on="1"/>
      </contour>
    </TTGlyph>
    <TTGlyph name="slash" xMin="45" yMin="0" xMax="840" yMax="1565">
      <contour>
        <pt x="840" y="1556" on="1"/>
        <pt x="178" y="0" on="1"/>
        <pt x="45" y="0" on="1"/>
        <pt x="45" y="8" on="1"/>
        <pt x="707" y="1565" on="1"/>
        <pt x="840" y="1565" on="1"/>
      </contour>
    </TTGlyph>
    <TTGlyph name="sterling" xMin="61" yMin="0" xMax="770" yMax="1565">
      <contour>
        <pt x="770" y="0" on="1"/>
        <pt x="61" y="0" on="1"/>
        <pt x="61" y="123" on="1"/>
        <pt x="176" y="123" on="1"/>
        <pt x="176" y="690" on="1"/>
        <pt x="61" y="690" on="1"/>
        <pt x="61" y="811" on="1"/>
        <pt x="176" y="811" on="1"/>
        <pt x="176" y="1454" on="1"/>
        <pt x="176" y="1503" on="0"/>
        <pt x="238" y="1565" on="0"/>
        <pt x="287" y="1565" on="1"/>
        <pt x="645" y="1565" on="1"/>
        <pt x="694" y="1565" on="0"/>
        <pt x="758" y="1503" on="0"/>
        <pt x="758" y="1454" on="1"/>
        <pt x="758" y="1090" on="1"/>
        <pt x="618" y="1090" on="1"/>
        <pt x="618" y="1444" on="1"/>
        <pt x="313" y="1444" on="1"/>
        <pt x="313" y="811" on="1"/>
        <pt x="608" y="811" on="1"/>
        <pt x="608" y="690" on="1"/>
        <pt x="313" y="690" on="1"/>
        <pt x="313" y="123" on="1"/>
        <pt x="770" y="123" on="1"/>
      </contour>
    </TTGlyph>
    <TTGlyph name="summation" xMin="85" yMin="0" xMax="649" yMax="1565">
      <contour>
        <pt x="649" y="0" on="1"/>
        <pt x="85" y="0" on="1"/>
        <pt x="85" y="108" on="1"/>
        <pt x="467" y="796" on="1"/>
        <pt x="85" y="1440" on="1"/>
        <pt x="85" y="1565" on="1"/>
        <pt x="643" y="1565" on="1"/>
        <pt x="643" y="1442" on="1"/>
        <pt x="223" y="1442" on="1"/>
        <pt x="580" y="855" on="1"/>
        <pt x="580" y="736" on="1"/>
        <pt x="224" y="123" on="1"/>
        <pt x="649" y="123" on="1"/>
      </contour>
    </TTGlyph>
    <TTGlyph name="t" xMin="41" yMin="0" xMax="459" yMax="1276">
      <contour>
        <pt x="459" y="0" on="1"/>
        <pt x="270" y="0" on="1"/>
        <pt x="158" y="0" on="0"/>
        <pt x="158" y="113" on="1"/>
        <pt x="158" y="856" on="1"/>
        <pt x="41" y="856" on="1"/>
        <pt x="41" y="973" on="1"/>
        <pt x="158" y="973" on="1"/>
        <pt x="158" y="1276" on="1"/>
        <pt x="289" y="1276" on="1"/>
        <pt x="289" y="973" on="1"/>
        <pt x="459" y="973" on="1"/>
        <pt x="459" y="856" on="1"/>
        <pt x="289" y="856" on="1"/>
        <pt x="289" y="117" on="1"/>
        <pt x="459" y="117" on="1"/>
      </contour>
    </TTGlyph>
    <TTGlyph name="thorn" xMin="109" yMin="-369" xMax="668" yMax="1565">
      <contour>
        <pt x="668" y="209" on="1"/>
        <pt x="668" y="119" on="0"/>
        <pt x="550" y="0" on="0"/>
        <pt x="461" y="0" on="1"/>
        <pt x="242" y="0" on="1"/>
        <pt x="242" y="-369" on="1"/>
        <pt x="109" y="-369" on="1"/>
        <pt x="109" y="1565" on="1"/>
        <pt x="242" y="1565" on="1"/>
        <pt x="242" y="946" on="1"/>
        <pt x="321" y="956" on="0"/>
        <pt x="400" y="966" on="1"/>
        <pt x="500" y="979" on="0"/>
        <pt x="557" y="979" on="1"/>
        <pt x="668" y="979" on="0"/>
        <pt x="668" y="870" on="1"/>
      </contour>
      <contour>
        <pt x="535" y="229" on="1"/>
        <pt x="535" y="854" on="1"/>
        <pt x="242" y="846" on="1"/>
        <pt x="242" y="117" on="1"/>
        <pt x="426" y="117" on="1"/>
        <pt x="535" y="117" on="0"/>
      </contour>
    </TTGlyph>
    <TTGlyph name="three" xMin="125" yMin="0" xMax="750" yMax="1565">
      <contour>
        <pt x="750" y="111" on="1"/>
        <pt x="750" y="62" on="0"/>
        <pt x="688" y="0" on="0"/>
        <pt x="639" y="0" on="1"/>
        <pt x="236" y="0" on="1"/>
        <pt x="187" y="0" on="0"/>
        <pt x="125" y="62" on="0"/>
        <pt x="125" y="111" on="1"/>
        <pt x="125" y="508" on="1"/>
        <pt x="264" y="508" on="1"/>
        <pt x="264" y="123" on="1"/>
        <pt x="610" y="123" on="1"/>
        <pt x="610" y="602" on="1"/>
        <pt x="334" y="809" on="1"/>
        <pt x="334" y="840" on="1"/>
        <pt x="608" y="1044" on="1"/>
        <pt x="608" y="1442" on="1"/>
        <pt x="266" y="1442" on="1"/>
        <pt x="266" y="1090" on="1"/>
        <pt x="127" y="1090" on="1"/>
        <pt x="127" y="1454" on="1"/>
        <pt x="127" y="1503" on="0"/>
        <pt x="189" y="1565" on="0"/>
        <pt x="238" y="1565" on="1"/>
        <pt x="637" y="1565" on="1"/>
        <pt x="686" y="1565" on="0"/>
        <pt x="748" y="1503" on="0"/>
        <pt x="748" y="1454" on="1"/>
        <pt x="748" y="1073" on="1"/>
        <pt x="748" y="998" on="0"/>
        <pt x="688" y="956" on="1"/>
        <pt x="502" y="825" on="1"/>
        <pt x="690" y="694" on="1"/>
        <pt x="750" y="653" on="0"/>
        <pt x="750" y="575" on="1"/>
      </contour>
    </TTGlyph>
    <TTGlyph name="threequarters" xMin="41" yMin="0" xMax="1237" yMax="1565">
      <component glyphName="fraction" x="527" y="0" flags="0x14"/>
      <component glyphName="threesuperior" x="-30" y="0" flags="0x14"/>
      <component glyphName=".notdef#47" x="674" y="0" flags="0x14"/>
    </TTGlyph>
    <TTGlyph name="threesuperior" xMin="71" yMin="769" xMax="563" yMax="1565">
      <contour>
        <pt x="563" y="888" on="1"/>
        <pt x="563" y="840" on="0"/>
        <pt x="504" y="769" on="0"/>
        <pt x="457" y="769" on="1"/>
        <pt x="190" y="769" on="1"/>
        <pt x="71" y="769" on="0"/>
        <pt x="71" y="890" on="1"/>
        <pt x="71" y="1020" on="1"/>
        <pt x="186" y="1020" on="1"/>
        <pt x="186" y="878" on="1"/>
        <pt x="448" y="878" on="1"/>
        <pt x="448" y="1038" on="1"/>
        <pt x="265" y="1151" on="1"/>
        <pt x="265" y="1218" on="1"/>
        <pt x="434" y="1317" on="1"/>
        <pt x="434" y="1453" on="1"/>
        <pt x="206" y="1453" on="1"/>
        <pt x="206" y="1324" on="1"/>
        <pt x="85" y="1324" on="1"/>
        <pt x="85" y="1436" on="1"/>
        <pt x="85" y="1565" on="0"/>
        <pt x="212" y="1565" on="1"/>
        <pt x="435" y="1565" on="1"/>
        <pt x="548" y="1565" on="0"/>
        <pt x="548" y="1454" on="1"/>
        <pt x="548" y="1337" on="1"/>
        <pt x="548" y="1281" on="0"/>
        <pt x="501" y="1243" on="1"/>
        <pt x="453" y="1213" on="0"/>
        <pt x="404" y="1184" on="1"/>
        <pt x="459" y="1151" on="0"/>
        <pt x="513" y="1118" on="1"/>
        <pt x="563" y="1079" on="0"/>
        <pt x="563" y="1013" on="1"/>
      </contour>
    </TTGlyph>
    <TTGlyph name="tilde" xMin="193" yMin="1057" xMax="627" yMax="1255">
      <contour>
        <pt x="627" y="1130" on="1"/>
        <pt x="627" y="1057" on="0"/>
        <pt x="553" y="1057" on="1"/>
        <pt x="510" y="1057" on="0"/>
        <pt x="421" y="1093" on="1"/>
        <pt x="360" y="1120" on="0"/>
        <pt x="299" y="1147" on="1"/>
        <pt x="299" y="1059" on="1"/>
        <pt x="193" y="1059" on="1"/>
        <pt x="193" y="1182" on="1"/>
        <pt x="193" y="1255" on="0"/>
        <pt x="266" y="1255" on="1"/>
        <pt x="309" y="1255" on="0"/>
        <pt x="398" y="1219" on="1"/>
        <pt x="459" y="1192" on="0"/>
        <pt x="520" y="1165" on="1"/>
        <pt x="520" y="1253" on="1"/>
        <pt x="627" y="1253" on="1"/>
      </contour>
    </TTGlyph>
    <TTGlyph name="trademark" xMin="76" yMin="668" xMax="1012" yMax="1565">
      <contour>
        <pt x="1012" y="668" on="1"/>
        <pt x="918" y="668" on="1"/>
        <pt x="918" y="1217" on="1"/>
        <pt x="801" y="762" on="1"/>
        <pt x="768" y="762" on="1"/>
        <pt x="651" y="1217" on="1"/>
        <pt x="651" y="668" on="1"/>
        <pt x="557" y="668" on="1"/>
        <pt x="557" y="1565" on="1"/>
        <pt x="647" y="1565" on="1"/>
        <pt x="784" y="1001" on="1"/>
        <pt x="926" y="1565" on="1"/>
        <pt x="1012" y="1565" on="1"/>
      </contour>
      <contour>
        <pt x="453" y="1475" on="1"/>
        <pt x="311" y="1475" on="1"/>
        <pt x="311" y="668" on="1"/>
        <pt x="217" y="668" on="1"/>
        <pt x="217" y="1475" on="1"/>
        <pt x="76" y="1475" on="1"/>
        <pt x="76" y="1565" on="1"/>
        <pt x="453" y="1565" on="1"/>
      </contour>
    </TTGlyph>
    <TTGlyph name="two" xMin="86" yMin="0" xMax="707" yMax="1565">
      <contour>
        <pt x="707" y="0" on="1"/>
        <pt x="86" y="0" on="1"/>
        <pt x="86" y="74" on="1"/>
        <pt x="565" y="1069" on="1"/>
        <pt x="565" y="1442" on="1"/>
        <pt x="246" y="1442" on="1"/>
        <pt x="246" y="1090" on="1"/>
        <pt x="106" y="1090" on="1"/>
        <pt x="106" y="1454" on="1"/>
        <pt x="106" y="1503" on="0"/>
        <pt x="168" y="1565" on="0"/>
        <pt x="217" y="1565" on="1"/>
        <pt x="594" y="1565" on="1"/>
        <pt x="643" y="1565" on="0"/>
        <pt x="705" y="1503" on="0"/>
        <pt x="705" y="1454" on="1"/>
        <pt x="705" y="1122" on="1"/>
        <pt x="705" y="1062" on="0"/>
        <pt x="668" y="985" on="1"/>
        <pt x="254" y="123" on="1"/>
        <pt x="707" y="123" on="1"/>
      </contour>
    </TTGlyph>
    <TTGlyph name="twosuperior" xMin="63" yMin="769" xMax="571" yMax="1565">
      <contour>
        <pt x="571" y="769" on="1"/>
        <pt x="63" y="769" on="1"/>
        <pt x="63" y="847" on="1"/>
        <pt x="424" y="1260" on="1"/>
        <pt x="424" y="1451" on="1"/>
        <pt x="198" y="1451" on="1"/>
        <pt x="198" y="1272" on="1"/>
        <pt x="79" y="1272" on="1"/>
        <pt x="79" y="1434" on="1"/>
        <pt x="79" y="1487" on="0"/>
        <pt x="149" y="1565" on="0"/>
        <pt x="202" y="1565" on="1"/>
        <pt x="414" y="1565" on="1"/>
        <pt x="471" y="1565" on="0"/>
        <pt x="543" y="1491" on="0"/>
        <pt x="543" y="1434" on="1"/>
        <pt x="543" y="1311" on="1"/>
        <pt x="543" y="1228" on="0"/>
        <pt x="495" y="1175" on="1"/>
        <pt x="235" y="886" on="1"/>
        <pt x="571" y="886" on="1"/>
      </contour>
    </TTGlyph>
    <TTGlyph name="u" xMin="109" yMin="-6" xMax="666" yMax="973">
      <contour>
        <pt x="666" y="0" on="1"/>
        <pt x="535" y="0" on="1"/>
        <pt x="535" y="27" on="1"/>
        <pt x="455" y="16" on="0"/>
        <pt x="376" y="6" on="1"/>
        <pt x="280" y="-6" on="0"/>
        <pt x="217" y="-6" on="1"/>
        <pt x="109" y="-6" on="0"/>
        <pt x="109" y="102" on="1"/>
        <pt x="109" y="973" on="1"/>
        <pt x="240" y="973" on="1"/>
        <pt x="240" y="119" on="1"/>
        <pt x="535" y="127" on="1"/>
        <pt x="535" y="973" on="1"/>
        <pt x="666" y="973" on="1"/>
      </contour>
    </TTGlyph>
    <TTGlyph name="uacute" xMin="109" yMin="-6" xMax="666" yMax="1294">
      <component glyphName="u" x="0" y="0" flags="0x214"/>
      <component glyphName="acute" x="79" y="0" flags="0x14"/>
    </TTGlyph>
    <TTGlyph name="ucircumflex" xMin="109" yMin="-6" xMax="666" yMax="1294">
      <component glyphName="u" x="0" y="0" flags="0x214"/>
      <component glyphName="circumflex" x="-20" y="0" flags="0x14"/>
    </TTGlyph>
    <TTGlyph name="udieresis" xMin="109" yMin="-6" xMax="666" yMax="1210">
      <component glyphName="u" x="0" y="0" flags="0x214"/>
      <component glyphName="dieresis" x="-22" y="0" flags="0x14"/>
    </TTGlyph>
    <TTGlyph name="ugrave" xMin="109" yMin="-6" xMax="666" yMax="1294">
      <component glyphName="u" x="0" y="0" flags="0x214"/>
      <component glyphName="grave" x="-126" y="0" flags="0x14"/>
    </TTGlyph>
    <TTGlyph name="underscore" xMin="0" yMin="-410" xMax="739" yMax="-299">
      <contour>
        <pt x="739" y="-410" on="1"/>
        <pt x="0" y="-410" on="1"/>
        <pt x="0" y="-299" on="1"/>
        <pt x="739" y="-299" on="1"/>
      </contour>
    </TTGlyph>
    <TTGlyph name="v" xMin="53" yMin="-2" xMax="657" yMax="973">
      <contour>
        <pt x="657" y="973" on="1"/>
        <pt x="416" y="-2" on="1"/>
        <pt x="295" y="-2" on="1"/>
        <pt x="53" y="973" on="1"/>
        <pt x="190" y="973" on="1"/>
        <pt x="356" y="207" on="1"/>
        <pt x="524" y="973" on="1"/>
      </contour>
    </TTGlyph>
    <TTGlyph name="w" xMin="55" yMin="-2" xMax="979" yMax="973">
      <contour>
        <pt x="979" y="973" on="1"/>
        <pt x="778" y="-2" on="1"/>
        <pt x="659" y="-2" on="1"/>
        <pt x="516" y="737" on="1"/>
        <pt x="373" y="-2" on="1"/>
        <pt x="256" y="-2" on="1"/>
        <pt x="55" y="973" on="1"/>
        <pt x="180" y="973" on="1"/>
        <pt x="317" y="223" on="1"/>
        <pt x="459" y="973" on="1"/>
        <pt x="575" y="973" on="1"/>
        <pt x="717" y="223" on="1"/>
        <pt x="854" y="973" on="1"/>
      </contour>
    </TTGlyph>
    <TTGlyph name="x" xMin="41" yMin="0" xMax="637" yMax="973">
      <contour>
        <pt x="637" y="0" on="1"/>
        <pt x="502" y="0" on="1"/>
        <pt x="338" y="385" on="1"/>
        <pt x="172" y="0" on="1"/>
        <pt x="41" y="0" on="1"/>
        <pt x="41" y="4" on="1"/>
        <pt x="268" y="500" on="1"/>
        <pt x="55" y="973" on="1"/>
        <pt x="190" y="973" on="1"/>
        <pt x="340" y="616" on="1"/>
        <pt x="494" y="973" on="1"/>
        <pt x="623" y="973" on="1"/>
        <pt x="623" y="969" on="1"/>
        <pt x="410" y="504" on="1"/>
      </contour>
    </TTGlyph>
    <TTGlyph name="y" xMin="53" yMin="-369" xMax="657" yMax="973">
      <contour>
        <pt x="657" y="973" on="1"/>
        <pt x="423" y="8" on="1"/>
        <pt x="326" y="-369" on="1"/>
        <pt x="195" y="-369" on="1"/>
        <pt x="293" y="8" on="1"/>
        <pt x="53" y="973" on="1"/>
        <pt x="190" y="973" on="1"/>
        <pt x="356" y="207" on="1"/>
        <pt x="524" y="973" on="1"/>
      </contour>
    </TTGlyph>
    <TTGlyph name="yacute" xMin="53" yMin="-369" xMax="657" yMax="1294">
      <component glyphName="y" x="0" y="0" flags="0x214"/>
      <component glyphName="acute" x="65" y="0" flags="0x14"/>
    </TTGlyph>
    <TTGlyph name="ydieresis" xMin="53" yMin="-369" xMax="657" yMax="1210">
      <component glyphName="y" x="0" y="0" flags="0x214"/>
      <component glyphName="dieresis" x="-53" y="0" flags="0x14"/>
    </TTGlyph>
    <TTGlyph name="yen" xMin="44" yMin="0" xMax="754" yMax="1565">
      <contour>
        <pt x="754" y="1556" on="1"/>
        <pt x="565" y="930" on="1"/>
        <pt x="737" y="930" on="1"/>
        <pt x="737" y="813" on="1"/>
        <pt x="530" y="813" on="1"/>
        <pt x="475" y="631" on="1"/>
        <pt x="737" y="631" on="1"/>
        <pt x="737" y="514" on="1"/>
        <pt x="469" y="514" on="1"/>
        <pt x="469" y="0" on="1"/>
        <pt x="330" y="0" on="1"/>
        <pt x="330" y="514" on="1"/>
        <pt x="61" y="514" on="1"/>
        <pt x="61" y="631" on="1"/>
        <pt x="324" y="631" on="1"/>
        <pt x="268" y="813" on="1"/>
        <pt x="61" y="813" on="1"/>
        <pt x="61" y="930" on="1"/>
        <pt x="233" y="930" on="1"/>
        <pt x="44" y="1561" on="0"/>
        <pt x="45" y="1565" on="1"/>
        <pt x="186" y="1565" on="1"/>
        <pt x="401" y="782" on="1"/>
        <pt x="614" y="1565" on="1"/>
        <pt x="754" y="1565" on="1"/>
        <pt x="754" y="1558" on="0"/>
      </contour>
    </TTGlyph>
    <TTGlyph name="z" xMin="63" yMin="0" xMax="575" yMax="973">
      <contour>
        <pt x="575" y="0" on="1"/>
        <pt x="63" y="0" on="1"/>
        <pt x="63" y="61" on="1"/>
        <pt x="418" y="854" on="1"/>
        <pt x="100" y="854" on="1"/>
        <pt x="100" y="973" on="1"/>
        <pt x="575" y="973" on="1"/>
        <pt x="575" y="911" on="1"/>
        <pt x="219" y="119" on="1"/>
        <pt x="575" y="119" on="1"/>
      </contour>
    </TTGlyph>
    <TTGlyph name="zcaron" xMin="63" yMin="0" xMax="583" yMax="1294">
      <component glyphName="z" x="0" y="0" flags="0x214"/>
      <component glyphName="caron" x="-68" y="0" flags="0x14"/>
    </TTGlyph>
    <TTGlyph name="zero" xMin="125" yMin="0" xMax="764" yMax="1565">
      <contour>
        <pt x="764" y="111" on="1"/>
        <pt x="764" y="62" on="0"/>
        <pt x="700" y="0" on="0"/>
        <pt x="651" y="0" on="1"/>
        <pt x="236" y="0" on="1"/>
        <pt x="187" y="0" on="0"/>
        <pt x="125" y="62" on="0"/>
        <pt x="125" y="111" on="1"/>
        <pt x="125" y="1454" on="1"/>
        <pt x="125" y="1503" on="0"/>
        <pt x="187" y="1565" on="0"/>
        <pt x="236" y="1565" on="1"/>
        <pt x="651" y="1565" on="1"/>
        <pt x="700" y="1565" on="0"/>
        <pt x="764" y="1503" on="0"/>
        <pt x="764" y="1454" on="1"/>
      </contour>
      <contour>
        <pt x="625" y="123" on="1"/>
        <pt x="625" y="1442" on="1"/>
        <pt x="264" y="1442" on="1"/>
        <pt x="264" y="123" on="1"/>
      </contour>
    </TTGlyph>
</ttFont>
